<?xml version="1.0" encoding="utf-8"?>
<!-- Generator: Adobe Illustrator 25.0.1, SVG Export Plug-In . SVG Version: 6.00 Build 0)  -->
<svg version="1.1" id="Warstwa_1" xmlns="http://www.w3.org/2000/svg" xmlns:xlink="http://www.w3.org/1999/xlink" x="0px" y="0px"
	 viewBox="0 0 70 70" style="enable-background:new 0 0 70 70;" xml:space="preserve">
<style type="text/css">
	.st0{fill:#00A0E3;}
</style>
<g>
	<polygon class="st0" points="29.1,69.5 29.1,69.5 29.1,69.5 	"/>
	<path class="st0" d="M52.9,4.9c-0.8-0.5-1.8-0.2-2.3,0.6c-0.5,0.8-0.2,1.8,0.6,2.3c4.7,2.8,8.5,6.7,11.1,11.2H51.9
		c-0.8-2.9-1.9-5.6-3.2-8.3c-1.2-2.4-2.6-4.4-4.1-6c0.7-0.1,1.3-0.5,1.4-1.2c0.2-0.9-0.3-1.8-1.2-2C41.7,0.5,38.3,0,35,0
		c0,0,0,0,0,0c0,0,0,0,0,0C20.4,0,7.3,9.1,2.2,22.8c-0.1,0.2-0.1,0.4-0.1,0.6c0,0.9,0.7,1.7,1.7,1.7c0.7,0,1.3-0.4,1.6-1.1
		C9.2,13.6,18,6.4,28.1,4.1c0,0,0,0.1,0.1,0.1c0.5,0.8,1.5,1,2.3,0.5c0.9-0.6,1.8-1,2.9-1.2V19H21.5c1-3.3,2.3-6.3,3.8-8.8
		c0.4-0.7,0.2-1.7-0.5-2.2c-0.8-0.5-1.8-0.4-2.3,0.4c-1.9,3-3.4,6.6-4.4,10.5H14c-0.9,0-1.7,0.7-1.7,1.7s0.7,1.7,1.7,1.7h3.3
		c-0.8,4-1.3,8.3-1.3,12.7c-0.1,4.7,0.5,9.4,1.6,14H14c-0.9,0-1.7,0.7-1.7,1.7s0.7,1.7,1.7,1.7h4.5c0.6,2,1.4,4.1,2.3,6
		c0.3,0.6,0.9,0.9,1.5,0.9c0.2,0,0.5-0.1,0.7-0.2c0.8-0.4,1.2-1.4,0.8-2.2c-0.7-1.5-1.2-3-1.8-4.6h11.5c0.3,0.6,0.8,1,1.5,1
		c0,0,0,0,0,0c0.7,0,1.3-0.4,1.5-1H48c-0.6,1.9-1.4,3.7-2.2,5.5c-2.6,4.9-5.7,7.9-9.1,8.7V60c0-0.9-0.7-1.7-1.7-1.7
		s-1.7,0.7-1.7,1.7v6.4c-2-0.4-3.8-1.5-5.2-3.1c-0.6-0.6-1.6-0.6-2.2,0c-0.5,0.5-0.7,1.2-0.4,1.9C12.9,61.3,4.1,49.9,3.4,36.7H10
		c0.9,0,1.7-0.7,1.7-1.7s-0.7-1.7-1.7-1.7H3.4c0-0.6,0.1-1.1,0.1-1.7c0.1-0.9-0.6-1.7-1.5-1.8c-0.9-0.1-1.7,0.6-1.8,1.5
		C0.1,32.5,0,33.7,0,35c0,0,0,0,0,0s0,0,0,0c0,16.9,12.1,31.4,28.8,34.4c0.1,0,0.2,0,0.3,0c0.5,0,0.9-0.2,1.2-0.5
		c1.5,0.6,3.1,1,4.7,1.1c0,0,0,0,0,0c0,0,0,0,0,0c0.6,0,1.3-0.1,1.9-0.2c0.2,0,0.3,0.1,0.5,0.1l0.1,0c11.4-0.8,21.8-7.2,27.6-17.1
		C75,36.2,69.5,14.8,52.9,4.9z M63.4,49h-11c1-4,1.5-8.2,1.6-12.3h12.6C66.4,41.1,65.2,45.2,63.4,49z M64,22.3
		C64,22.3,64,22.3,64,22.3c1.4,3.3,2.3,6.8,2.6,10.4c0,0.2,0,0.4,0,0.6H54c0-3.7-0.4-7.4-1.2-11H64z M50.6,33.3h-14v-11h12.6
		C50.1,25.9,50.6,29.6,50.6,33.3z M36.7,3.5c3.4,0.8,6.6,3.8,9.1,8.7c1,2.2,1.9,4.5,2.6,6.8H36.7V3.5z M33.3,22.3v11h-14
		c0.1-3.8,0.6-7.6,1.3-11H33.3z M19.3,36.7h14V49H21C19.9,45,19.4,40.8,19.3,36.7z M36.7,49V36.7h14C50.6,40.8,50,45,49,49H36.7z
		 M44.8,65.1c1.4-1.6,2.8-3.5,3.9-5.8c1.1-2.3,2-4.6,2.7-7h10C57.6,58.3,51.7,62.9,44.8,65.1z"/>
</g>
</svg>
