<?xml version="1.0" encoding="utf-8"?>
<!-- Generator: Adobe Illustrator 25.2.1, SVG Export Plug-In . SVG Version: 6.00 Build 0)  -->
<svg version="1.1" id="Warstwa_1" xmlns="http://www.w3.org/2000/svg" xmlns:xlink="http://www.w3.org/1999/xlink" x="0px" y="0px"
	 viewBox="0 0 70 70" style="enable-background:new 0 0 70 70;" xml:space="preserve">
<style type="text/css">
	.st0{fill:#F1D04C;}
	.st1{fill:#00A0E3;}
</style>
<g>
	<g>
		<polygon class="st0" points="63.8,50.2 64.9,50.8 63.7,52.9 62.6,52.2 		"/>
		<path class="st0" d="M60.5,51l-2.1-1.2l1.2-2.1l2.1,1.2L60.5,51z M56.3,48.6l-2.1-1.2l1.2-2.1l2.1,1.2L56.3,48.6z M52.2,46.2
			L50.1,45l1.2-2.1l2.1,1.2L52.2,46.2z M48,43.8l-2.1-1.2l1.2-2.1l2.1,1.2L48,43.8z M43.8,41.5l-2.1-1.2l1.2-2.1l2.1,1.2L43.8,41.5z
			 M39.6,39.1l-2.1-1.2l1.2-2.1l2.1,1.2L39.6,39.1z"/>
		<polygon class="st0" points="35.4,36.7 35,36.4 34.6,36.7 33.3,34.6 35,33.6 36.7,34.6 		"/>
		<path class="st0" d="M9.5,51L8.3,49l2.1-1.2l1.2,2.1L9.5,51z M13.7,48.6l-1.2-2.1l2.1-1.2l1.2,2.1L13.7,48.6z M17.8,46.2l-1.2-2.1
			l2.1-1.2l1.2,2.1L17.8,46.2z M22,43.8l-1.2-2.1l2.1-1.2l1.2,2.1L22,43.8z M26.2,41.4L25,39.4l2.1-1.2l1.2,2.1L26.2,41.4z
			 M30.4,39.1L29.2,37l2.1-1.2l1.2,2.1L30.4,39.1z"/>
		<polygon class="st0" points="6.2,50.2 7.4,52.2 6.3,52.9 5.1,50.8 		"/>
	</g>
	<g>
		<rect x="33.8" y="33.8" class="st0" width="2.4" height="1.2"/>
		<path class="st0" d="M36.2,31.4h-2.4V29h2.4V31.4z M36.2,26.6h-2.4v-2.4h2.4V26.6z M36.2,21.8h-2.4v-2.4h2.4V21.8z M36.2,17h-2.4
			v-2.4h2.4V17z M36.2,12.2h-2.4V9.8h2.4V12.2z M36.2,7.4h-2.4V5h2.4V7.4z"/>
		<rect x="33.8" y="1.4" class="st0" width="2.4" height="1.2"/>
	</g>
	<path class="st1" d="M35,0L4.5,17.5v35L35,70l30.5-17.5v-35L35,0z M61.8,18.2L35,33.6L8.2,18.2L35,2.8L61.8,18.2z M6.9,20.3
		l26.8,15.4v30.8L6.9,51.1V20.3z M36.2,66.5V35.7l26.8-15.4v30.8L36.2,66.5z"/>
</g>
</svg>
