<?xml version="1.0" encoding="utf-8"?>
<!-- Generator: Adobe Illustrator 25.0.0, SVG Export Plug-In . SVG Version: 6.00 Build 0)  -->
<svg version="1.1" id="Warstwa_1" xmlns="http://www.w3.org/2000/svg" xmlns:xlink="http://www.w3.org/1999/xlink" x="0px" y="0px"
	 viewBox="0 0 55 55" style="enable-background:new 0 0 55 55;" xml:space="preserve">
<style type="text/css">
	.st0{fill:#F1D04C;}
	.st1{fill:#00A0E3;}
</style>
<g>
	<g>
		<path class="st0" d="M12,27.6c-2.6,0-4.7-2.1-4.7-4.7s2.1-4.7,4.7-4.7s4.7,2.1,4.7,4.7S14.6,27.6,12,27.6z M12,20.6
			c-1.3,0-2.3,1-2.3,2.3s1,2.3,2.3,2.3s2.3-1,2.3-2.3S13.3,20.6,12,20.6z"/>
	</g>
	<path class="st0" d="M39.4,31.4l11.3-11.3l4-4c0.5-0.5,0.5-1.2,0-1.7l-4.4-4.4c-0.5-0.5-1.2-0.5-1.7,0l-4,4L32.2,26.4l-1.7,1.7
		l-1.3,1.3c-0.1,0.1-0.2,0.2-0.3,0.4l-3.3,7.7c-0.2,0.5-0.1,1,0.3,1.3c0.2,0.2,0.5,0.4,0.9,0.4c0.2,0,0.3,0,0.5-0.1l7.7-3.3
		c0.1-0.1,0.3-0.1,0.4-0.3l1.7-1.7 M29,35.7l1.6-3.7l2.1,2.1L29,35.7z M37.3,30.1C37.3,30.1,37.3,30.1,37.3,30.1l-3.2,3.2l-2.7-2.7
		L33,29c0,0,0,0,0,0c0,0,0,0,0,0l12.4-12.4l2.7,2.7L37.3,30.1z M49.3,18.1l-2.7-2.7l2.8-2.8l2.7,2.7L49.3,18.1z"/>
	<path class="st1" d="M37,42.9L37,42.9H2.4v-2l7.5-7.5l3.9,3.9c0.5,0.5,1.2,0.5,1.7,0l12.1-12.1l2.9,2.9l1.7-1.7l-3.7-3.7
		c-0.5-0.5-1.2-0.5-1.7,0L14.7,34.7l-3.9-3.9c-0.5-0.5-1.2-0.5-1.7,0l-6.7,6.7V14.4H37v7.3l2.4-2.4v-6c0-0.7-0.5-1.2-1.2-1.2h-37
		c-0.7,0-1.2,0.5-1.2,1.2v31c0,0.7,0.5,1.2,1.2,1.2h37c0.7,0,1.2-0.5,1.2-1.2V31.4L37,33.8V42.9z"/>
</g>
</svg>
