<?xml version="1.0" encoding="utf-8"?>
<!-- Generator: Adobe Illustrator 25.0.0, SVG Export Plug-In . SVG Version: 6.00 Build 0)  -->
<svg version="1.1" id="Warstwa_1" xmlns="http://www.w3.org/2000/svg" xmlns:xlink="http://www.w3.org/1999/xlink" x="0px" y="0px"
	 viewBox="0 0 55 55" style="enable-background:new 0 0 55 55;" xml:space="preserve">
<style type="text/css">
	.st0{fill:#F1D04C;}
	.st1{fill:#00A0E3;}
</style>
<g>
	<path class="st0" d="M21.6,17.2l6.2-3.8l6.7,4.1c0.2-1,0.3-1.5,0.5-2.2l-6.1-3.8V9.4C31,8.9,32.6,7,32.6,4.8c0-2.6-2.1-4.8-4.8-4.8
		S23,2.1,23,4.8c0,0.6,0.5,1.1,1.1,1.1c0.6,0,1.1-0.5,1.1-1.1c0-1.4,1.2-2.6,2.6-2.6c1.4,0,2.6,1.2,2.6,2.6s-1.2,2.6-2.6,2.6
		c-0.6,0-1.1,0.5-1.1,1.1v3l-5.8,3.6C21,15.4,21.6,17.1,21.6,17.2z"/>
	<path class="st1" d="M53.4,29.2C51.1,25.9,43.4,15,39.5,15h-3.8c-0.3,0-0.5,0.1-0.7,0.3h0c-0.2,0.7-0.3,1.2-0.5,2.2
		c-0.5,1.9-2.2,3.3-4.3,3.3h-4.3c-2.2,0-4-1.6-4.3-3.6c0-0.1-0.6-1.8-0.7-2.1C20.8,15,20.6,15,20.5,15h-4.9
		c-3.7,0-11.7,10.9-14,14.2c-0.3,0.5-0.2,1.1,0.2,1.5l8.8,7.2c0.2,0.2,0.4,0.2,0.7,0.2c0.3,0,0.6-0.1,0.8-0.4l0.6-0.8v17
		c0,0.6,0.5,1.1,1.1,1.1h27.6c0.6,0,1.1-0.5,1.1-1.1V37.2l0.4,0.5c0.2,0.3,0.5,0.4,0.8,0.4c0.2,0,0.5-0.1,0.7-0.2l8.8-7.2
		C53.6,30.3,53.7,29.7,53.4,29.2z M35.6,16.4l0,0.3l-0.2-0.1L35.6,16.4z M20.6,16.3L20.6,16.3L20.6,16.3L20.6,16.3z M43.9,35.5
		l-1.7-2C42,33.2,41.7,33,41.4,33c-0.1,0-0.2,0-0.4,0.1c-0.4,0.2-0.7,0.6-0.7,1v18.7H14.9V33.9c0-0.5-0.3-0.9-0.7-1
		c-0.1,0-0.2-0.1-0.4-0.1c-0.3,0-0.6,0.1-0.8,0.4l-1.9,2.3L4,29.6c1.4-2,3-4,4.5-5.8c0.6-0.8,1.3-1.5,1.9-2.2
		c2.3-2.6,4.3-4.4,5.3-4.4h1.9h1.9c0,0.4,0.1,0.8,0.3,1.2c0.5,1.7,1.8,3.2,3.4,3.9c0.9,0.4,1.8,0.7,2.9,0.7h4.3c1,0,2-0.2,2.9-0.7
		c1.5-0.7,2.7-2.1,3.3-3.7c0.2-0.5,0.3-1,0.4-1.5h1.3h1.4c0.9,0,2.7,1.5,4.7,3.8c0.9,1,1.8,2,2.7,3.2c1.4,1.7,2.8,3.6,4.1,5.5
		L43.9,35.5z"/>
</g>
</svg>
