<?xml version="1.0" encoding="utf-8"?>
<!-- Generator: Adobe Illustrator 25.0.1, SVG Export Plug-In . SVG Version: 6.00 Build 0)  -->
<svg version="1.1" id="Warstwa_1" xmlns="http://www.w3.org/2000/svg" xmlns:xlink="http://www.w3.org/1999/xlink" x="0px" y="0px"
	 viewBox="0 0 70 70" style="enable-background:new 0 0 70 70;" xml:space="preserve">
<style type="text/css">
	.st0{fill:#00A0E3;}
</style>
<g id="Group_136" transform="translate(-5.036 -4.866)">
	<path id="Path_63" class="st0" d="M6.3,36.6h0.3c0.8,0,1.4-0.6,1.6-1.3c0.4-2.2,1.1-4.4,1.9-6.4c3.5-8.6,10.3-15.4,18.9-18.9
		c2.1-0.8,4.3-1.5,6.5-1.9c0.9-0.2,1.4-1,1.2-1.9c-0.2-0.9-1-1.4-1.9-1.2c-2.4,0.5-4.8,1.2-7.1,2.1c-4.7,1.9-8.9,4.7-12.4,8.2
		c-3.5,3.5-6.3,7.7-8.2,12.3c-0.9,2.3-1.6,4.6-2.1,7.1c-0.2,0.8,0.3,1.7,1.1,1.9C6.3,36.6,6.3,36.6,6.3,36.6z"/>
	<path id="Path_64" class="st0" d="M22.8,22.8c-2.5,2.5-4.5,5.5-5.9,8.9c-0.8,1.9-1.3,3.9-1.6,5.9c-0.1,0.8,0.4,1.6,1.2,1.8
		c0,0,0.1,0,0.1,0h0.2c0.8,0,1.4-0.6,1.6-1.3c0.3-1.8,0.8-3.5,1.5-5.2c2.4-5.9,7.1-10.6,13.1-13c1.7-0.7,3.4-1.2,5.2-1.5
		c0.9-0.1,1.5-0.9,1.3-1.8c-0.1-0.9-0.9-1.5-1.8-1.3C32,16,26.8,18.7,22.8,22.8L22.8,22.8z"/>
	<path id="Path_65" class="st0" d="M25.6,40.4c-0.1,0.9,0.6,1.6,1.4,1.7c0,0,0,0,0,0h0.2c0.8,0,1.5-0.7,1.6-1.5
		c0.5-6.4,5.6-11.5,12.1-12c0.9-0.1,1.5-0.8,1.5-1.7c-0.1-0.9-0.8-1.5-1.7-1.5c-3.9,0.3-7.5,2-10.3,4.7
		C27.5,32.9,25.9,36.5,25.6,40.4z"/>
	<path id="Path_66" class="st0" d="M46.2,46.1c-2.6,2.7-5.5,4.9-8.7,6.8c-2.3,1.2-4.2,1.6-4.8,0.9c-0.3-0.3-0.6-0.7-0.9-1
		c-0.7-1.1-1.7-2-3-2.5c-1.6-0.4-3.3-0.4-4.9,0.1c-4.1,0.9-8.1,2.1-12.1,3.7c-1.4,0.5-2.7,1.2-4,2.1c-1.4,1-2.3,2.5-2.7,4.2
		c-0.3,2.6,0.6,5.3,2.5,7.1c3.3,3.8,7.9,6.4,12.9,7.1c1.1,0.2,2.2,0.2,3.3,0.2c5.7-0.2,11.4-1.8,16.3-4.7
		c6.4-3.3,12.2-7.6,17.4-12.6l0,0c5-5.1,9.3-11,12.7-17.3c3.9-7.4,5.4-13.8,4.5-19.6c-0.4-2.5-1.2-4.9-2.4-7.1
		c-1.2-2.2-2.8-4.2-4.7-5.8c-1.9-1.9-4.5-2.8-7.2-2.5c-1.7,0.4-3.2,1.3-4.2,2.7c-0.9,1.2-1.6,2.6-2.1,4c-1.5,3.9-2.7,7.9-3.7,12
		c-0.5,1.6-0.6,3.3-0.1,4.9c0.5,1.2,1.4,2.2,2.5,3c0.4,0.3,0.7,0.6,1,0.9c0.7,0.7,0.3,2.6-0.9,4.8C51.1,40.7,48.9,43.6,46.2,46.1z
		 M56.2,30.3c-0.4-0.4-0.8-0.7-1.2-1.1c-0.7-0.5-1.3-1-1.5-1.6c-0.2-1-0.2-2,0.2-3c0.9-4,2.1-7.8,3.5-11.6c0.4-1.1,1-2.2,1.6-3.2
		c0.6-0.8,1.4-1.3,2.3-1.6c1.7-0.1,3.3,0.6,4.4,1.8c3.3,2.8,5.4,6.8,6.1,11c0.8,5.1-0.6,10.9-4.2,17.6c-3.2,6.1-7.3,11.6-12.1,16.5
		c-4.8,4.9-10.4,9-16.6,12.2c-6.8,3.6-12.6,4.9-17.7,4.2c-4.3-0.6-8.2-2.8-11-6.1c-1.2-1.2-1.9-2.8-1.8-4.4c0.2-1,0.8-1.8,1.6-2.3
		c1-0.7,2-1.3,3.2-1.6c3.8-1.4,7.7-2.6,11.7-3.5c1-0.4,2-0.4,3-0.2c0.6,0.4,1.2,0.9,1.6,1.5c0.3,0.4,0.7,0.8,1.1,1.2
		c0.9,0.8,2.1,1.3,3.3,1.2c0.3,0,0.5,0,0.8-0.1c1.6-0.3,3.1-0.8,4.5-1.6c3.5-2,6.7-4.5,9.5-7.4c2.9-2.8,5.4-6,7.4-9.5
		c0.8-1.4,1.3-2.9,1.6-4.5C57.7,32.9,57.2,31.4,56.2,30.3L56.2,30.3z"/>
</g>
</svg>
