<?xml version="1.0" encoding="utf-8"?>
<!-- Generator: Adobe Illustrator 25.0.0, SVG Export Plug-In . SVG Version: 6.00 Build 0)  -->
<svg version="1.1" id="Warstwa_1" xmlns="http://www.w3.org/2000/svg" xmlns:xlink="http://www.w3.org/1999/xlink" x="0px" y="0px"
	 viewBox="0 0 55 55" style="enable-background:new 0 0 55 55;" xml:space="preserve">
<style type="text/css">
	.st0{fill:#F1D04C;}
	.st1{fill:#00A0E3;}
</style>
<g>
	<path class="st0" d="M30.7,12.3c-1.8-1.1-4.1-1.7-6.6-1.7c-2.5,0-4.8,0.6-6.6,1.7s-3.1,2.7-3.1,4.6c0,1.9,1.3,3.5,3.1,4.6
		c1.8,1.1,4.1,1.7,6.6,1.7c2.5,0,4.8-0.6,6.6-1.7c1.8-1.1,3.1-2.7,3.1-4.6C33.8,15,32.5,13.4,30.7,12.3z M29.5,19.5
		c-1.3,0.8-3.3,1.3-5.4,1.3s-4.1-0.6-5.4-1.3c-1.3-0.8-2-1.7-2-2.6c0-0.9,0.6-1.9,2-2.6c1.3-0.8,3.3-1.3,5.4-1.3s4.1,0.5,5.4,1.3
		c1.3,0.8,2,1.7,2,2.6C31.5,17.8,30.8,18.7,29.5,19.5z"/>
	<path class="st1" d="M51.4,23.3c-1.3,0-1.9-0.2-2.8-1.1c-0.9-0.9-1.8-2.8-2.9-6.2c0-0.1,0-0.1-0.1-0.2c-0.5-3.8-3-7.1-6.7-9.4
		C35,4,29.8,2.5,24.1,2.5l0,0C18.4,2.5,13.2,4,9.3,6.4C5.6,8.8,3,12.1,2.6,15.9c0,0,0,0,0,0c-0.1,0.2-0.1,0.3-0.1,0.5
		c0,0.1,0,0.3,0,0.4V17v22.1c0,0.3,0.1,0.5,0.3,0.7c0.7,3.6,3.2,6.7,6.9,8.9c3.8,2.3,8.9,3.7,14.4,3.7s10.6-1.4,14.4-3.7
		c2.9-1.7,5-4,6.2-6.7c0.7,1.4,1.4,2.5,2.2,3.3c1.2,1.3,2.5,2,4,2.6l1.6,0.6V47V24.4v-1.1H51.4z M4.8,17v-0.4c0,0,0-0.1,0-0.1
		c0.2-3.1,2.3-6,5.7-8.2c3.5-2.2,8.3-3.6,13.6-3.6l0,0c5.3,0,10.1,1.4,13.6,3.6c3.4,2.1,5.5,5,5.7,8c0,0,0,0.1,0,0.1
		c0,3.3-2,6.3-5.5,8.6c-3.5,2.3-8.4,3.8-13.8,3.8s-10.4-1.5-13.8-3.8C7,23,5,20.1,4.8,17C4.8,17.1,4.8,17,4.8,17z M43.4,38.6
		c0,0,0,0.1,0,0.1c0,0.1-0.1,0.2-0.1,0.2c-0.4,3-2.5,5.8-6,7.8s-8.1,3.4-13.3,3.4s-9.8-1.3-13.3-3.4c-3.4-2.1-5.6-4.9-6-7.8
		c0-0.1,0-0.2-0.1-0.3V23.1C5.9,24.6,7.3,25.9,9,27c3.9,2.6,9.2,4.2,15.1,4.2c5.9,0,11.2-1.6,15.1-4.2c1.7-1.1,3.2-2.5,4.2-4V38.6z"
		/>
</g>
</svg>
