<?xml version="1.0" encoding="utf-8"?>
<!-- Generator: Adobe Illustrator 25.0.1, SVG Export Plug-In . SVG Version: 6.00 Build 0)  -->
<svg version="1.1" id="Warstwa_1" xmlns="http://www.w3.org/2000/svg" xmlns:xlink="http://www.w3.org/1999/xlink" x="0px" y="0px"
	 viewBox="0 0 70 70" style="enable-background:new 0 0 70 70;" xml:space="preserve">
<style type="text/css">
	.st0{fill:none;}
	.st1{fill:#00A0E3;}
</style>
<rect x="1" y="0" class="st0" width="68" height="70"/>
<g>
	<path class="st1" d="M28,50c0,0-0.1,0-0.1,0h0H12.8c-1.1,0-1.9,0.9-1.9,2c0,1,0.9,1.8,1.9,1.9h15.1c1.1,0,2-0.8,2-1.9
		C29.9,50.9,29.1,50,28,50z"/>
	<path class="st1" d="M23.5,25.5h3.1v3.1c0,1.1,0.9,1.9,1.9,1.9c1.1,0,1.9-0.9,1.9-1.9v-3.1h3.1c1.1,0,2-0.9,2-1.9
		c0-1.1-0.9-1.9-2-1.9h-3.1v-3.1c0-1.1-0.9-1.9-1.9-1.9c-1.1,0-1.9,0.9-1.9,1.9v3.1h-3.1c-1.1,0-1.9,0.9-1.9,1.9
		C21.6,24.6,22.5,25.5,23.5,25.5z"/>
	<path class="st1" d="M68.8,17.9L68.8,17.9l-3.5-3.5c-1.6-1.6-4.3-1.6-5.9,0l-3.7,3.6v-5.9c0-4.6-3.8-8.3-8.4-8.3h-3
		C43.8,1.6,41.8,0,39.5,0H18.2c-2.3,0-4.3,1.6-4.8,3.8h-3C5.8,3.8,2,7.6,2,12.1v49.5c0,4.6,3.8,8.3,8.4,8.3h36.9
		c4.6,0,8.4-3.7,8.4-8.3l0-24.6c0-0.1,0-0.2-0.1-0.3l13.1-13C70.4,22.2,70.4,19.6,68.8,17.9z M17.2,4.9c0-0.5,0.4-1,1-1h21.3
		c0.6,0,1,0.4,1,1v2.8H17.2V4.9z M51.8,61.7c0,2.5-2,4.4-4.5,4.5H10.4c-2.5,0-4.5-2-4.5-4.5V12.1c0-2.5,2-4.4,4.5-4.5h2.9v1.9
		c0,1.1,0.9,1.9,1.9,1.9h27.2c1.1,0,1.9-0.9,1.9-1.9c0,0,0,0,0,0V7.7h2.9c2.5,0,4.5,2,4.5,4.5V22L40.5,33.2
		c-0.1,0.1-0.1,0.1-0.1,0.2L40,34.7c-0.2-0.1-0.4-0.1-0.7-0.1H12.8c-1.1,0-1.9,0.9-1.9,1.9s0.9,1.9,1.9,1.9H39l-1.1,3.9H12.8
		c-1.1,0-1.9,0.9-1.9,1.9c0,1.1,0.9,1.9,1.9,1.9h25.5c0,0,0.1,0,0.1,0c0.5,0,0.9-0.2,1.2-0.5l0.5-0.5l9.4-2.5c0.1,0,0.2-0.1,0.2-0.1
		l1.9-1.9L51.8,61.7z M42.9,37.5l2.7,2.7l-3.7,1L42.9,37.5z M48.9,38.6l-4.5-4.4l11.8-11.7l4.5,4.4L48.9,38.6z M66.3,21.4
		C66.3,21.4,66.3,21.4,66.3,21.4l-3.1,3.1L58.7,20l3.1-3.1c0.3-0.2,0.7-0.2,1,0l0,0l3.5,3.5C66.6,20.7,66.6,21.1,66.3,21.4z"/>
</g>
</svg>
