<?xml version="1.0" encoding="utf-8"?>
<!-- Generator: Adobe Illustrator 25.2.1, SVG Export Plug-In . SVG Version: 6.00 Build 0)  -->
<svg version="1.1" id="Warstwa_1" xmlns="http://www.w3.org/2000/svg" xmlns:xlink="http://www.w3.org/1999/xlink" x="0px" y="0px"
	 viewBox="0 0 70 70" style="enable-background:new 0 0 70 70;" xml:space="preserve">
<style type="text/css">
	.st0{fill:#FFFFFF;}
</style>
<g>
	<path class="st0" d="M28.3,13.6c-0.4-0.5-1-0.6-1.5-0.2c-3.2,2.4-8.3,5.3-14.1,5.3c0,0,0,0,0,0c-0.7,0-1.3,0.3-1.8,0.7
		c-0.5,0.5-0.8,1.1-0.8,1.8c0,0.3,0,7.9,2.7,16.5c1.9,5.8,4.5,10.6,8,14.5c0.2,0.2,0.5,0.4,0.8,0.4c0.3,0,0.5-0.1,0.7-0.3
		c0.4-0.4,0.5-1.1,0.1-1.5c-3.3-3.6-5.8-8.2-7.5-13.7c-2.6-8.2-2.6-15.5-2.6-15.8c0-0.1,0.1-0.2,0.1-0.2c0,0,0.1-0.1,0.3-0.1
		c0,0,0,0,0,0c6.4,0,11.9-3.1,15.4-5.7C28.5,14.7,28.6,14.1,28.3,13.6z"/>
	<path class="st0" d="M35,0.7C34.6,0.3,34,0,33.4,0c0,0,0,0-0.1,0c-0.6,0-1.1,0.2-1.5,0.6c-0.1,0.1-11.7,11.9-26,11.9
		c-0.4,0-0.7,0-1.1,0c0,0-0.1,0-0.1,0c-1.1,0-2,0.9-2.1,1.9c0,0.4-0.5,11,2.8,23.1c4.5,16.3,13.7,27.5,26.8,32.4
		c0.2,0.1,0.5,0.1,0.8,0.1c0.2,0,0.4,0,0.5-0.1c0.3-0.1,7.1-1.9,14.3-8.8c-0.9-0.1-1.8-0.3-2.6-0.5c-6.3,5.7-12.1,7.2-12.2,7.3
		C20.5,63.1,11.7,52.5,7.4,36.9C4.4,25.8,4.6,16,4.7,14.7c0.4,0,0.8,0,1.1,0c15,0,26.7-11.6,27.6-12.5c9.3,10.3,27.4,13.3,28.7,13.5
		c-0.1,3.5-0.3,6.8-0.7,9.8c0.7,0.5,1.3,1,2,1.6c0.5-3.5,0.8-7.4,0.9-11.5c0-1-0.7-1.9-1.8-2.1C62.3,13.5,43.9,10.8,35,0.7z"/>
	<path class="st0" d="M67.5,41.6c0-9.7-7.8-17.5-17.3-17.5c0,0,0,0,0,0c-9.6,0-17.3,7.8-17.3,17.5c0,9.7,7.8,17.5,17.3,17.5
		C59.7,59.1,67.5,51.2,67.5,41.6z M61.4,51.3l-2.1-2.1c-0.4-0.4-1.1-0.4-1.5,0c-0.4,0.4-0.4,1.1,0,1.5l2.1,2.1
		c0.1,0.1,0.2,0.2,0.3,0.2c-2.4,2.1-5.5,3.5-9,3.8c0-0.1,0.1-0.2,0.1-0.4v-3c0-0.6-0.5-1.1-1.1-1.1c-0.6,0-1.1,0.5-1.1,1.1v3
		c0,0.1,0,0.3,0.1,0.4c-3.4-0.2-6.5-1.6-9-3.8c0.1-0.1,0.2-0.1,0.3-0.2l2.1-2.1c0.4-0.4,0.4-1.1,0-1.5c-0.4-0.4-1.1-0.4-1.5,0
		L39,51.3c-0.1,0.1-0.2,0.2-0.2,0.3c-2.1-2.5-3.5-5.6-3.7-9c0.1,0,0.2,0.1,0.4,0.1h3c0.6,0,1.1-0.5,1.1-1.1s-0.5-1.1-1.1-1.1h-3
		c-0.1,0-0.2,0-0.4,0.1c0.2-3.4,1.5-6.5,3.7-9c0.1,0.1,0.1,0.2,0.2,0.3l2.1,2.1c0.2,0.2,0.5,0.3,0.8,0.3c0.3,0,0.6-0.1,0.8-0.3
		c0.4-0.4,0.4-1.1,0-1.5l-2.1-2.1c-0.1-0.1-0.2-0.2-0.3-0.2c2.5-2.2,5.6-3.5,9-3.7c0,0.1-0.1,0.2-0.1,0.4v3c0,0.6,0.5,1.1,1.1,1.1
		c0.6,0,1.1-0.5,1.1-1.1v-3c0-0.1,0-0.3-0.1-0.4c3.4,0.2,6.7,1.6,9.2,4l-9.9,9.2l-4.7-4.2c-0.5-0.4-1.1-0.4-1.5,0.1
		c-0.4,0.5-0.3,1.1,0.1,1.5l5.5,4.8c0.2,0.2,0.5,0.3,0.7,0.3c0.3,0,0.5-0.1,0.7-0.3l10.7-9.9c2,2.5,3.2,5.5,3.4,8.7
		c-0.1,0-0.2-0.1-0.4-0.1h-3c-0.6,0-1.1,0.5-1.1,1.1s0.5,1.1,1.1,1.1h3c0.1,0,0.2,0,0.4-0.1c-0.2,3.5-1.6,6.6-3.7,9
		C61.5,51.5,61.5,51.4,61.4,51.3z"/>
	<ellipse class="st0" cx="24.7" cy="54.7" rx="1.1" ry="1.1"/>
</g>
</svg>
