<?xml version="1.0" encoding="utf-8"?>
<!-- Generator: Adobe Illustrator 25.0.0, SVG Export Plug-In . SVG Version: 6.00 Build 0)  -->
<svg version="1.1" id="Warstwa_1" xmlns="http://www.w3.org/2000/svg" xmlns:xlink="http://www.w3.org/1999/xlink" x="0px" y="0px"
	 viewBox="0 0 55 55" style="enable-background:new 0 0 55 55;" xml:space="preserve">
<style type="text/css">
	.st0{fill:#F1D04C;}
	.st1{fill:#70B62C;}
	.st2{fill:#00A0E3;}
</style>
<g>
	<path class="st0" d="M17,25.4c2.4,0,4.3-1.9,4.3-4.3c0-2.4-1.9-4.3-4.3-4.3s-4.3,1.9-4.3,4.3S14.6,25.4,17,25.4L17,25.4z M17,19.1
		c1.1,0,2,0.9,2,2c0,1.1-0.9,2-2,2s-2-0.9-2-2S15.9,19.1,17,19.1L17,19.1z"/>
	<path class="st1" d="M43.4,30c-5.8,0-10.5,4.7-10.5,10.5s4.7,10.5,10.5,10.5s10.5-4.7,10.5-10.5S49.1,30,43.4,30z M43.4,50
		c-5.3,0-9.6-4.3-9.6-9.6s4.3-9.6,9.6-9.6s9.6,4.3,9.6,9.6S48.7,50,43.4,50z"/>
	<path class="st0" d="M43.4,28.8c-6.4,0-11.6,5.2-11.6,11.6S37,52.1,43.4,52.1c6.4,0,11.6-5.2,11.6-11.6S49.8,28.8,43.4,28.8z
		 M43.4,50c-5.3,0-9.6-4.3-9.6-9.6s4.3-9.6,9.6-9.6c5.3,0,9.6,4.3,9.6,9.6S48.7,50,43.4,50z"/>
	<path class="st2" d="M50,39l-2.5,3.3l-3.3-2.5c-0.4-0.3-0.5-0.8-0.2-1.2c0.3-0.4,0.8-0.5,1.2-0.2l1,0.8c-0.2-0.6-0.6-1.1-1.1-1.5
		c-0.8-0.6-1.7-0.8-2.6-0.7c-0.9,0.1-1.7,0.6-2.3,1.3s-0.8,1.7-0.7,2.6c0.1,0.9,0.6,1.7,1.3,2.3c1.1,0.8,2.6,0.9,3.8,0.3
		c0.4-0.2,0.9-0.1,1.2,0.3c0.2,0.4,0.1,0.9-0.3,1.2c-0.8,0.4-1.7,0.6-2.5,0.6c-1.1,0-2.2-0.3-3.1-1c-1.1-0.8-1.9-2.1-2-3.4
		c-0.2-1.4,0.2-2.7,1-3.9c0.8-1.1,2.1-1.9,3.4-2c1.4-0.2,2.7,0.2,3.9,1c0.9,0.6,1.5,1.5,1.8,2.5l0.6-0.9c0.3-0.4,0.8-0.5,1.2-0.2
		C50.2,38.1,50.3,38.6,50,39z"/>
	<path class="st2" d="M33.2,34.8L26,23.5c-0.4-0.5-1.1-0.7-1.6-0.3c-0.1,0.1-0.2,0.1-0.3,0.2l-6.7,8l-3.2-2.3
		c-0.3-0.2-0.6-0.2-0.9-0.2c-0.3,0-0.6,0.2-0.8,0.5l-5.2,7.3C7,37.3,7.2,38,7.7,38.3c0.2,0.1,0.4,0.2,0.6,0.2h23.6
		C32.1,37.2,32.6,35.9,33.2,34.8z M13.8,31.6l3.1,2.2c0.5,0.4,1.2,0.3,1.6-0.2l6.5-7.6l6.3,10.1H10.6L13.8,31.6z"/>
	<path class="st2" d="M31.8,41.9H6.4c-2.2,0-4.1-1.8-4.1-4.1V17.5c0-2.2,1.8-4.1,4.1-4.1h29.1c2.2,0,4.1,1.8,4.1,4.1v12
		c0.7-0.3,1.5-0.5,2.3-0.6V17.5c0-3.5-2.9-6.4-6.4-6.4H9.9V9.3c0-2.2,1.8-4.1,4.1-4.1h29.6c2.2,0,4.1,1.8,4.1,4.1v20.3
		c0.8,0.3,1.5,0.7,2.2,1.2c0.1-0.4,0.1-0.7,0.1-1.1V9.3c0-3.5-2.9-6.4-6.4-6.4H14c-3.5,0-6.4,2.9-6.4,6.4v1.7H6.4
		c-3.5,0-6.4,2.9-6.4,6.4v20.3c0,3.5,2.9,6.4,6.4,6.4h26C32.1,43.5,31.9,42.7,31.8,41.9z"/>
</g>
</svg>
