<?xml version="1.0" encoding="utf-8"?>
<!-- Generator: Adobe Illustrator 25.0.0, SVG Export Plug-In . SVG Version: 6.00 Build 0)  -->
<svg version="1.1" id="Warstwa_1" xmlns="http://www.w3.org/2000/svg" xmlns:xlink="http://www.w3.org/1999/xlink" x="0px" y="0px"
	 viewBox="0 0 55 55" style="enable-background:new 0 0 55 55;" xml:space="preserve">
<style type="text/css">
	.st0{fill:#00A0E3;}
	.st1{fill:#F1D04C;}
</style>
<g>
	<g>
		<path class="st0" d="M51.5,2c0.2,0,0.3,0.1,0.3,0.3v8.6c-1,0.9-2.9,2.7-4.6,4.8c0.3-0.7,0.3-1.4,0-2.2l0-0.1l0-0.1
			c-0.5-1-1.5-1.6-2.6-1.6h-5c0.8-0.5,1.4-1.4,1.5-2.4l0-0.1l0,0c0.1-1.4,0.3-4.3,1.5-7.1C42.5,2,42.6,2,42.7,2H51.5 M51.5,0h-8.8
			c-1,0-1.8,0.6-2.1,1.5c-1.3,3.2-1.5,6.2-1.6,7.7c-0.1,0.6-0.6,1.1-1.1,1.1h-6.2c-0.4,0-0.8,0.1-1.1,0.4c-0.5,0.4-0.7,1-0.6,1.7
			c0.1,0.8,0.9,1.4,1.8,1.4h12.9c0.3,0,0.6,0.2,0.8,0.5c0.1,0.3,0.1,0.7-0.1,0.9c-0.9,1.1-1.7,2.6-2.2,4.4c-0.2,0.6,0,1.2,0.4,1.7
			c0.3,0.3,0.8,0.5,1.3,0.5h0.1c0.7,0,1.3-0.4,1.5-1.1c1.7-3.7,6-7.7,7.3-8.8l0.2-0.2V2.3C53.8,1,52.8,0,51.5,0L51.5,0z"/>
	</g>
	<g>
		<path class="st0" d="M7.8,39.1c-0.3,0.7-0.4,1.5,0,2.3l0,0.1l0,0.1c0.5,1,1.5,1.6,2.6,1.6l5,0c-0.8,0.5-1.3,1.4-1.4,2.3l0,0.1l0,0
			c-0.1,1.4-0.3,4.3-1.5,7.1C12.5,53,12.4,53,12.3,53H3.5c-0.2,0-0.3-0.1-0.3-0.3v-8.3c0-0.2,0.1-0.3,0.2-0.4
			C4.5,42.8,6.3,41,7.8,39.1 M10.2,33.2h-0.1c-0.7,0-1.3,0.4-1.5,1.1c-1.3,2.9-5,6.7-6.6,8.3c-0.5,0.5-0.8,1.1-0.8,1.8v8.3
			c0,1.3,1,2.3,2.3,2.3h8.8c1,0,1.8-0.6,2.1-1.5c1.3-3.2,1.5-6.2,1.6-7.7c0.1-0.6,0.6-1.1,1.1-1.1h6.3c0.4,0,0.8-0.1,1.1-0.4
			c0.5-0.4,0.7-1,0.6-1.7c-0.1-0.7-0.9-1.4-1.8-1.4h-13c-0.3,0-0.6-0.2-0.8-0.5c-0.1-0.3-0.1-0.7,0.1-0.9c0.9-1.1,1.7-2.6,2.2-4.4
			c0.2-0.6,0-1.2-0.4-1.7C11.2,33.4,10.7,33.2,10.2,33.2L10.2,33.2z"/>
	</g>
	<path class="st1" d="M35.1,17.8h-3.6v2.9h3.6c0.2,0,0.5,0.2,0.5,0.5v3.6h2.9v-3.6C38.4,19.3,36.9,17.8,35.1,17.8z"/>
	<path class="st0" d="M35.5,33.9c0,0.2-0.2,0.5-0.5,0.5h-3.6v2.9h3.6c1.8,0,3.3-1.5,3.3-3.3v-3.6h-2.9V33.9z"/>
	<path class="st1" d="M20,37.2h3.6v-2.9H20c-0.2,0-0.5-0.2-0.5-0.5v-3.6h-2.9v3.6C16.6,35.8,18.1,37.2,20,37.2z"/>
	<path class="st0" d="M19.5,21.1c0-0.2,0.2-0.5,0.5-0.5h3.6v-2.9H20c-1.8,0-3.3,1.5-3.3,3.3v3.6h2.9V21.1z"/>
</g>
</svg>
