<?xml version="1.0" encoding="utf-8"?>
<!-- Generator: Adobe Illustrator 25.0.0, SVG Export Plug-In . SVG Version: 6.00 Build 0)  -->
<svg version="1.1" id="Warstwa_1" xmlns="http://www.w3.org/2000/svg" xmlns:xlink="http://www.w3.org/1999/xlink" x="0px" y="0px"
	 viewBox="0 0 55 55" style="enable-background:new 0 0 55 55;" xml:space="preserve">
<style type="text/css">
	.st0{fill:#00A0E3;}
	.st1{fill:#F1D04C;}
</style>
<g>
	<path class="st0" d="M54,12.5c0-0.1,0-0.2-0.1-0.3c0,0-0.1-0.1-0.2-0.1l-47-4.5c0,0,0,0,0,0c-0.2,0-0.3,0.1-0.3,0.3L0,42.4
		c0,0.1,0,0.2,0.1,0.3c0,0,0.1,0.1,0.2,0.1l47,4.5c0.1,0,0.3-0.1,0.3-0.2l0-0.1L52,23.7v0L54,12.5z M46.1,45.1L2.2,40.9l5.7-31
		l43.9,4.2L46.1,45.1z"/>
	<path class="st1" d="M55,45.8l-3.1-21.9l-4.3,23.3l6,0.2C54.5,47.4,55.1,46.6,55,45.8z"/>
</g>
</svg>
