<?xml version="1.0" encoding="utf-8"?>
<!-- Generator: Adobe Illustrator 25.0.0, SVG Export Plug-In . SVG Version: 6.00 Build 0)  -->
<svg version="1.1" id="Warstwa_1" xmlns="http://www.w3.org/2000/svg" xmlns:xlink="http://www.w3.org/1999/xlink" x="0px" y="0px"
	 viewBox="0 0 70 70" style="enable-background:new 0 0 70 70;" xml:space="preserve">
<style type="text/css">
	.st0{fill:#00A0E3;}
	.st1{fill:#F1D04C;}
</style>
<g>
	<path class="st0" d="M68.7,17.4c0-0.8-0.4-1.5-0.9-2.1c-0.6-0.6-1.4-0.9-2.3-0.9c-3.1,0.1-5.5,2.7-5.4,5.7l0.2,5.1l-0.9,3.5
		c-1,0-2.1,0.4-2.9,1.2l-5.7,5.7l-2,0.3c-1.3,0.2-2.5,0.8-3.4,1.7l-3.9,3.9c-1.2,1.2-1.8,2.7-1.8,4.3l-0.1,6.5
		c-1.8,0.6-3.2,2.3-3.2,4.3l-0.1,8.5c0,1.2,0.5,2.4,1.3,3.3c0.9,0.9,2,1.4,3.3,1.4L54.9,70c0,0,0,0,0.1,0c1.2,0,2.4-0.5,3.2-1.3
		c0.9-0.9,1.4-2,1.4-3.3l0.1-8.5c0-1.2-0.5-2.4-1.3-3.3c-0.5-0.5-1.1-0.9-1.7-1.1l0-0.2c0.2-1.4,0.9-2.7,1.9-3.8l6.6-6.6
		c1.7-1.7,2.8-3.9,3-6.3l0.7-6.6c0-0.2,0.1-0.5,0.1-0.8l0,0c0,0,0,0,0,0c0,0,0-0.1,0-0.1L68.7,17.4z M57.4,56.9l-0.1,8.5
		c0,0.6-0.3,1.2-0.7,1.6c-0.4,0.4-1,0.7-1.6,0.7l-14.1-0.2c-0.6,0-1.2-0.3-1.6-0.7c-0.4-0.4-0.7-1-0.7-1.6l0.1-8.5
		c0-1.3,1-2.3,2.3-2.3c0,0,0,0,0,0l14.1,0.2c0.6,0,1.2,0.3,1.6,0.7C57.1,55.7,57.4,56.3,57.4,56.9z M63.6,40.3L57,46.9
		c-1.4,1.4-2.3,3.1-2.6,5.1l0,0.2l-12.5-0.1l0.1-6.2c0-1,0.4-2,1.2-2.7l3.9-3.9c0.6-0.6,1.3-1,2.1-1.1l2.3-0.4c0.1,0,0.2,0,0.2-0.1
		c0,0,0,0,0,0c0.1-0.1,0.3-0.1,0.4-0.2c0,0,0,0,0,0l5.9-5.9c0.7-0.7,1.8-0.7,2.4,0c0.7,0.7,0.7,1.8,0,2.4l-6.8,6.8
		c-0.5,0.5-0.5,1.2,0,1.6c0.2,0.2,0.5,0.3,0.8,0.3c0.3,0,0.6-0.1,0.8-0.3l6.8-6.8c1.6-1.6,1.6-4.1,0-5.7c-0.2-0.2-0.4-0.4-0.6-0.5
		l0.9-3.8c0,0,0,0,0,0c0,0,0-0.1,0-0.1c0,0,0-0.1,0-0.1c0,0,0,0,0,0L62.4,20c-0.1-1.8,1.3-3.3,3.1-3.3c0.2,0,0.4,0.1,0.6,0.2
		c0.1,0.1,0.2,0.3,0.2,0.5l0.3,10.6l-0.1,0.7c0,0,0,0.1,0,0.1l-0.7,6.5C65.7,37.3,64.9,39,63.6,40.3z"/>
	<circle class="st1" cx="54.6" cy="58" r="2"/>
	<path class="st0" d="M30.4,52.4l-0.1-6.5c0-1.6-0.7-3.2-1.8-4.3l-3.9-3.9c-0.9-0.9-2.1-1.5-3.4-1.7l-2-0.3l-5.7-5.7
		c-0.8-0.8-1.8-1.2-2.9-1.2l-0.9-3.5l0.2-5.1c0.1-3.1-2.3-5.6-5.4-5.7c-0.9,0-1.7,0.3-2.3,0.9c-0.6,0.6-0.9,1.3-0.9,2.1L1,28.1
		c0,0,0,0.1,0,0.1c0,0,0,0,0,0l0,0c0,0.3,0,0.5,0.1,0.8l0.7,6.6c0.2,2.4,1.3,4.6,3,6.3l6.6,6.6c1,1,1.7,2.3,1.9,3.8l0,0.2
		c-0.6,0.2-1.2,0.6-1.7,1.1c-0.9,0.9-1.3,2-1.3,3.3l0.1,8.5c0,1.2,0.5,2.4,1.4,3.3c0.9,0.9,2,1.3,3.2,1.3c0,0,0,0,0.1,0l14.1-0.2
		c1.2,0,2.4-0.5,3.3-1.4c0.9-0.9,1.3-2,1.3-3.3l-0.1-8.5C33.6,54.7,32.3,53,30.4,52.4z M13,46.9l-6.6-6.6c-1.3-1.3-2.1-3-2.3-4.9
		L3.4,29c0,0,0-0.1,0-0.1l-0.1-0.7l0.3-10.6c0-0.3,0.1-0.4,0.2-0.5c0.2-0.2,0.4-0.2,0.6-0.2c1.8,0.1,3.2,1.5,3.1,3.3l-0.2,5.3
		c0,0,0,0,0,0c0,0,0,0.1,0,0.1c0,0,0,0.1,0,0.1c0,0,0,0,0,0l0.9,3.8c-0.2,0.1-0.4,0.3-0.6,0.5c-1.6,1.6-1.6,4.1,0,5.7l6.8,6.8
		c0.2,0.2,0.5,0.3,0.8,0.3c0.3,0,0.6-0.1,0.8-0.3c0.5-0.5,0.5-1.2,0-1.6L9.4,34c-0.7-0.7-0.7-1.8,0-2.4c0.7-0.7,1.8-0.7,2.4,0
		l5.9,5.9c0,0,0,0,0,0c0.1,0.1,0.2,0.2,0.4,0.2c0,0,0,0,0,0c0.1,0,0.2,0.1,0.2,0.1l2.3,0.4c0.8,0.1,1.6,0.5,2.1,1.1l3.9,3.9
		c0.7,0.7,1.1,1.7,1.2,2.7l0.1,6.2l-12.5,0.1l0-0.2C15.3,50.1,14.4,48.3,13,46.9z M30.7,66.8c-0.4,0.4-1,0.7-1.6,0.7L15,67.7
		c-0.6,0-1.2-0.2-1.6-0.7c-0.4-0.4-0.7-1-0.7-1.6l-0.1-8.5c0-0.6,0.2-1.2,0.7-1.6c0.4-0.4,1-0.7,1.6-0.7L29,54.5c0,0,0,0,0,0
		c1.3,0,2.3,1,2.3,2.3l0.1,8.5C31.4,65.8,31.1,66.4,30.7,66.8z"/>
	<circle class="st1" cx="15.4" cy="58" r="2"/>
	<path class="st1" d="M19.3,22.1h2.2c0.3,1,0.7,1.9,1.1,2.7l-1.6,1.6c-1,1-1,2.5,0,3.5l2.2,2.2c0.5,0.5,1.1,0.7,1.7,0.7
		c0.6,0,1.3-0.2,1.7-0.7l1.6-1.6c0.9,0.5,1.8,0.8,2.7,1.1v2.2c0,1.4,1.1,2.5,2.5,2.5h3.1c1.4,0,2.5-1.1,2.5-2.5v-2.2
		c1-0.3,1.9-0.7,2.7-1.1l1.6,1.6c0.5,0.5,1.1,0.7,1.7,0.7s1.3-0.2,1.7-0.7l2.2-2.2c1-1,1-2.5,0-3.5l-1.6-1.6
		c0.5-0.9,0.8-1.8,1.1-2.7h2.2c1.4,0,2.5-1.1,2.5-2.5v-3.1c0-1.4-1.1-2.5-2.5-2.5h-2.2c-0.3-1-0.7-1.9-1.1-2.7l1.6-1.6
		c1-1,1-2.5,0-3.5l-2.2-2.2c-0.9-0.9-2.5-0.9-3.5,0l-1.6,1.6c-0.9-0.5-1.8-0.8-2.7-1.1V2.5C39,1.1,37.9,0,36.5,0h-3.1
		C32.1,0,31,1.1,31,2.5v2.2c-1,0.3-1.9,0.7-2.7,1.1l-1.6-1.6c-0.9-0.9-2.5-0.9-3.5,0l-2.2,2.2c-1,1-1,2.5,0,3.5l1.6,1.6
		c-0.5,0.9-0.8,1.8-1.1,2.7h-2.2c-1.4,0-2.5,1.1-2.5,2.5v3.1C16.8,21,17.9,22.1,19.3,22.1z M19.2,16.6c0-0.1,0.1-0.1,0.1-0.1h3.1
		c0,0,0,0,0,0c0,0,0,0,0,0c0.1,0,0.2,0,0.3-0.1c0,0,0,0,0.1,0c0.1,0,0.2-0.1,0.3-0.2c0,0,0,0,0,0c0.1-0.1,0.2-0.2,0.2-0.3
		c0,0,0,0,0,0c0.1-0.1,0.1-0.2,0.1-0.3c0,0,0,0,0,0c0.3-1.3,0.8-2.6,1.5-3.7c0-0.1,0.1-0.1,0.1-0.2c0,0,0,0,0,0
		c0.1-0.1,0.1-0.3,0.1-0.4c0,0,0,0,0,0c0-0.1,0-0.3-0.1-0.4c0,0,0,0,0,0c-0.1-0.1-0.1-0.3-0.2-0.4c0,0,0,0,0,0l0,0c0,0,0,0,0,0
		l-2.2-2.2c0,0,0-0.1,0-0.2l2.2-2.2c0,0,0.1,0,0.2,0l2.2,2.2c0,0,0,0,0,0c0.1,0.1,0.2,0.2,0.3,0.2c0,0,0.1,0,0.1,0
		c0.1,0,0.3,0.1,0.4,0.1c0,0,0,0,0,0h0c0.1,0,0.3,0,0.4-0.1c0,0,0.1,0,0.1,0c0,0,0.1,0,0.1-0.1c1.1-0.7,2.4-1.2,3.7-1.5
		c0,0,0.1,0,0.1,0c0,0,0.1,0,0.1,0c0,0,0.1,0,0.1-0.1c0,0,0.1,0,0.1-0.1c0,0,0.1,0,0.1-0.1c0,0,0.1,0,0.1-0.1c0,0,0-0.1,0.1-0.1
		c0,0,0-0.1,0.1-0.1c0,0,0-0.1,0.1-0.1c0,0,0-0.1,0.1-0.1c0,0,0-0.1,0-0.1c0,0,0-0.1,0-0.1c0,0,0-0.1,0-0.2c0,0,0,0,0-0.1v0
		c0,0,0,0,0,0V2.5c0-0.1,0.1-0.1,0.1-0.1h3.1c0.1,0,0.1,0.1,0.1,0.1v3.1c0,0,0,0,0,0v0c0,0,0,0,0,0.1c0,0.1,0,0.1,0,0.2
		c0,0,0,0.1,0,0.1c0,0,0,0.1,0,0.1c0,0,0,0.1,0.1,0.1c0,0,0,0.1,0.1,0.1c0,0,0,0.1,0.1,0.1c0,0,0,0.1,0.1,0.1c0,0,0.1,0,0.1,0.1
		c0,0,0.1,0.1,0.1,0.1c0,0,0.1,0,0.1,0.1c0,0,0.1,0,0.1,0.1c0,0,0.1,0,0.1,0c0,0,0.1,0,0.1,0c1.3,0.3,2.6,0.8,3.7,1.5
		c0,0,0.1,0,0.1,0.1c0,0,0.1,0,0.1,0c0.1,0,0.3,0.1,0.4,0.1h0c0,0,0,0,0,0c0.1,0,0.3,0,0.4-0.1c0,0,0.1,0,0.1,0
		c0.1-0.1,0.2-0.1,0.3-0.2c0,0,0,0,0,0l2.2-2.2c0,0,0.1,0,0.2,0l2.2,2.2c0,0,0,0.1,0,0.2l-2.2,2.2c0,0,0,0,0,0l0,0c0,0,0,0,0,0
		c-0.1,0.1-0.2,0.2-0.2,0.4c0,0,0,0,0,0c-0.1,0.1-0.1,0.3-0.1,0.4c0,0,0,0,0,0c0,0.1,0,0.3,0.1,0.4c0,0,0,0,0,0
		c0,0.1,0.1,0.1,0.1,0.2c0.7,1.1,1.2,2.4,1.5,3.7c0,0,0,0,0,0c0,0.1,0.1,0.2,0.1,0.3c0,0,0,0,0,0c0.1,0.1,0.1,0.2,0.2,0.3
		c0,0,0,0,0,0c0.1,0.1,0.2,0.1,0.3,0.2c0,0,0,0,0.1,0c0.1,0,0.2,0.1,0.3,0.1c0,0,0,0,0,0c0,0,0,0,0,0h3.1c0.1,0,0.1,0.1,0.1,0.1v3.1
		c0,0.1-0.1,0.1-0.1,0.1h-3.1c0,0,0,0,0,0h0c0,0,0,0-0.1,0c-0.1,0-0.1,0-0.1,0c0,0-0.1,0-0.1,0c0,0-0.1,0-0.1,0c0,0-0.1,0-0.1,0.1
		c0,0-0.1,0-0.1,0c0,0-0.1,0.1-0.1,0.1c0,0,0,0-0.1,0.1c0,0-0.1,0.1-0.1,0.1c0,0,0,0-0.1,0.1c0,0,0,0.1-0.1,0.1c0,0,0,0,0,0.1
		c0,0,0,0.1-0.1,0.2c0,0,0,0,0,0.1c-0.3,1.3-0.8,2.6-1.5,3.7c0,0.1-0.1,0.1-0.1,0.2c0,0,0,0,0,0c-0.1,0.1-0.1,0.3-0.1,0.4
		c0,0,0,0,0,0c0,0.1,0,0.3,0.1,0.4c0,0,0,0,0,0c0.1,0.1,0.1,0.3,0.2,0.4c0,0,0,0,0,0l0,0c0,0,0,0,0,0l2.2,2.2c0,0,0,0.1,0,0.2
		l-2.2,2.2c0,0-0.1,0-0.2,0l-2.2-2.2c0,0,0,0,0,0l0,0c0,0,0,0,0,0c-0.1-0.1-0.2-0.2-0.4-0.2c0,0,0,0,0,0c-0.1-0.1-0.3-0.1-0.4-0.1
		c0,0,0,0,0,0c-0.1,0-0.3,0-0.4,0.1c0,0,0,0,0,0c-0.1,0-0.1,0.1-0.2,0.1c-1.1,0.7-2.4,1.2-3.7,1.5c0,0,0,0-0.1,0
		c-0.1,0-0.1,0-0.2,0.1c0,0-0.1,0-0.1,0c0,0-0.1,0-0.1,0.1c0,0-0.1,0-0.1,0.1c0,0-0.1,0-0.1,0.1c0,0,0,0.1-0.1,0.1
		c0,0-0.1,0.1-0.1,0.1c0,0,0,0.1,0,0.1c0,0,0,0.1-0.1,0.1c0,0,0,0.1,0,0.1c0,0,0,0.1,0,0.1c0,0,0,0.1,0,0.1c0,0,0,0.1,0,0.1v3.1
		c0,0.1-0.1,0.1-0.1,0.1h-3.1c-0.1,0-0.1-0.1-0.1-0.1v-3.1c0,0,0-0.1,0-0.1c0,0,0-0.1,0-0.1c0,0,0-0.1,0-0.1c0,0,0-0.1,0-0.1
		c0,0,0-0.1-0.1-0.1c0,0,0-0.1,0-0.1c0,0,0-0.1-0.1-0.1c0,0,0-0.1-0.1-0.1c0,0-0.1-0.1-0.1-0.1c0,0-0.1,0-0.1-0.1c0,0-0.1,0-0.1-0.1
		c0,0-0.1,0-0.1,0c0,0-0.1,0-0.2-0.1c0,0,0,0-0.1,0c-1.3-0.3-2.6-0.8-3.7-1.5c-0.1,0-0.1-0.1-0.2-0.1c0,0,0,0,0,0
		c-0.1-0.1-0.3-0.1-0.4-0.1c0,0,0,0,0,0c-0.1,0-0.3,0-0.4,0.1c0,0,0,0,0,0c-0.1,0.1-0.3,0.1-0.4,0.2c0,0,0,0,0,0l0,0c0,0,0,0,0,0
		l-2.2,2.2c0,0-0.1,0-0.2,0l-2.2-2.2c0,0,0-0.1,0-0.2l2.2-2.2c0,0,0,0,0,0l0,0c0,0,0,0,0,0c0.1-0.1,0.2-0.2,0.2-0.4c0,0,0,0,0,0
		c0.1-0.1,0.1-0.3,0.1-0.4c0,0,0,0,0,0c0-0.1,0-0.3-0.1-0.4c0,0,0,0,0,0c0-0.1-0.1-0.1-0.1-0.2c-0.7-1.1-1.2-2.4-1.5-3.7
		c0,0,0,0,0-0.1c0-0.1,0-0.1,0-0.2c0,0,0-0.1-0.1-0.1c0,0,0-0.1-0.1-0.1c0,0-0.1-0.1-0.1-0.1c0,0,0-0.1-0.1-0.1c0,0-0.1,0-0.1-0.1
		c0,0-0.1,0-0.1-0.1c0,0-0.1,0-0.1-0.1c0,0-0.1,0-0.1,0c0,0-0.1,0-0.1,0c0,0-0.1,0-0.1,0c-0.1,0-0.1,0-0.2,0c0,0,0,0-0.1,0h0
		c0,0,0,0,0,0h-3.1c-0.1,0-0.1-0.1-0.1-0.1L19.2,16.6L19.2,16.6z"/>
	<path class="st1" d="M35,24.6c3.6,0,6.5-2.9,6.5-6.5s-2.9-6.5-6.5-6.5s-6.5,2.9-6.5,6.5S31.4,24.6,35,24.6z M35,14
		c2.3,0,4.1,1.9,4.1,4.1s-1.9,4.1-4.1,4.1s-4.1-1.9-4.1-4.1S32.7,14,35,14z"/>
</g>
</svg>
