<?xml version="1.0" encoding="utf-8"?>
<!-- Generator: Adobe Illustrator 25.2.1, SVG Export Plug-In . SVG Version: 6.00 Build 0)  -->
<svg version="1.1" id="Warstwa_1" xmlns="http://www.w3.org/2000/svg" xmlns:xlink="http://www.w3.org/1999/xlink" x="0px" y="0px"
	 viewBox="0 0 70 70" style="enable-background:new 0 0 70 70;" xml:space="preserve">
<style type="text/css">
	.st0{fill:#00A0E3;}
	.st1{fill:#F1D04C;}
</style>
<g>
	<path class="st0" d="M35,12.9c-12.2,0-22.1,9.9-22.1,22.1S22.8,57.1,35,57.1c12.2,0,22.1-9.9,22.1-22.1
		C57.1,22.8,47.2,12.9,35,12.9z M35,51.1V18.9c8.9,0,16.1,7.2,16.1,16.1C51.1,43.9,43.9,51.1,35,51.1z"/>
	<path class="st1" d="M35,9.8c1.3,0,2.3-1,2.3-2.3V2.3C37.3,1,36.3,0,35,0c-1.3,0-2.3,1-2.3,2.3v5.1C32.7,8.7,33.7,9.8,35,9.8z"/>
	<path class="st1" d="M19.2,12.3c0.4,0.7,1.2,1.2,2,1.2c0.4,0,0.8-0.1,1.2-0.3c1.1-0.6,1.5-2.1,0.8-3.2l-2.6-4.4
		c-0.6-1.1-2.1-1.5-3.2-0.8c-1.1,0.6-1.5,2.1-0.8,3.2L19.2,12.3z"/>
	<path class="st1" d="M5.5,20.7l4.4,2.6c0.4,0.2,0.8,0.3,1.2,0.3c0.8,0,1.6-0.4,2-1.2c0.6-1.1,0.3-2.5-0.8-3.2l-4.4-2.6
		c-1.1-0.6-2.5-0.3-3.2,0.8C4.1,18.6,4.4,20,5.5,20.7z"/>
	<path class="st1" d="M9.8,35c0-1.3-1-2.3-2.3-2.3H2.3C1,32.7,0,33.7,0,35c0,1.3,1,2.3,2.3,2.3h5.1C8.7,37.3,9.8,36.3,9.8,35z"/>
	<path class="st1" d="M10,46.8l-4.4,2.6c-1.1,0.6-1.5,2.1-0.8,3.2c0.4,0.7,1.2,1.2,2,1.2c0.4,0,0.8-0.1,1.2-0.3l4.4-2.6
		c1.1-0.6,1.5-2.1,0.8-3.2C12.5,46.5,11.1,46.1,10,46.8z"/>
	<path class="st1" d="M22.4,56.9c-1.1-0.6-2.5-0.3-3.2,0.8l-2.6,4.4c-0.6,1.1-0.3,2.5,0.8,3.2c0.4,0.2,0.8,0.3,1.2,0.3
		c0.8,0,1.6-0.4,2-1.2l2.6-4.4C23.9,58.9,23.5,57.5,22.4,56.9z"/>
	<path class="st1" d="M35,60.2L35,60.2c-1.3,0-2.3,1-2.3,2.3l0,5.1c0,1.3,1,2.3,2.3,2.3h0c1.3,0,2.3-1,2.3-2.3l0-5.1
		C37.3,61.3,36.3,60.2,35,60.2z"/>
	<path class="st1" d="M50.8,57.7c-0.6-1.1-2.1-1.5-3.2-0.8c-1.1,0.6-1.5,2.1-0.8,3.2l2.6,4.4c0.4,0.7,1.2,1.2,2,1.2
		c0.4,0,0.8-0.1,1.2-0.3c1.1-0.6,1.5-2.1,0.8-3.2L50.8,57.7z"/>
	<path class="st1" d="M64.5,49.3L60,46.8c-1.1-0.6-2.5-0.3-3.2,0.8c-0.6,1.1-0.3,2.5,0.8,3.2l4.4,2.6c0.4,0.2,0.8,0.3,1.2,0.3
		c0.8,0,1.6-0.4,2-1.2C65.9,51.4,65.6,50,64.5,49.3z"/>
	<path class="st1" d="M67.7,32.7h-5.1h0c-1.3,0-2.3,1-2.3,2.3s1,2.3,2.3,2.3h5.1h0c1.3,0,2.3-1,2.3-2.3C70,33.7,69,32.7,67.7,32.7z"
		/>
	<path class="st1" d="M58.9,23.5c0.4,0,0.8-0.1,1.2-0.3l4.4-2.6c1.1-0.6,1.5-2.1,0.8-3.2c-0.6-1.1-2-1.5-3.2-0.8l-4.4,2.6
		c-1.1,0.6-1.5,2.1-0.8,3.2C57.3,23.1,58.1,23.5,58.9,23.5z"/>
	<path class="st1" d="M47.6,13.1c0.4,0.2,0.8,0.3,1.2,0.3c0.8,0,1.6-0.4,2-1.2l2.6-4.4c0.6-1.1,0.3-2.5-0.8-3.2
		C51.4,4,50,4.4,49.3,5.5L46.8,10C46.1,11.1,46.5,12.5,47.6,13.1z"/>
</g>
</svg>
