<?xml version="1.0" encoding="utf-8"?>
<!-- Generator: Adobe Illustrator 25.0.0, SVG Export Plug-In . SVG Version: 6.00 Build 0)  -->
<svg version="1.1" id="Warstwa_1" xmlns="http://www.w3.org/2000/svg" xmlns:xlink="http://www.w3.org/1999/xlink" x="0px" y="0px"
	 viewBox="0 0 70 70" style="enable-background:new 0 0 70 70;" xml:space="preserve">
<style type="text/css">
	.st0{fill:#FFFFFF;}
</style>
<g>
	<path class="st0" d="M11.7,64.5V70H14v-5.8c0-0.2-0.1-0.4-0.1-0.6L3.4,44.7c-0.7-1.2-1-2.6-1-4V18.7c0-1.3,1-2.3,2.3-2.3
		s2.3,1,2.3,2.3v16.7c-1.5,1.7-1.4,4.2,0.1,5.9l9.6,10.5l1.7-1.6L8.8,39.7c-0.8-0.8-0.7-2.1,0.1-2.9c0.4-0.4,1-0.6,1.6-0.6
		c0.6,0,1.1,0.3,1.5,0.7l8.2,9.1c0.1,0.1,0.2,0.2,0.3,0.3c4.6,2.7,7.5,7.6,7.5,12.9V70h2.3V58.3h0c-0.3-5.8-3.5-11.1-8.6-14.1
		l-8.1-9c-0.8-0.9-2-1.4-3.2-1.5c-0.4,0-0.8,0-1.2,0.1V18.7c0-2.6-2.1-4.7-4.7-4.7S0,16.1,0,18.7v22.1c0,1.8,0.5,3.5,1.3,5.1
		L11.7,64.5z"/>
	<path class="st0" d="M65.3,14c-2.6,0-4.7,2.1-4.7,4.7V34c-1.6-0.4-3.3,0.1-4.4,1.3l-8.1,9c-5.1,2.9-8.3,8.2-8.6,14.1h0V70H42V59.2
		c0-5.4,2.9-10.3,7.6-13c0.1-0.1,0.2-0.1,0.3-0.2l8.2-9.1c0.4-0.4,0.9-0.7,1.5-0.7c0.6,0,1.1,0.2,1.6,0.6c0.8,0.8,0.8,2.1,0.1,2.9
		l-9.6,10.5l1.7,1.6l9.6-10.5c1.5-1.7,1.5-4.2,0.1-5.9V18.7c0-1.3,1-2.3,2.3-2.3c1.3,0,2.3,1,2.3,2.3v22c0,1.5-0.4,2.9-1.1,4.2
		L56.1,63.6C56,63.8,56,64,56,64.2V70h2.3v-5.5l10.2-18.5c0.9-1.6,1.4-3.5,1.5-5.3v-22C70,16.1,67.9,14,65.3,14z"/>
	<path class="st0" d="M54.8,32.4V11.7c0-0.1,0-0.2,0-0.3c0,0,0-0.1,0-0.1c0-0.1,0-0.1-0.1-0.2c0,0,0-0.1-0.1-0.1
		c0-0.1-0.1-0.1-0.1-0.1c0,0-0.1,0-0.1-0.1c0,0-0.1-0.1-0.1-0.1h0l0,0L35.6,0.1c-0.4-0.2-0.8-0.2-1.1,0L15.8,10.6l0,0h0
		c-0.1,0-0.1,0.1-0.1,0.1c0,0-0.1,0-0.1,0.1c0,0-0.1,0.1-0.1,0.1c0,0,0,0.1-0.1,0.1c0,0.1-0.1,0.1-0.1,0.2c0,0,0,0.1,0,0.1
		c0,0.1,0,0.2-0.1,0.3v20.7c0,0.4,0.2,0.8,0.6,1l18.7,10.8l0,0c0.1,0,0.1,0.1,0.2,0.1c0,0,0,0,0.1,0c0.2,0.1,0.4,0.1,0.6,0
		c0,0,0,0,0.1,0c0.1,0,0.2-0.1,0.2-0.1l0,0l18.7-10.8C54.6,33.2,54.8,32.8,54.8,32.4z M35,2.5l6.4,3.6l-16.3,9.2l-6.4-3.6L35,2.5z
		 M33.8,41.1l-16.3-9.5v-18l16.3,9.2V41.1z M35,20.8l-7.5-4.2l16.3-9.2l7.5,4.2L35,20.8z M52.5,31.7l-16.3,9.4V22.8l16.3-9.2V31.7z"
		/>
	<rect x="47.8" y="29.2" class="st0" width="2.3" height="2.3"/>
	<rect x="43.2" y="31.5" class="st0" width="2.3" height="2.3"/>
	<rect x="38.5" y="33.8" class="st0" width="2.3" height="2.3"/>
</g>
</svg>
