<?xml version="1.0" encoding="utf-8"?>
<!-- Generator: Adobe Illustrator 25.0.0, SVG Export Plug-In . SVG Version: 6.00 Build 0)  -->
<svg version="1.1" id="Warstwa_1" xmlns="http://www.w3.org/2000/svg" xmlns:xlink="http://www.w3.org/1999/xlink" x="0px" y="0px"
	 viewBox="0 0 70 70" style="enable-background:new 0 0 70 70;" xml:space="preserve">
<style type="text/css">
	.st0{fill:#FFFFFF;}
</style>
<g>
	<path class="st0" d="M29.5,54.5l-9.2,12.3l-0.1-7.1c0-0.3-0.2-0.6-0.4-0.8c-0.3-0.2-0.6-0.3-0.9-0.2l-8,1.8l7.8-8.8
		c-0.3-0.8-0.5-1.6-0.7-2.5L8,60.3c-0.4,0.5-0.5,1.2-0.2,1.8c0.3,0.6,1,0.9,1.6,0.8c0,0,0.1,0,0.1,0l8.4-1.8l0.1,7.4
		c0,0.7,0.5,1.3,1.1,1.5c0.7,0.2,1.4,0,1.8-0.6L31,56C30.5,55.6,29.9,55.1,29.5,54.5z"/>
	<path class="st0" d="M56,56.1l-1.8,0h-1.1l3.9,4.4l-8-1.8c-0.3-0.1-0.7,0-0.9,0.2c-0.3,0.2-0.4,0.5-0.4,0.8l-0.1,7.1l-9-12
		c-0.5,0.6-1,1.1-1.6,1.5l9.9,13.1c0.3,0.4,0.8,0.6,1.3,0.6c0.2,0,0.3,0,0.5-0.1c0.7-0.2,1.1-0.8,1.1-1.5l0.1-7.4l8.4,1.8
		c0,0,0.1,0,0.1,0c0.7,0.1,1.3-0.2,1.6-0.8c0.3-0.6,0.3-1.3-0.2-1.8L56,56.1z"/>
	<path class="st0" d="M33.9,11.5c-8.8,0-15.9,7.1-15.9,15.9s7.1,15.9,15.9,15.9c8.8,0,15.9-7.1,15.9-15.9
		C49.8,18.6,42.7,11.5,33.9,11.5z M33.9,41c-7.6,0-13.7-6.1-13.7-13.7s6.1-13.7,13.7-13.7c7.6,0,13.7,6.1,13.7,13.7c0,0,0,0,0,0
		C47.6,34.9,41.5,41,33.9,41z"/>
	<path class="st0" d="M41.2,24.7l-4.3-0.6l-1.9-3.8c-0.3-0.5-0.9-0.8-1.5-0.5c-0.2,0.1-0.4,0.3-0.5,0.5L31,24.1l-4.3,0.6
		c-0.6,0.1-1,0.6-0.9,1.2c0,0.2,0.2,0.5,0.3,0.6l3.1,3l-0.7,4.2c-0.1,0.6,0.3,1.2,0.9,1.3c0.2,0,0.5,0,0.7-0.1l3.9-2l3.9,2
		c0.5,0.3,1.2,0.1,1.5-0.5c0.1-0.2,0.1-0.5,0.1-0.7l-0.7-4.2l3.1-3c0.4-0.4,0.5-1.1,0-1.5C41.6,24.9,41.4,24.7,41.2,24.7z
		 M36.7,28.4c-0.3,0.3-0.4,0.6-0.3,1l0.5,2.6l-2.4-1.2c-0.3-0.2-0.7-0.2-1,0L31,31.9l0.5-2.6c0.1-0.4-0.1-0.7-0.3-1l-1.9-1.8
		l2.7-0.4c0.4,0,0.7-0.3,0.8-0.6l1.2-2.4l1.2,2.4c0.2,0.3,0.5,0.5,0.8,0.6l2.7,0.4L36.7,28.4z"/>
	<path class="st0" d="M39.5,50.2c0.4-0.1,1.3,0.3,2.1,0.7v-2.4C40.8,48,39.9,47.9,39,48c-1.2,0.3-2.1,1.5-3,2.6
		c-0.5,0.7-1.4,1.8-1.8,1.8h0c-0.4,0-1.3-1.1-1.8-1.8c-0.9-1.1-1.8-2.3-3.1-2.6c-0.2,0-0.4-0.1-0.6-0.1c-1.1,0-2.2,0.6-3.3,1.2
		c-0.8,0.4-2.1,1.1-2.5,0.9c-0.4-0.2-0.6-1.5-0.8-2.3c-0.3-1.4-0.6-2.9-1.6-3.7c-1-0.8-2.6-0.7-4-0.7c-0.8,0-2.3,0.1-2.5-0.2
		c-0.3-0.3,0.1-1.7,0.3-2.5c0.4-1.4,0.7-2.8,0.2-3.9c-0.6-1.1-2-1.7-3.3-2.3c-0.7-0.3-2.1-0.9-2.2-1.3c-0.1-0.4,0.9-1.5,1.4-2.1
		c0.9-1.1,1.9-2.2,1.9-3.5c0-1.3-1-2.4-2-3.5c-0.5-0.6-1.5-1.7-1.4-2.1c0.1-0.4,1.4-1,2.2-1.3c1.3-0.6,2.7-1.2,3.3-2.4
		c0.5-1.1,0.1-2.5-0.2-3.9c-0.2-0.8-0.6-2.2-0.3-2.5c0.3-0.4,1.8-0.3,2.6-0.3c1.4,0,2.9,0.1,3.9-0.7c1-0.8,1.3-2.3,1.6-3.7
		c0.2-0.8,0.4-2.2,0.8-2.4c0.4-0.2,1.7,0.5,2.5,0.8c1.3,0.6,2.6,1.3,3.9,1c1.2-0.3,2.1-1.5,3-2.6c0.5-0.7,1.4-1.8,1.8-1.8h0
		c0.4,0,1.3,1.1,1.8,1.8c0.9,1.1,1.8,2.3,3.1,2.6c1.2,0.3,2.6-0.4,3.8-1.1c0.8-0.4,2.1-1.1,2.5-0.9c0.4,0.2,0.6,1.5,0.8,2.3
		c0.3,1.4,0.6,2.9,1.6,3.7c1,0.8,2.6,0.7,4,0.7c0.8,0,2.3-0.1,2.5,0.2c0.3,0.3-0.1,1.7-0.3,2.5c-0.4,1.4-0.7,2.8-0.2,3.9
		c0.6,1.1,2,1.7,3.3,2.3c0.7,0.3,2.1,0.9,2.2,1.3c0.1,0.4-0.9,1.5-1.4,2.1c-0.9,1.1-1.9,2.2-1.9,3.5c0,1.3,1,2.4,2,3.5
		c0.5,0.6,1.5,1.7,1.4,2.1c-0.1,0.4-1.4,1-2.2,1.3c-0.2,0.1-0.3,0.2-0.5,0.2c0.1,0.1,0.3,0.1,0.4,0.2c0.7,0.3,1.3,0.7,1.8,1.2
		c1.2-0.6,2.3-1.3,2.6-2.5c0.3-1.5-0.8-2.8-1.9-4c-0.6-0.7-1.4-1.6-1.4-2c0-0.5,0.8-1.4,1.4-2.1c1.1-1.3,2.2-2.6,1.8-4
		c-0.4-1.5-1.9-2.1-3.5-2.8c-0.8-0.4-2-0.8-2.2-1.3c-0.2-0.4,0.1-1.6,0.3-2.4c0.4-1.5,0.8-3.3-0.1-4.5c-0.9-1.1-2.7-1.1-4.3-1
		c-0.9,0-2.2,0.1-2.6-0.2c-0.4-0.3-0.6-1.5-0.8-2.4c-0.3-1.6-0.7-3.2-2-3.9c-1.4-0.6-2.9,0.2-4.4,0.9c-0.8,0.4-1.9,1-2.4,0.9
		c-0.5-0.1-1.2-1.1-1.8-1.8c-1-1.3-2.1-2.6-3.6-2.6c-1.5,0-2.5,1.4-3.5,2.7c-0.5,0.7-1.3,1.7-1.7,1.8c-0.5,0.1-1.6-0.4-2.4-0.9
		c-1.5-0.7-3-1.5-4.4-0.9c-1.4,0.7-1.7,2.3-2,3.9c-0.2,0.9-0.4,2.1-0.8,2.4c-0.4,0.3-1.6,0.3-2.5,0.2c-1.7,0-3.4-0.1-4.4,1.1
		c-1,1.2-0.5,3-0.1,4.5c0.2,0.8,0.6,2,0.4,2.4c-0.2,0.4-1.4,0.9-2.2,1.3c-1.5,0.7-3.1,1.4-3.4,2.8c-0.3,1.5,0.8,2.8,1.9,4
		c0.6,0.7,1.4,1.6,1.4,2c0,0.5-0.8,1.4-1.4,2.1c-1.1,1.3-2.2,2.6-1.8,4c0.4,1.5,1.9,2.1,3.5,2.8c0.8,0.4,2,0.8,2.2,1.3
		c0.2,0.4-0.1,1.6-0.3,2.4c-0.4,1.5-0.8,3.3,0.1,4.5c0.9,1.1,2.7,1.1,4.3,1c0.9,0,2.2-0.1,2.6,0.2c0.4,0.3,0.6,1.5,0.8,2.4
		c0.3,1.6,0.7,3.2,2,3.9c1.4,0.6,2.9-0.2,4.4-0.9c0.8-0.4,1.9-1,2.4-0.9c0.5,0.1,1.2,1.1,1.8,1.8c1,1.3,2,2.6,3.5,2.6h0
		c1.5,0,2.5-1.4,3.5-2.7C38.3,51.3,39,50.3,39.5,50.2z"/>
	<path class="st0" d="M63,46.3c0.9-1.5,0.4-3.3-1.1-4.2c-0.5-0.3-1.1-0.4-1.7-0.4l-1.9,0c0.1-0.3,0.1-0.6,0.1-0.9
		c-0.1-0.9-0.4-3.4-2.4-4.3c-0.4-0.2-0.9-0.3-1.4-0.3c-0.1,0-0.1,0-0.2,0c-0.7,0-1.3,0.3-1.9,0.7c-0.9,0.8-1.4,2-1.2,3.2
		c0,0.1,0,0.2,0,0.2v0.3c-0.3,0.6-1.1,1.9-1.4,2.3l0,0c-0.2,0.1-0.4,0.1-0.6,0.2c-0.4-0.2-0.8-0.4-1.2-0.4h-2.2
		c-1.2,0-2.2,1-2.2,2.2v6.6c0,1.2,1,2.2,2.2,2.2h2.2c0.5,0,1-0.2,1.4-0.5c0,0,0.1,0,0.1,0c0.2,0,0.4,0,0.7,0c0.1,0,0.2,0,0.3,0
		c0.3,0.2,0.6,0.4,1,0.5c0.2,0,0.4,0.1,0.6,0.1l6.6,0c1.8,0,3.2-1.4,3.2-3.1c0,0,0,0,0-0.1c0.4-0.5,0.6-1.2,0.6-1.9
		c0-0.1,0-0.2,0-0.3c0.3-0.5,0.5-1.1,0.5-1.7C63,46.5,63,46.4,63,46.3z M48.1,51.4h-2.2v-6.6h2.2V51.4z M60.2,45.6
		c0,0,0.6,0.5,0.6,0.9c0,0.5-0.5,1-1,1c0.3,0.2,0.5,0.6,0.5,1c0,0.5-0.5,1-1,1c0.2,0.3,0.4,0.6,0.4,1c0,0.5-0.5,1-1,1c0,0,0,0,0,0
		l-6.6,0c-0.4-0.1-0.6-0.4-0.9-0.5c-0.1,0-0.3,0-0.4,0c-0.1,0-0.3,0-0.5,0V45c0.4-0.1,0.7-0.2,1-0.3c0.1-0.3,2.2-3.2,2.2-3.8v-0.6
		c0-0.6-0.2-1.3,0.4-1.7c0.2-0.2,0.4-0.2,0.6-0.3c0,0,0,0,0,0c0.2,0,0.3,0,0.5,0.1c0.9,0.4,1.1,1.8,1.1,2.5c-0.1,1-0.4,1.9-0.7,2.9
		l4.7,0c0.5-0.1,1,0.3,1,0.8c0,0,0,0,0,0.1C61.2,45.2,60.8,45.7,60.2,45.6L60.2,45.6z"/>
</g>
</svg>
