<?xml version="1.0" encoding="utf-8"?>
<!-- Generator: Adobe Illustrator 25.0.0, SVG Export Plug-In . SVG Version: 6.00 Build 0)  -->
<svg version="1.1" id="Warstwa_1" xmlns="http://www.w3.org/2000/svg" xmlns:xlink="http://www.w3.org/1999/xlink" x="0px" y="0px"
	 viewBox="0 0 55 55" style="enable-background:new 0 0 55 55;" xml:space="preserve">
<style type="text/css">
	.st0{fill:#00A0E3;}
	.st1{fill:#F1D04C;}
</style>
<g>
	<path class="st0" d="M28.9,53.2h-1.8c-0.5,0-0.9,0.4-0.9,0.9s0.4,0.9,0.9,0.9h1.8c0.5,0,0.9-0.4,0.9-0.9S29.4,53.2,28.9,53.2z"/>
	<path class="st0" d="M23.5,53.2h-1.8c-0.5,0-0.9,0.4-0.9,0.9s0.4,0.9,0.9,0.9h1.8c0.5,0,0.9-0.4,0.9-0.9S24,53.2,23.5,53.2z"/>
	<path class="st0" d="M28,12.8c0.5,0,0.9-0.4,0.9-0.9c0-0.5-0.4-0.9-0.9-0.9h-1.8c-0.5,0-0.9,0.4-0.9,0.9c0,0.5,0.4,0.9,0.9,0.9H28z
		"/>
	<path class="st0" d="M22.6,12.8c0.5,0,0.9-0.4,0.9-0.9c0-0.5-0.4-0.9-0.9-0.9h-1.8c-0.5,0-0.9,0.4-0.9,0.9c0,0.5,0.4,0.9,0.9,0.9
		H22.6z"/>
	<path class="st0" d="M33.5,12.8c0.5,0,0.9-0.4,0.9-0.9c0-0.5-0.4-0.9-0.9-0.9h-1.8c-0.5,0-0.9,0.4-0.9,0.9c0,0.5,0.4,0.9,0.9,0.9
		H33.5z"/>
	<path class="st0" d="M39.7,53.2h-1.8c-0.5,0-0.9,0.4-0.9,0.9s0.4,0.9,0.9,0.9h1.8c0.5,0,0.9-0.4,0.9-0.9S40.3,53.2,39.7,53.2z"/>
	<path class="st0" d="M34.3,53.2h-1.8c-0.5,0-0.9,0.4-0.9,0.9S32,55,32.5,55h1.8c0.5,0,0.9-0.4,0.9-0.9S34.8,53.2,34.3,53.2z"/>
	<path class="st0" d="M38.9,12.8c0.5,0,0.9-0.4,0.9-0.9c0-0.5-0.4-0.9-0.9-0.9h-1.8c-0.5,0-0.9,0.4-0.9,0.9c0,0.5,0.4,0.9,0.9,0.9
		H38.9z"/>
	<path class="st0" d="M11.6,13.2c-0.4,0.7-0.6,1.4-0.6,2.2c0,0.5,0.4,0.9,0.9,0.9h0c0.5,0,0.9-0.4,0.9-0.9c0-0.4,0.1-0.9,0.3-1.3
		c0.3-0.4,0.1-1-0.3-1.3C12.4,12.6,11.9,12.7,11.6,13.2z"/>
	<path class="st0" d="M44.3,12.8c0.5,0,0.9-0.4,0.9-0.9c0-0.5-0.4-0.9-0.9-0.9H44V4.4C44,2,42,0,39.6,0H4.4C2,0,0,2,0,4.4v35.2
		C0,42,2,44,4.4,44h7.5c0.5,0,0.9-0.4,0.9-0.9c0-0.1,0-0.2-0.1-0.3c0-0.1,0.1-0.2,0.1-0.3v-1.8c0-0.5-0.4-0.9-0.9-0.9
		c-0.5,0-0.9,0.4-0.9,0.9v1.5H4.4c-1.4,0-2.6-1.2-2.6-2.6V4.4C1.8,3,3,1.8,4.4,1.8h35.2c1.4,0,2.6,1.2,2.6,2.6v6.7
		c-0.3,0.1-0.6,0.5-0.6,0.9c0,0.5,0.4,0.9,0.9,0.9H44.3z"/>
	<path class="st0" d="M11.9,28.9c-0.5,0-0.9,0.4-0.9,0.9v1.8c0,0.5,0.4,0.9,0.9,0.9c0.5,0,0.9-0.4,0.9-0.9v-1.8
		C12.8,29.3,12.4,28.9,11.9,28.9z"/>
	<path class="st0" d="M12.8,24.4c0-0.5-0.4-0.9-0.9-0.9c-0.5,0-0.9,0.4-0.9,0.9v1.8c0,0.5,0.4,0.9,0.9,0.9c0.5,0,0.9-0.4,0.9-0.9
		V24.4z"/>
	<path class="st0" d="M12.9,51.3c-0.1-0.5-0.6-0.8-1.1-0.7c-0.5,0.1-0.8,0.6-0.7,1.1c0.2,0.7,0.6,1.4,1.1,2c0.2,0.2,0.4,0.3,0.7,0.3
		c0.2,0,0.5-0.1,0.6-0.3c0.4-0.4,0.4-0.9,0-1.3C13.3,52.1,13,51.7,12.9,51.3z"/>
	<path class="st0" d="M18.1,53.2h-1.8c-0.5,0-0.9,0.4-0.9,0.9s0.4,0.9,0.9,0.9h1.8c0.5,0,0.9-0.4,0.9-0.9S18.6,53.2,18.1,53.2z"/>
	<path class="st0" d="M17.2,12.8c0.5,0,0.9-0.4,0.9-0.9c0-0.5-0.4-0.9-0.9-0.9h-1.8c-0.5,0-0.9,0.4-0.9,0.9c0,0.5,0.4,0.9,0.9,0.9
		H17.2z"/>
	<path class="st0" d="M11.9,38c0.5,0,0.9-0.4,0.9-0.9v-1.8c0-0.5-0.4-0.9-0.9-0.9c-0.5,0-0.9,0.4-0.9,0.9v1.8
		C11,37.6,11.4,38,11.9,38z"/>
	<path class="st0" d="M12.8,19c0-0.5-0.4-0.9-0.9-0.9c-0.5,0-0.9,0.4-0.9,0.9v1.8c0,0.5,0.4,0.9,0.9,0.9c0.5,0,0.9-0.4,0.9-0.9V19z"
		/>
	<path class="st0" d="M11.9,48.8c0.5,0,0.9-0.4,0.9-0.9v-1.8c0-0.5-0.4-0.9-0.9-0.9c-0.5,0-0.9,0.4-0.9,0.9v1.8
		C11,48.4,11.4,48.8,11.9,48.8z"/>
	<path class="st0" d="M54,15.4c0.1,0,0.2,0,0.2,0c0.5-0.1,0.8-0.6,0.6-1.1c-0.2-0.7-0.6-1.4-1.1-2c-0.4-0.4-0.9-0.4-1.3,0
		c-0.4,0.4-0.4,0.9,0,1.3c0.3,0.3,0.5,0.7,0.7,1.1C53.2,15.1,53.6,15.4,54,15.4z"/>
	<path class="st0" d="M45.2,53.2h-1.8c-0.5,0-0.9,0.4-0.9,0.9s0.4,0.9,0.9,0.9h1.8c0.5,0,0.9-0.4,0.9-0.9S45.7,53.2,45.2,53.2z"/>
	<path class="st0" d="M49.7,12.8c0.5,0,0.9-0.4,0.9-0.9c0-0.5-0.4-0.9-0.9-0.9h-1.8c-0.5,0-0.9,0.4-0.9,0.9c0,0.5,0.4,0.9,0.9,0.9
		H49.7z"/>
	<path class="st0" d="M50.6,53.2h-1.8c-0.5,0-0.9,0.4-0.9,0.9s0.4,0.9,0.9,0.9h1.8l0-0.9V55c0.5,0,0.9-0.4,0.9-0.9
		C51.5,53.6,51.1,53.2,50.6,53.2z"/>
	<path class="st0" d="M54.1,44.3c-0.5,0-0.9,0.4-0.9,0.9V47c0,0.5,0.4,0.9,0.9,0.9S55,47.5,55,47v-1.8C55,44.7,54.6,44.3,54.1,44.3z
		"/>
	<path class="st0" d="M54.1,49.7C54.1,49.7,54.1,49.7,54.1,49.7c-0.5,0-0.9,0.4-0.9,0.9c0,0.4-0.1,0.9-0.3,1.3
		c-0.3,0.4-0.1,1,0.3,1.3c0.1,0.1,0.3,0.1,0.5,0.1c0.3,0,0.6-0.2,0.8-0.5c0.4-0.7,0.6-1.4,0.6-2.2C55,50.1,54.6,49.7,54.1,49.7z"/>
	<path class="st0" d="M54.1,22.6c-0.5,0-0.9,0.4-0.9,0.9v1.8c0,0.5,0.4,0.9,0.9,0.9s0.9-0.4,0.9-0.9v-1.8C55,23,54.6,22.6,54.1,22.6
		z"/>
	<path class="st0" d="M54.1,28c-0.5,0-0.9,0.4-0.9,0.9v1.8c0,0.5,0.4,0.9,0.9,0.9s0.9-0.4,0.9-0.9v-1.8C55,28.4,54.6,28,54.1,28z"/>
	<path class="st0" d="M54.1,33.4c-0.5,0-0.9,0.4-0.9,0.9v1.8c0,0.5,0.4,0.9,0.9,0.9s0.9-0.4,0.9-0.9v-1.8
		C55,33.8,54.6,33.4,54.1,33.4z"/>
	<path class="st0" d="M54.1,38.9c-0.5,0-0.9,0.4-0.9,0.9v1.8c0,0.5,0.4,0.9,0.9,0.9s0.9-0.4,0.9-0.9v-1.8
		C55,39.3,54.6,38.9,54.1,38.9z"/>
	<path class="st0" d="M54.1,17.2c-0.5,0-0.9,0.4-0.9,0.9v1.8c0,0.5,0.4,0.9,0.9,0.9s0.9-0.4,0.9-0.9v-1.8
		C55,17.6,54.6,17.2,54.1,17.2z"/>
	<circle class="st1" cx="7.3" cy="7.3" r="0.9"/>
	<circle class="st1" cx="4.6" cy="4.6" r="0.9"/>
	<circle class="st1" cx="10.1" cy="4.6" r="0.9"/>
	<circle class="st1" cx="12.8" cy="7.3" r="0.9"/>
	<circle class="st1" cx="18.3" cy="7.3" r="0.9"/>
	<circle class="st1" cx="29.3" cy="7.3" r="0.9"/>
	<circle class="st1" cx="15.6" cy="4.6" r="0.9"/>
	<circle class="st1" cx="21.1" cy="4.6" r="0.9"/>
	<circle class="st1" cx="23.8" cy="7.3" r="0.9"/>
	<circle class="st1" cx="26.6" cy="4.6" r="0.9"/>
	<circle class="st1" cx="32.1" cy="4.6" r="0.9"/>
	<circle class="st1" cx="34.8" cy="7.3" r="0.9"/>
	<circle class="st1" cx="37.6" cy="4.6" r="0.9"/>
	<circle class="st1" cx="40.3" cy="7.3" r="0.9"/>
	<circle class="st1" cx="7.3" cy="18.3" r="0.9"/>
	<circle class="st1" cx="7.3" cy="12.8" r="0.9"/>
	<circle class="st1" cx="4.6" cy="10.1" r="0.9"/>
	<circle class="st1" cx="4.6" cy="15.6" r="0.9"/>
	<circle class="st1" cx="10.1" cy="10.1" r="0.9"/>
	<circle class="st1" cx="7.3" cy="29.3" r="0.9"/>
	<circle class="st1" cx="7.3" cy="23.8" r="0.9"/>
	<circle class="st1" cx="4.6" cy="21.1" r="0.9"/>
	<circle class="st1" cx="4.6" cy="26.6" r="0.9"/>
	<circle class="st1" cx="7.3" cy="40.3" r="0.9"/>
	<circle class="st1" cx="7.3" cy="34.8" r="0.9"/>
	<circle class="st1" cx="4.6" cy="32.1" r="0.9"/>
	<circle class="st1" cx="4.6" cy="37.6" r="0.9"/>
</g>
</svg>
