<?xml version="1.0" encoding="utf-8"?>
<!-- Generator: Adobe Illustrator 25.0.0, SVG Export Plug-In . SVG Version: 6.00 Build 0)  -->
<svg version="1.1" id="Warstwa_1" xmlns="http://www.w3.org/2000/svg" xmlns:xlink="http://www.w3.org/1999/xlink" x="0px" y="0px"
	 viewBox="0 0 70 70" style="enable-background:new 0 0 70 70;" xml:space="preserve">
<style type="text/css">
	.st0{fill-rule:evenodd;clip-rule:evenodd;fill:#FFFFFF;}
	.st1{fill:#FFFFFF;}
</style>
<g>
	<path class="st0" d="M70,32.9C70,17,57.1,4.1,41.2,4.1c-12,0-22.7,7.4-26.9,18.6c0.7,0.2,1.3,0.4,1.9,0.7
		C20.2,13,30.1,6.2,41.2,6.2C56,6.2,68,18.1,68,32.9c0,13-9.5,24.1-22.1,26.3c0.2,0.7,0.3,1.3,0.4,2C59.8,58.8,70,46.8,70,32.9z"/>
	<path class="st0" d="M66.1,5.9l-4.8-3.7c-1.1-0.9-2.8-0.7-3.7,0.5l0,0c-0.9,1.1-0.7,2.8,0.5,3.7l4.8,3.7c1.1,0.9,2.8,0.7,3.7-0.5
		l0,0C67.4,8.5,67.2,6.8,66.1,5.9L66.1,5.9z"/>
	<path class="st0" d="M16.4,5.9c-1.1,0.9-1.4,2.6-0.5,3.7l0,0c0.9,1.1,2.6,1.4,3.7,0.5l4.8-3.7c1.1-0.9,1.4-2.6,0.5-3.7l0,0
		c-0.9-1.2-2.6-1.4-3.7-0.5L16.4,5.9L16.4,5.9z"/>
	<path class="st0" d="M53.1,32.9h2.1h0c0-1,0.9-1.9,1.9-1.9h2.7c1,0,1.9,0.9,1.9,1.9h2.1c0-12.5-10.1-22.6-22.6-22.6v2.1
		c1,0,1.9,0.9,1.9,1.9V17c0,1-0.9,1.9-1.9,1.9v0v5.6v5.6c-1.5,0-2.8,1.2-2.8,2.8c0,1.5,1.2,2.8,2.8,2.8c1.5,0,2.8-1.2,2.8-2.8h5.6
		h1.9H53.1z"/>
	<path class="st1" d="M36.5,68.4c-1.6,0-3.3-0.6-4.5-1.8L12.1,46.7c-0.5,0.1-1,0.1-1.4,0.1C4.8,46.8,0,42,0,36.1
		c0-1.4,0.3-2.8,0.8-4l0.5-1.3l7,7C8.5,38,8.7,38.1,9,38.1c0,0,0,0,0,0c0.2,0,0.5-0.1,0.7-0.3l2.7-2.7c0.4-0.4,0.4-1,0-1.3l-7-7
		l1.3-0.5c1.3-0.5,2.6-0.8,4-0.8c5.9,0,10.7,4.8,10.7,10.7c0,0.5,0,0.9-0.1,1.4L41,57.3l0.3,0.2l0,0.1c2.2,2.5,2.1,6.4-0.3,8.8
		C39.8,67.8,38.1,68.4,36.5,68.4z M12.7,44.7l20.5,20.5c1.8,1.8,4.7,1.8,6.5,0c1.8-1.8,1.8-4.7,0-6.5l-0.1-0.1L19.2,38.2l0.1-0.5
		c0.1-0.5,0.1-1.1,0.1-1.6c0-4.9-4-8.8-8.8-8.8c-0.7,0-1.3,0.1-2,0.2l5,5c0.5,0.5,0.8,1.2,0.8,2s-0.3,1.4-0.8,2l-2.7,2.7
		c-0.5,0.5-1.2,0.8-2,0.8c0,0,0,0,0,0c-0.7,0-1.4-0.3-2-0.8l-5-5c-0.1,0.6-0.2,1.3-0.2,2c0,4.9,4,8.8,8.8,8.8c0.5,0,1.1,0,1.6-0.1
		L12.7,44.7z"/>
	<path class="st0" d="M36.5,58.9c-1.7,0-3,1.3-3,3c0,1.7,1.3,3,3,3c1.7,0,3-1.3,3-3C39.5,60.3,38.1,58.9,36.5,58.9L36.5,58.9z"/>
	<path class="st0" d="M55.7,44.7c-0.7-0.7-1.9-0.7-2.7,0c-0.7,0.7-0.7,1.9,0,2.7c0.7,0.7,1.9,0.7,2.7,0
		C56.5,46.6,56.5,45.4,55.7,44.7L55.7,44.7z"/>
	<path class="st0" d="M26.7,21c0.7,0.7,1.9,0.7,2.7,0s0.7-1.9,0-2.7s-1.9-0.7-2.7,0C26,19.1,26,20.3,26.7,21L26.7,21z"/>
	<path class="st0" d="M41.2,53.4c1,0,1.9-0.9,1.9-1.9v-2.7c0-1-0.9-1.9-1.9-1.9h0c-1,0-1.9,0.8-1.9,1.9v2.7
		C39.3,52.5,40.2,53.4,41.2,53.4L41.2,53.4L41.2,53.4z"/>
	<path class="st0" d="M22.9,31c0.5,1.2,0.8,2.5,1,3.8h1.5c1,0,1.9-0.8,1.9-1.9l0,0c0-1-0.9-1.9-1.9-1.9L22.9,31L22.9,31z"/>
	<path class="st0" d="M53.1,18.4c-0.7,0.7-0.7,1.9,0,2.7s1.9,0.7,2.7,0c0.7-0.7,0.7-1.9,0-2.7C55,17.6,53.8,17.6,53.1,18.4z"/>
	<g>
		<path class="st0" d="M41.2,18.9v-6.5c-1,0-1.9,0.9-1.9,1.9V17C39.4,18,40.2,18.9,41.2,18.9"/>
		<path class="st0" d="M61.8,32.9"/>
		<path class="st0" d="M55.2,32.9c0,1,0.9,1.9,1.9,1.9h2.7c1,0,1.9-0.8,1.9-1.9H55.2"/>
	</g>
</g>
</svg>
