<?xml version="1.0" encoding="utf-8"?>
<!-- Generator: Adobe Illustrator 25.0.1, SVG Export Plug-In . SVG Version: 6.00 Build 0)  -->
<svg version="1.1" id="Warstwa_1" xmlns="http://www.w3.org/2000/svg" xmlns:xlink="http://www.w3.org/1999/xlink" x="0px" y="0px"
	 viewBox="0 0 70 70" style="enable-background:new 0 0 70 70;" xml:space="preserve">
<style type="text/css">
	.st0{fill:#FFFFFF;}
</style>
<g>
	<path id="Path_1" class="st0" d="M61.6,32.7v-22c0-4-3.2-7.2-7.2-7.2H7.2c-4,0-7.2,3.2-7.2,7.2v38.4c0,4,3.2,7.2,7.2,7.2h28
		c4.5,9.1,15.6,12.7,24.6,8.2S72.6,49,68.1,39.9C66.6,37,64.3,34.5,61.6,32.7 M7.2,53.1c-2.2,0-4-1.8-4-4V10.7c0-2.2,1.8-4,4-4h47.1
		c2.2,0,4,1.8,4,4v20.3c-3.1-1.2-6.5-1.6-9.8-1l-5.3-4.3l0,0c0,0-0.1-0.1-0.1-0.1c0,0-0.1-0.1-0.1-0.1c0,0-0.1,0-0.1,0
		c-0.1,0-0.1-0.1-0.2-0.1c0,0-0.1,0-0.1,0c-0.1,0-0.2,0-0.2,0c0,0-0.1,0-0.1,0c-0.1,0-0.1,0-0.2,0c0,0-0.1,0-0.1,0
		c-0.1,0-0.1,0-0.2,0c0,0-0.1,0-0.1,0c-0.1,0-0.1,0.1-0.2,0.1c0,0,0,0,0,0l-7.4,4.3L25,21.6c0,0,0,0,0,0c-0.1-0.1-0.3-0.2-0.5-0.3
		l-0.1,0c-0.2-0.1-0.4-0.1-0.5-0.1h-0.1c-0.2,0-0.4,0.1-0.5,0.1l-0.1,0c-0.1,0.1-0.3,0.1-0.4,0.2L6.1,35.8c-0.7,0.6-0.7,1.6-0.1,2.3
		c0.6,0.7,1.6,0.7,2.3,0.2L23.8,25l13.1,12.2c-3.4,4.5-4.5,10.4-2.9,15.9L7.2,53.1z M39.1,34.8l-2.8-2.6l5.6-3.2l2.7,2.2
		C42.6,32,40.7,33.2,39.1,34.8 M51.6,63.2c-8.3,0-15.1-6.8-15-15.1s6.8-15,15.1-15c8.3,0,15,6.7,15,15.1
		C66.7,56.4,59.9,63.2,51.6,63.2"/>
	<path id="Path_2" class="st0" d="M12.4,22.3c3.8,0,6.9-3.1,6.9-6.9c0-3.8-3.1-6.9-6.9-6.9c-3.8,0-6.9,3.1-6.9,6.9
		C5.5,19.3,8.6,22.3,12.4,22.3 M12.4,11.8c2,0,3.6,1.6,3.6,3.6c0,2-1.6,3.6-3.6,3.6c-2,0-3.6-1.6-3.6-3.6
		C8.8,13.4,10.4,11.8,12.4,11.8"/>
	<path id="Path_3" class="st0" d="M52.7,39L52.7,39C52.6,38.9,52.6,38.9,52.7,39c-0.1-0.1-0.2-0.1-0.2-0.1c0,0-0.1,0-0.1,0
		c0,0-0.1,0-0.1,0c0,0-0.1,0-0.1-0.1s-0.1,0-0.1,0c0,0-0.1,0-0.1,0c0,0-0.1,0-0.1,0c0,0-0.1,0-0.1,0c0,0-0.1,0-0.1,0s0,0-0.1,0
		s0,0-0.1,0s-0.1,0-0.1,0c0,0-0.1,0-0.1,0l-0.1,0l-0.1,0c0,0-0.1,0-0.1,0c0,0-0.1,0-0.1,0.1l-0.1,0l-0.1,0c0,0-0.1,0.1-0.1,0.1
		c0,0-0.1,0-0.1,0.1l0,0L44,44.5c-0.7,0.6-0.7,1.6-0.1,2.3c0.6,0.6,1.6,0.7,2.2,0.2l3.9-3.3V56c0,0.9,0.8,1.6,1.7,1.6
		c0.9,0,1.6-0.7,1.6-1.6V43.7l3.9,3.3c0.7,0.6,1.7,0.5,2.3-0.1c0.6-0.7,0.5-1.7-0.1-2.3c0,0,0,0-0.1-0.1L52.7,39z"/>
</g>
</svg>
