<?xml version="1.0" encoding="utf-8"?>
<!-- Generator: Adobe Illustrator 25.0.0, SVG Export Plug-In . SVG Version: 6.00 Build 0)  -->
<svg version="1.1" id="Warstwa_1" xmlns="http://www.w3.org/2000/svg" xmlns:xlink="http://www.w3.org/1999/xlink" x="0px" y="0px"
	 viewBox="0 0 55 55" style="enable-background:new 0 0 55 55;" xml:space="preserve">
<style type="text/css">
	.st0{fill:#00A0E3;}
	.st1{fill:#F1D04C;}
</style>
<g>
	<path class="st0" d="M55,36c0-0.2-0.2-0.4-0.5-0.4H40.1v1h12.1l-13.7,5.9H2.8l12.7-5.4v-1L0.3,42.5C0.1,42.6,0,42.8,0,43
		c0,0.2,0.2,0.4,0.5,0.4h38.1c0.1,0,0.1,0,0.2,0l16-6.8C54.9,36.5,55,36.2,55,36z"/>
	<path class="st0" d="M38.5,50.3H0.5c-0.3,0-0.5-0.2-0.5-0.5v-6.9c0-0.3,0.2-0.5,0.5-0.5h38.1c0.3,0,0.5,0.2,0.5,0.5v6.9
		C39,50.1,38.8,50.3,38.5,50.3z M1,49.3h37.1v-5.9H1V49.3z"/>
	<path class="st0" d="M38.5,50.3c-0.1,0-0.2,0-0.3-0.1c-0.1-0.1-0.2-0.2-0.2-0.4v-6.9c0-0.2,0.1-0.4,0.3-0.4l16-6.8
		c0.1-0.1,0.3,0,0.5,0c0.1,0.1,0.2,0.2,0.2,0.4v6.1c0,0.2-0.1,0.4-0.3,0.4l-16,7.7C38.7,50.3,38.6,50.3,38.5,50.3z M39,43.3v5.8
		l15-7.2v-5L39,43.3z"/>
	<path class="st1" d="M36.8,40.3H15.7c-0.3,0-0.5-0.2-0.5-0.5V6.5c0-0.3,0.2-0.5,0.5-0.5h21.1c0.3,0,0.5,0.2,0.5,0.5v33.3
		C37.2,40.1,37,40.3,36.8,40.3z M16.2,39.3h20.1V7H16.2V39.3z"/>
	<path class="st1" d="M36.8,40.3c-0.1,0-0.2,0-0.3-0.1c-0.1-0.1-0.2-0.2-0.2-0.4V6.5c0-0.2,0.1-0.4,0.3-0.4l3.3-1.3
		c0.1-0.1,0.3,0,0.4,0.1c0.1,0.1,0.2,0.2,0.2,0.4v33.2c0,0.2-0.1,0.4-0.3,0.4L37,40.3C36.9,40.3,36.8,40.3,36.8,40.3z M37.2,6.8
		v32.3l2.4-1V5.9L37.2,6.8z"/>
	<path class="st1" d="M36.8,7H15.6c-0.2,0-0.4-0.2-0.5-0.4c0-0.2,0.1-0.5,0.3-0.5L20,4.7c0,0,0.1,0,0.1,0H40c0.2,0,0.4,0.2,0.5,0.4
		c0,0.2-0.1,0.4-0.3,0.5L37,6.9C36.9,7,36.9,7,36.8,7z M18.9,6h17.8l0.9-0.4H20.2L18.9,6z"/>
</g>
</svg>
