<?xml version="1.0" encoding="utf-8"?>
<!-- Generator: Adobe Illustrator 25.0.1, SVG Export Plug-In . SVG Version: 6.00 Build 0)  -->
<svg version="1.1" id="Warstwa_1" xmlns="http://www.w3.org/2000/svg" xmlns:xlink="http://www.w3.org/1999/xlink" x="0px" y="0px"
	 viewBox="0 0 70 70" style="enable-background:new 0 0 70 70;" xml:space="preserve">
<style type="text/css">
	.st0{fill:none;}
	.st1{fill:#FFFFFF;}
</style>
<rect x="123.6" y="7" class="st0" width="70" height="56"/>
<g id="Group_8" transform="translate(0 0)">
	<path id="Path_10" class="st1" d="M69.5,27.3c-0.4-0.5-1.1-0.9-1.8-0.9H53.7L41.2,8.1c-0.6-1-2-1.4-3-0.7c-1,0.6-1.4,1.9-0.8,2.9
		c0,0,0,0,0,0c0,0.1,0.1,0.1,0.1,0.2l10.9,16H21.6l10.9-16c0.7-0.9,0.5-2.3-0.4-3c0,0,0,0,0,0c-1-0.7-2.3-0.5-3.1,0.4
		C29,7.9,29,8,28.9,8.1L16.4,26.4H2.3c-1.2-0.1-2.2,0.9-2.3,2.1c0,0.2,0,0.5,0.1,0.7l8.1,26.1c1.4,4.6,5.7,7.7,10.5,7.7h32.7
		c4.8,0,9-3.1,10.5-7.7l8.1-26.1C70.1,28.6,69.9,27.8,69.5,27.3 M57.7,54.1c-0.9,2.8-3.4,4.6-6.3,4.6H18.7c-2.9,0.1-5.5-1.8-6.4-4.6
		L5.2,30.7h8.3l-2.2,3.1c-0.7,0.9-0.5,2.3,0.4,3c0,0,0,0,0,0c1,0.7,2.3,0.5,3.1-0.4c0-0.1,0.1-0.1,0.1-0.2l3.8-5.5h32.6l3.7,5.5
		c0.7,1,2.1,1.1,3.1,0.4c0.9-0.7,1.1-1.9,0.6-2.8l-2.2-3.1h8.3L57.7,54.1z"/>
	<path id="Path_11" class="st1" d="M50.3,50.1H19.7c-1.2,0-2.2,1-2.2,2.2s1,2.2,2.2,2.2h30.6c1.2,0,2.2-1,2.2-2.2
		S51.5,50.1,50.3,50.1"/>
	<path id="Path_12" class="st1" d="M24.1,45.8h19.6c1.2,0,2.2-1,2.2-2.2s-1-2.2-2.2-2.2H24.1c-1.2,0-2.2,1-2.2,2.2
		S22.9,45.8,24.1,45.8"/>
</g>
</svg>
