<?xml version="1.0" encoding="utf-8"?>
<!-- Generator: Adobe Illustrator 25.2.1, SVG Export Plug-In . SVG Version: 6.00 Build 0)  -->
<svg version="1.1" id="Warstwa_1" xmlns="http://www.w3.org/2000/svg" xmlns:xlink="http://www.w3.org/1999/xlink" x="0px" y="0px"
	 viewBox="0 0 70 70" style="enable-background:new 0 0 70 70;" xml:space="preserve">
<style type="text/css">
	.st0{fill:#00A0E3;}
	.st1{fill:#F1D04C;}
</style>
<g>
	<path class="st0" d="M15.9,68.1c0.7,0.3,1.3,0.4,2.1,0.4c1.4,0,2.8-0.6,3.8-1.6l14.8-14.8h27.6c3.2,0,5.9-2.6,5.9-5.9V7.4
		c0-3.2-2.6-5.9-5.9-5.9H5.9C2.6,1.5,0,4.1,0,7.4v38.9c0,3.2,2.6,5.9,5.9,5.9h6.8v11C12.6,65.3,13.9,67.2,15.9,68.1z M5.9,49.6
		c-1.9,0-3.4-1.5-3.4-3.4V7.4c0-1.9,1.5-3.4,3.4-3.4h58.3c1.9,0,3.4,1.5,3.4,3.4v39c0,1.9-1.5,3.4-3.4,3.4H36.1
		c-0.3,0-0.7,0.1-0.9,0.4L20,65.2c-0.6,0.6-1.3,0.9-2,0.9c-0.4,0-0.8-0.1-1.3-0.3c-1.5-0.8-1.7-2-1.7-2.6V50.9
		c0-0.7-0.5-1.3-1.3-1.3H5.9z"/>
	<path class="st1" d="M25.9,15.7c-1.7,0-3.2,0.6-4.4,1.9c-1.3,1.3-1.9,2.7-1.9,4.4c0,1.5,0.5,3,1.6,4.2c1.1,1.3,2.8,1.5,4.2,1.6
		c-0.2,2-1.4,4.1-2.5,5.6c-0.2,0.2-0.4,0.5-0.5,0.7c-0.3,0.3-0.3,0.8,0,1.1l2.4,2.5c0.4,0.4,0.9,0.4,1.3,0c1-1.1,1.9-2.4,2.8-3.7
		c2.3-3.7,3.4-7.3,3.4-11c0-2.1-0.6-3.9-1.9-5.3C29,16.4,27.6,15.7,25.9,15.7z"/>
	<path class="st1" d="M44.1,15.7c-1.7,0-3.2,0.6-4.4,1.9c-1.3,1.3-1.9,2.7-1.9,4.4c0,1.5,0.5,3,1.6,4.2c1.1,1.3,2.8,1.5,4.2,1.6
		c-0.2,2-1.4,4.1-2.5,5.6c-0.2,0.2-0.4,0.5-0.5,0.7c-0.3,0.3-0.3,0.8,0,1.1l2.4,2.5c0.4,0.4,0.9,0.4,1.3,0c1-1.1,1.9-2.4,2.8-3.7
		c2.3-3.7,3.4-7.3,3.4-11c0-2.1-0.6-3.9-1.9-5.3C47.3,16.4,45.8,15.7,44.1,15.7z"/>
</g>
</svg>
