<?xml version="1.0" encoding="utf-8"?>
<!-- Generator: Adobe Illustrator 25.0.0, SVG Export Plug-In . SVG Version: 6.00 Build 0)  -->
<svg version="1.1" id="Warstwa_1" xmlns="http://www.w3.org/2000/svg" xmlns:xlink="http://www.w3.org/1999/xlink" x="0px" y="0px"
	 viewBox="0 0 55 55" style="enable-background:new 0 0 55 55;" xml:space="preserve">
<style type="text/css">
	.st0{fill:#00A0E3;}
	.st1{fill:#F1D04C;}
</style>
<g>
	<path class="st0" d="M49.9,40.5c2.8,0,5.1-2,5.1-4.6V6.2c0-1.1-0.4-2.2-1.2-3c-1-1-2.4-1.6-3.9-1.6H5.1C2.3,1.7,0,3.7,0,6.2V50
		c0,1.5,1,2.7,2.5,3.1c0.4,0.1,0.8,0.2,1.3,0.2c1.2,0,2.2-0.5,3-1.3l10-11.5H49.9z M15.2,38.8L4.7,50.9c-0.3,0.3-0.6,0.4-0.9,0.4
		c-0.1,0-0.3,0-0.4-0.1c-0.5-0.1-0.9-0.6-0.9-1.2V6.2c0-1.3,1.2-2.4,2.6-2.4h44.8c1.4,0,2.6,1.1,2.6,2.4v28.9l0.1,0.9
		c0,1.3-1.2,2.4-2.6,2.4H16.2C15.8,38.4,15.4,38.6,15.2,38.8z"/>
	<path class="st1" d="M19.9,12.6c-1.4,0-2.7,0.5-3.7,1.5c-1.1,1-1.7,2.1-1.7,3.3c0,1.2,0.4,2.3,1.3,3.2c0.9,1,2.3,1.2,3.5,1.2
		c-0.2,1.5-1.2,3.2-2.1,4.3c-0.1,0.2-0.3,0.3-0.5,0.5c-0.2,0.3-0.2,0.7,0,0.9l2,1.9c0.3,0.3,0.8,0.3,1.1,0c0.9-0.8,1.6-1.8,2.4-2.9
		c1.9-2.8,2.9-5.6,2.9-8.5c0-1.6-0.6-3-1.6-4C22.5,13.1,21.2,12.6,19.9,12.6z"/>
	<path class="st1" d="M35.2,12.6c-1.4,0-2.7,0.5-3.7,1.5c-1.1,1-1.6,2.1-1.6,3.3c0,1.2,0.4,2.3,1.3,3.2c0.9,1,2.3,1.2,3.5,1.2
		c-0.2,1.5-1.2,3.2-2.1,4.3c-0.1,0.2-0.3,0.3-0.5,0.5c-0.2,0.3-0.2,0.7,0,0.9l2,1.9c0.3,0.3,0.8,0.3,1.1,0c0.9-0.8,1.6-1.8,2.4-2.9
		c1.9-2.8,2.9-5.6,2.9-8.5c0-1.6-0.6-3-1.6-4C37.9,13.1,36.6,12.6,35.2,12.6z"/>
</g>
</svg>
