<?xml version="1.0" encoding="utf-8"?>
<!-- Generator: Adobe Illustrator 25.1.0, SVG Export Plug-In . SVG Version: 6.00 Build 0)  -->
<svg version="1.1" id="Warstwa_1" xmlns="http://www.w3.org/2000/svg" xmlns:xlink="http://www.w3.org/1999/xlink" x="0px" y="0px"
	 viewBox="0 0 246 190" style="enable-background:new 0 0 246 190;" xml:space="preserve">
<style type="text/css">
	.st0{fill:#F2F2F2;}
	.st1{opacity:0.1;fill:#1D1D1B;enable-background:new    ;}
	.st2{fill:#3A3768;}
	.st3{fill:#00A0E3;}
	.st4{opacity:5.000000e-02;enable-background:new    ;}
	.st5{fill:#F1D04C;}
	.st6{opacity:0.1;enable-background:new    ;}
	.st7{fill:#FFFFFF;}
	.st8{fill:#D3DAE1;}
	.st9{fill:#585B8A;}
	.st10{opacity:0.2;enable-background:new    ;}
	.st11{fill:#1D1D1B;}
	.st12{fill:#FFD6D6;}
	.st13{fill:#DCE6F2;}
	.st14{fill:#505484;}
	.st15{fill:#575988;}
	.st16{fill:#D28690;}
	.st17{fill:#F0F3F7;}
	.st18{fill:#663D5C;}
	.st19{opacity:0.3;enable-background:new    ;}
	.st20{opacity:0.15;}
	.st21{opacity:0.1;fill:#6C63FF;enable-background:new    ;}
</style>
<g id="Group_247" transform="translate(-68.97 -6.832)">
	<path id="Path_137" class="st0" d="M313.1,63.1c0,0.2-0.1,0.4-0.1,0.6c-1.5,7.3-4.2,14.4-8,20.9c-0.1,0.2-0.3,0.4-0.4,0.6
		c-2.5,4.2-5.6,8-9.1,11.4c-1.9,2-4.1,3.7-6.5,5c-3.5,1.8-7.6,2.6-11.6,3.2c-4.2,0.6-8.4,1.2-12.6,1.7c-1.5,0.2-3,0.4-4.5,0.6
		c-4.1,0.6-8.1,1.3-12.1,2.2c-4.8,1.1-9.6,2.7-14.1,4.7c-0.4,0.2-0.7,0.3-1.1,0.5c-0.3,0.2-0.7,0.4-1,0.5c-0.3,0.2-0.7,0.4-1,0.5
		c-0.2,0.1-0.3,0.2-0.5,0.3c-0.2,0.1-0.3,0.2-0.5,0.3c-0.5,0.3-1,0.6-1.5,0.9l0,0c-0.3,0.2-0.6,0.4-1,0.6c-1.8,1.1-3.6,2.3-5.4,3.4
		l-1.1,0.7l-1.7,1.1c-0.3,0.2-0.7,0.4-1,0.7c-0.2,0.2-0.5,0.3-0.7,0.5c-1.3,0.8-2.6,1.6-3.9,2.3c-0.3,0.2-0.6,0.4-0.9,0.5
		c-2.7,1.5-5.4,2.7-8.3,3.8l0,0c-1.4,0.5-2.9,0.9-4.4,1.2c-0.9,0.2-1.7,0.3-2.6,0.5c-2.3,0.3-4.7,0.4-7.1,0.1
		c-4.6-0.5-8.9-2.3-13.5-2.9c-9.5-1.2-18.7,2.7-27.6,5.7c-2.2,0.8-4.4,1.5-6.6,2.1c-1.5,0.4-3,0.9-4.5,1.3c-9.2,2.4-18.5,4.1-28,4.9
		c-4,0.4-7.9,0.5-11.9,0.3c-1.5-0.1-3-0.2-4.5-0.5c-4.9-0.6-9.5-2.5-13.4-5.4c-3-2.4-5.3-5.5-7-9c-1.7-3.4-2.9-7-3.6-10.8
		c-0.1-0.5-0.2-1-0.2-1.5c-0.1-0.9-0.2-1.8-0.3-2.6c-0.3-4.7,0.2-9.5,1.7-14c1.6-5.1,4.3-9.9,5.4-15c0-0.2,0.1-0.4,0.1-0.6
		c0.2-0.8,0.3-1.6,0.4-2.3c0.6-6.3-1.7-12.4-3.5-18.5C73.1,63.5,73,63.3,73,63c-0.2-0.7-0.4-1.4-0.6-2c-1.8-6.5-2-13.3-0.6-19.9
		c0-0.2,0.1-0.4,0.2-0.6c1-4.1,2.9-7.9,5.5-11.2c2.9-3.5,6.4-6.5,10.3-8.9c1.9-1.2,3.9-2.4,5.9-3.5c1.5-0.8,2.9-1.5,4.5-2.2
		C110.6,9,124.2,6.3,138,6.9c0.7,0,1.5,0.1,2.2,0.1c0.7,0.1,1.5,0.1,2.3,0.2c8.8,1,17.5,2.8,26.1,5.2c2.9,0.8,5.7,1.5,8.6,2.3
		c1.3,0.3,2.5,0.7,3.8,1c6.2,1.6,12.6,3.1,19,4.2c1.5,0.3,3,0.5,4.5,0.7c5.2,0.8,10.4,1.2,15.6,1.3c2,0,4.1,0,6.1-0.1
		c1,0,2.1-0.1,3.1-0.2c10.6-0.7,20.9-3.3,31.1-5.6c1.5-0.3,3-0.7,4.5-1c2-0.4,3.9-0.8,5.9-1.2c12.2-2.4,23.1-1,34.5,3.9
		c2.6,1.1,5.2,2.5,6.7,4.6c1.6,2.1,2,4.7,2.3,7.2c0.4,3.6,0.7,7.2,0.8,10.8c0,0.2,0,0.4,0,0.6C315.1,48.5,314.5,55.8,313.1,63.1z"/>
	<path id="Path_138" class="st1" d="M232,84.6h-0.8v0.6h0.9L232,84.6z M222.9,84.6C222.9,84.6,222.9,84.6,222.9,84.6
		c0,0.2,0,0.4-0.1,0.5v0.1h6.9v0l0.5-0.6L222.9,84.6z M204.4,84.6V63.7h8c-0.1-0.1-0.2-0.1-0.3-0.2l-0.1-0.1l-0.1-0.1
		c-0.1-0.1-0.2-0.1-0.3-0.2s-0.1-0.1-0.2-0.1l-0.1,0h-6.9v-1.1l-0.2,0.1l-0.2,0.1h0l0,0l-0.1,0.1l-0.1,0.1c-0.1,0.1-0.2,0.1-0.4,0.2
		l-0.1,0.1l-0.2,0.2c-0.3,0.2-0.6,0.4-0.9,0.6c-0.1,0.1-0.2,0.1-0.2,0.1c-0.2,0.1-0.3,0.2-0.5,0.3c-0.1,0-0.2,0.1-0.2,0.1l-0.1,0.1
		l-0.1,0l0,0c-0.3,0.1-0.6,0.2-0.9,0.2v20.4H188c0,0,0,0,0,0.1c0.1,0.2,0.1,0.4,0.2,0.6h11.7v22.4h0.2l0.2,0l0.4,0l0.6,0.1l0.3,0
		l0.3,0h0l0.5,0.1l0.1,0l0.3,0l0.4,0.1l0,0l0.9,0l0,0l0.1,0c0.1,0,0.1,0,0.1,0V85.2h18.5v-0.1c0-0.2,0-0.4,0.1-0.5c0,0,0,0,0,0
		L204.4,84.6z M232,84.6h-0.8v0.6h0.9L232,84.6z M222.4,84.6c0,0.2-0.1,0.4-0.1,0.6h7.7l0.5-0.6H222.4z M204.4,84.6V63.7h8
		c-0.1-0.1-0.2-0.1-0.3-0.2l-0.1-0.1l-0.1-0.1c-0.1-0.1-0.2-0.1-0.3-0.2s-0.1-0.1-0.2-0.1l-0.1,0h-6.9v-1.1l-0.2,0.1l-0.2,0.1h0l0,0
		l-0.1,0.1l-0.1,0.1c-0.1,0.1-0.2,0.1-0.4,0.2l-0.1,0.1l-0.2,0.2c-0.3,0.2-0.6,0.4-0.9,0.6c-0.1,0.1-0.2,0.1-0.2,0.1
		c-0.2,0.1-0.3,0.2-0.5,0.3c-0.1,0-0.2,0.1-0.2,0.1l-0.1,0.1l-0.1,0l0,0c-0.3,0.1-0.6,0.2-0.9,0.2v20.4H188c0,0,0,0,0,0.1
		c0.1,0.2,0.1,0.4,0.2,0.6h11.7v22.4h0.2l0.2,0l0.4,0l0.6,0.1l0.3,0l0.3,0h0l0.5,0.1l0.1,0l0.3,0l0.4,0.1l0,0l0.9,0l0,0l0.1,0
		c0.1,0,0.1,0,0.1,0V85.2h18c0-0.2,0.1-0.4,0.1-0.6L204.4,84.6z M264.7,41.1h50.2c0-0.2,0-0.4,0-0.6h-50.2V15.1
		c-1.5,0.3-3,0.7-4.5,1v24.3h-54.6l-0.1-0.1l0.2-0.2l0,0l20.3-18.3C224,22,222,22,220,22l-15.6,14V20.6c-1.5-0.2-3-0.4-4.5-0.7v15.3
		l-22.8-20.5c-2.9-0.8-5.7-1.5-8.6-2.3l31,27.9l-0.1,0.1h-57V7.2c-0.8-0.1-1.5-0.1-2.3-0.2C139.4,7,138.7,7,138,6.9v33.5H98.1V14.6
		c-1.5,0.7-3,1.4-4.5,2.2v23.7H71.9c-0.1,0.2-0.1,0.4-0.2,0.6h21.8v21.9H73c0.1,0.2,0.1,0.4,0.2,0.6h20.4v20.9H76.3
		c0,0.2-0.1,0.4-0.1,0.6h17.5v58.3c1.5,0.2,3,0.4,4.5,0.5V85.2H138v53.6c1.5-0.4,3-0.8,4.5-1.3V85.2h57.5v46.9
		c1.5-0.3,3-0.7,4.4-1.2l0,0V85.2h55.9v22c1.5-0.2,3-0.4,4.5-0.6V85.2h39.8c0.1-0.2,0.3-0.4,0.4-0.6h-40.1V63.7h48.2
		c0.1-0.2,0.1-0.4,0.1-0.6h-48.3L264.7,41.1z M98.1,41.1H138v21.9H98.1L98.1,41.1z M98.1,84.6V63.7H138v20.9H98.1z M142.4,41.1h57.5
		v21.9h-57.5V41.1z M142.4,84.6V63.7h57.5v20.9L142.4,84.6z M260.3,84.6h-55.9V63.7h55.9V84.6z M260.3,63.1h-55.9V41.7l0.8-0.6h55.1
		V63.1z M222.9,84.6C222.9,84.6,222.9,84.6,222.9,84.6c0,0.2,0,0.4-0.1,0.5v0.1h6.9v0l0.5-0.6L222.9,84.6z M232,84.6h-0.8v0.6h0.9
		L232,84.6z M204.4,84.6V63.7h8c-0.1-0.1-0.2-0.1-0.3-0.2l-0.1-0.1l-0.1-0.1c-0.1-0.1-0.2-0.1-0.3-0.2s-0.1-0.1-0.2-0.1l-0.1,0h-6.9
		v-1.1l-0.2,0.1l-0.2,0.1h0l0,0l-0.1,0.1l-0.1,0.1c-0.1,0.1-0.2,0.1-0.4,0.2l-0.1,0.1l-0.2,0.2c-0.3,0.2-0.6,0.4-0.9,0.6
		c-0.1,0.1-0.2,0.1-0.2,0.1c-0.2,0.1-0.3,0.2-0.5,0.3c-0.1,0-0.2,0.1-0.2,0.1l-0.1,0.1l-0.1,0l0,0c-0.3,0.1-0.6,0.2-0.9,0.2v20.4
		H188c0,0,0,0,0,0.1c0.1,0.2,0.1,0.4,0.2,0.6h11.7v22.4h0.2l0.2,0l0.4,0l0.6,0.1l0.3,0l0.3,0h0l0.5,0.1l0.1,0l0.3,0l0.4,0.1l0,0
		l0.9,0l0,0l0.1,0c0.1,0,0.1,0,0.1,0V85.2h18.5v-0.1c0-0.2,0-0.4,0.1-0.5c0,0,0,0,0,0L204.4,84.6z"/>
	
		<ellipse id="Ellipse_16" transform="matrix(0.2002 -0.9797 0.9797 0.2002 56.6569 354.5396)" class="st0" cx="245.5" cy="142.6" rx="15.7" ry="51.7"/>
	<path id="Path_139" class="st2" d="M239.6,98.4c0,0,2.8-13.5,13.3-12.3c0,0,7.3,0.5,8.8,5.3v10.5L239.6,98.4z"/>
	<path id="Path_140" class="st3" d="M297.2,103.4l-93.5-7.8l-12,2.5l0.7,16.8l0.8,0.1l0.9,25.2l91.8,16.5l9.8-8.3v-27.3l1.2-0.7
		L297.2,103.4z"/>
	<path id="Path_141" class="st4" d="M297.3,103.4l-0.3,17l-10.1,4.8l-0.1-17.8L297.3,103.4z"/>
	<path id="Path_142" class="st4" d="M295.7,121.2l0.1,26.8l-9.8,8.3l0.6-31L295.7,121.2z"/>
	<path id="Path_143" class="st4" d="M193.3,116l93.4,11.4l0-2.2l-93.5-10.1L193.3,116z"/>
	<path id="Path_144" class="st4" d="M295.7,122.2v-1l-9.3,4.1v2.2L295.7,122.2z"/>
	<path id="Path_145" class="st5" d="M191.5,98.1l12-2.5l93.5,7.8l-10.5,4L191.5,98.1z"/>
	<path id="Path_146" class="st6" d="M287.1,103.9l4.6,0.3l-7.6,2.3l-3.9-0.3L287.1,103.9z"/>
	<path id="Path_147" class="st7" d="M287.1,103.7l4.6,0.3l-7.6,2.3l-3.9-0.3L287.1,103.7z"/>
	<path id="Path_148" class="st8" d="M286.5,104.2c0.2-0.1,0.4,0.1,0.6,0.1c0.1,0,0.2,0,0.3,0c0.2,0,0.4,0.2,0.7,0.1"/>
	<path id="Path_149" class="st8" d="M286.3,104.3c0.2-0.1,0.4,0.1,0.6,0.1c0.1,0,0.2,0,0.3,0c0.2,0,0.4,0.2,0.7,0.1"/>
	<path id="Path_150" class="st8" d="M285.7,104.6c0.2-0.1,0.4,0.1,0.6,0.1c0.1,0,0.2,0,0.3,0c0.2,0,0.5,0.2,0.7,0.1"/>
	<path id="Path_151" class="st6" d="M267.2,101.6l4.6,0.3l-7.6,2.3l-3.9-0.3L267.2,101.6z"/>
	<path id="Path_152" class="st7" d="M267.2,101.4l4.6,0.3l-7.6,2.3l-3.9-0.3L267.2,101.4z"/>
	<path id="Path_153" class="st8" d="M266.7,101.9c0.2-0.1,0.4,0.1,0.6,0.1c0.1,0,0.2,0,0.3,0c0.2,0,0.4,0.2,0.7,0.1"/>
	<path id="Path_154" class="st8" d="M266.4,102.1c0.2-0.1,0.4,0.1,0.6,0.1c0.1,0,0.2,0,0.3,0c0.2,0,0.4,0.2,0.7,0.1"/>
	<path id="Path_155" class="st8" d="M265.9,102.3c0.2-0.1,0.4,0.1,0.6,0.1c0.1,0,0.2,0,0.3,0c0.2,0,0.4,0.2,0.7,0.1"/>
	<path id="Path_156" class="st6" d="M276.8,102.7l4.6,0.3l-7.6,2.3l-3.9-0.3L276.8,102.7z"/>
	<path id="Path_157" class="st7" d="M276.8,102.5l4.6,0.3l-7.6,2.3l-3.9-0.3L276.8,102.5z"/>
	<path id="Path_158" class="st8" d="M276.2,103.1c0.2-0.1,0.4,0.1,0.6,0.1c0.1,0,0.2,0,0.3,0c0.2,0,0.4,0.2,0.7,0.1"/>
	<path id="Path_159" class="st8" d="M276,103.2c0.2-0.1,0.4,0.1,0.6,0.1c0.1,0,0.2,0,0.3,0c0.2,0,0.5,0.2,0.7,0.1"/>
	<path id="Path_160" class="st8" d="M275.4,103.5c0.2-0.1,0.4,0.1,0.6,0.1c0.1,0,0.2,0,0.3,0c0.2,0,0.4,0.2,0.7,0.1"/>
	<ellipse id="Ellipse_17" class="st0" cx="172.8" cy="186.7" rx="49" ry="10.1"/>
	<path id="Path_161" class="st9" d="M183.4,104.7c0,0-0.6,3.9,1.2,4s3-3,3-3l-0.7-2.5L183.4,104.7z"/>
	<path id="Path_162" class="st10" d="M183.4,104.7c0,0-0.6,3.9,1.2,4s3-3,3-3l-0.7-2.5L183.4,104.7z"/>
	<path id="Path_163" class="st11" d="M143.5,190.2c-3.2,0.1-7.3-3.4-7.3-3.4L136,183c0,0-0.3,0.1-0.8-0.7c-0.4-0.6,0.2-2.9,0.6-4.3
		c0.2-0.7,0.3-1.2,0.3-1.2l6.9,1.9l0.3,0.9l2.7,7.2C146.1,186.7,146.7,190,143.5,190.2z"/>
	<path id="Path_164" class="st11" d="M175.4,179.7c0,0-8,3.1-10.6,0.7c-2.6-2.4-4.5-1.7-4.5-1.7s-4.5,0.1-5.4-0.3
		c-0.5-0.2-0.2-1.9,0.1-3.3c0.2-0.9,0.5-1.7,0.5-1.7s7.9-2.7,9.1-1c0.4,0.5,0.8,0.9,1.3,1.3c1.4,1,3.7,2,7.2,3.4
		C177.9,179,175.4,179.7,175.4,179.7z"/>
	<path id="Path_165" class="st12" d="M168.2,116.7l2.2,4.4c0,0,3.2,4.5-0.5,6.2c-3.7,1.7-3.6-9.9-3.6-9.9L168.2,116.7z"/>
	<path id="Path_166" class="st13" d="M159,78.5c0,0,2.4,1.1,3.9,5.7c1.4,4.6,3.4,12.5,3.4,12.5s1.3,8.9,1.1,11.1
		c-0.1,1.2-0.1,2.4,0.1,3.6l1.9,6.2l-3.7,1.3l-5.7-21.9L159,78.5z"/>
	<path id="Path_167" class="st3" d="M159,78.5c0,0,2.4,1.1,3.9,5.7c1.4,4.6,3.4,12.5,3.4,12.5s1.3,8.9,1.1,11.1
		c-0.1,1.2-0.1,2.4,0.1,3.6l1.9,6.2l-3.7,1.3l-5.7-21.9L159,78.5z"/>
	<path id="Path_168" class="st6" d="M143.1,178.7l0.3,0.9l-0.4,0.8c-1.6,0.7-5.5,0.1-5.5,0.1s-0.7-0.9-1.7-2.4
		c0.2-0.7,0.3-1.2,0.3-1.2L143.1,178.7z"/>
	<path id="Path_169" class="st6" d="M166.1,173.9c-2,4.5-8.8,2.9-10.7,2.3c-0.3-0.1-0.5-0.2-0.5-0.2s0-0.4,0-1
		c0.2-0.9,0.5-1.7,0.5-1.7s7.9-2.7,9.1-1c0.4,0.5,0.8,0.9,1.3,1.3C165.9,173.7,166,173.8,166.1,173.9z"/>
	<path id="Path_170" class="st5" d="M165.7,168.1c-1.6,3.4,0.3,5.4,0.3,5.4c-2,4.5-8.8,2.9-10.7,2.3c-0.3-0.1-0.5-0.2-0.5-0.2
		c0.1-2.3,0-4.7-0.3-7c-0.5-2.3-0.4-11.8-0.1-13c0.2-1.1,0.3-2.3,0.4-3.4c-0.1-1.3-0.1-2.7,0.1-4c0.2-0.7,0-1.5-0.5-2l0,0
		c-0.6,2.1-1.3,4.1-2.1,6.1c-0.6,0.9-0.8,5.4-0.8,6.2s-2.9,7.7-2.9,7.7s-1.1,3.2-1.3,4.1c-0.2,0.9-1,3.4-1,3.4l-3.3,6.4
		c-1.6,0.7-5.5,0.1-5.5,0.1s-0.8-1-1.8-2.5c-1-1.6-1.5-7.2-1.5-7.2s3.8-0.1,2.8-3.7c-1-3.6,0.8-6.5,0.8-7.7c0.1-2,0.5-4,1.3-5.9
		c0.5-0.6,0.4-3.2,0.3-4.7c-0.1-1.4-0.1-6.5-0.1-6.5c0.1-1.1,0.3-2.3,0.8-3.3c0.7-1,0.4-4,0.4-4s1.3-0.7,0.4-7.4s1.5-15.3,1.5-15.3
		l0.1-1.2l0.1-2c0,0,19.7-1.2,21.2,0.3c0.4,0.4,0.8,0.9,1,1.4c0.5,1.2,0.9,2.4,1.1,3.7l0.8,20.9l0.8,15.3l-0.3,11.6
		C167.3,164,166.7,166.1,165.7,168.1z"/>
	<path id="Path_171" class="st6" d="M159.9,126.9l-2.1,44.7l-2.5,4.1c-0.3-0.1-0.5-0.2-0.5-0.2c0.1-2.3,0-4.7-0.3-7
		c-0.5-2.3-0.4-11.8-0.1-13c0.2-1.1,0.3-2.3,0.4-3.4c-0.1-1.3-0.1-2.7,0.1-4c0.2-0.7,0-1.5-0.5-2l0-0.2L159.9,126.9z"/>
	<path id="Path_172" class="st6" d="M137.7,175c0,0,5.4-2.1,6.2-1.5s-6.3,1.7-6.3,1.7L137.7,175z"/>
	<path id="Path_173" class="st6" d="M164.2,169.3c-0.2,0.1-5.4,1.9-4.9,3.9C159.7,175.2,164.2,169.3,164.2,169.3z"/>
	<path id="Path_174" class="st12" d="M147.8,67.5c0,0,1.8,4.2,0.8,6.4c-0.9,2.2,10,5.9,10,5.9s-3.2-8.3-0.1-12.9
		C161.7,62.2,147.8,67.5,147.8,67.5z"/>
	<path id="Path_175" class="st14" d="M211.8,190c-1.8,0.6-3.4,1.5-4.9,2.6c0,0-5.4,1.1-9,0.6c-3.7-0.5-3-4.5-0.2-5.5
		c1.9-0.8,3.6-1.9,5-3.3c0.5-0.4,0.7-0.7,0.7-0.7l10.3-2.1c0,0,0.2,0.6,0.4,1.4c0.4,1.4,1,3.5,1.3,4.3
		C215.8,188.5,214,189.6,211.8,190z"/>
	<path id="Path_176" class="st14" d="M209.2,182.1c0,0-4.3,0.5-6.1-0.6s-4.4,0.6-4.4,0.6s-7.4-0.2-9.9-0.9c-2.5-0.8,0.4-4.6,4.4-4.2
		c1.1,0.2,2.2-0.1,3.1-0.6c0.7-0.5,1.2-1.2,1.4-2l8.7,0.5l1.2,3.1L209.2,182.1z"/>
	<path id="Path_177" class="st6" d="M207.7,179.3c0,0-10.1-1.7-11.4-3c0.7-0.5,1.2-1.2,1.4-2l8.7,0.5l1.2,3.1L207.7,179.3z"/>
	<path id="Path_178" class="st15" d="M192.7,121.3l0.1,15.1c0,0,0.4,11.4,0.4,12.9c0,1.5,0.1,5,0.1,5s0.8,4.2,1.2,5.6
		c0.5,1.4,0.8,7.7,0.8,7.7s1.1,1.8,0.6,2.4c-0.5,0.7,1.8,2.1,1.8,2.1c-0.7,1-1.3,2.1-1.5,3.4c-0.1,1.3,11.5,3.2,11.5,3.2l-4.5-46.6
		l-3.6-11.7L192.7,121.3z"/>
	<path id="Path_179" class="st6" d="M192.7,121.3l0.1,15.1c0,0,0.4,11.4,0.4,12.9c0,1.5,0.1,5,0.1,5s0.8,4.2,1.2,5.6
		c0.5,1.4,0.8,7.7,0.8,7.7s1.1,1.8,0.6,2.4c-0.5,0.7,1.8,2.1,1.8,2.1c-0.7,1-1.3,2.1-1.5,3.4c-0.1,1.3,11.5,3.2,11.5,3.2l-4.5-46.6
		l-3.6-11.7L192.7,121.3z"/>
	<path id="Path_180" class="st6" d="M214.1,183c-3.4,8-11.4,1.8-11.4,1.8s0-0.2,0-0.4c0.5-0.4,0.7-0.7,0.7-0.7l10.3-2.1
		C213.7,181.7,213.9,182.3,214.1,183z"/>
	<path id="Path_181" class="st15" d="M214.3,182.4c-3.3,8.5-11.5,2.1-11.5,2.1c-0.1-2.1-0.1-4.3,0.3-6.4c0.5-2-0.6-8.1-0.6-8.1
		s-0.6-5.4-1.2-6.6c-0.4-1.3-0.6-2.6-0.5-3.9c0.1-1,0-2-0.3-3c-0.4-1.3-0.6-2.6-0.7-3.9c0-2.1-0.2-4.2-0.5-6.2l-1.6-8l-2.9-16.4
		l0.9-0.2l16.2-2.8c0,0,3,15.5,2,17.1c-0.3,0.7-0.5,1.4-0.6,2.1c-0.6,3.5-0.8,9.8-0.8,9.8s2,3.1,1.2,5.4c-0.8,2.2,0.7,5.9,0.7,5.9
		s0.5,14.5-0.4,15.9C213.2,176.6,214.3,182.4,214.3,182.4z"/>
	<path id="Path_182" class="st16" d="M212.7,76.7c0,0-14.6,10.3-11.3,5.2c1.8-2.8,1.5-6.3,0.8-9c-0.4-1.4-0.8-2.7-1.5-3.9
		c0,0,12.4-5.3,10.8-0.5c-0.4,1.1-0.6,2.3-0.5,3.4C211.1,73.6,211.7,75.3,212.7,76.7z"/>
	<path id="Path_183" class="st16" d="M186.3,100.3c0,0-6.2-1.8-7.2,0c-1,1.8,0.3,5.6,2.2,6.2c1.9,0.6,6.2-2.1,6.2-2.1L186.3,100.3z"
		/>
	<path id="Path_184" class="st9" d="M193.4,97.3l-2.6,2.4c-1.9,0.2-3.9,0.2-5.8,0.1c0,0,1.2,8-0.5,8.9l10.4-2.1L193.4,97.3z"/>
	<path id="Path_185" class="st6" d="M193.4,97.3l-2.6,2.4c-1.9,0.2-3.9,0.2-5.8,0.1c0,0,1.2,8-0.5,8.9l10.4-2.1L193.4,97.3z"/>
	<path id="Path_186" class="st6" d="M160.3,63.2c0,4.3-3.5,7.7-7.7,7.7l0,0c-4-1.9-7.7-3.5-7.7-7.7c-0.2-4.3,3.2-7.9,7.4-8
		c4.3-0.2,7.9,3.2,8,7.4C160.3,62.7,160.3,62.9,160.3,63.2L160.3,63.2z"/>
	<path id="Path_187" class="st12" d="M160.3,62.9c0,4.3-3.5,7.7-7.7,7.7c-4.3,0-7.7-3.5-7.7-7.7c0-4.3,3.5-7.7,7.7-7.7
		c2.3,0,4.5,1,6,2.8C159.7,59.4,160.3,61.2,160.3,62.9z"/>
	<path id="Path_188" class="st3" d="M165.8,108.9c-0.2,0.9-3.4,2.2-3.4,2.2s-3.9-0.6-4.5,0.1c-0.6,0.7-5.6,0.9-5.6,0.9
		s-7.6-0.4-8.8-1.3c-1.1-0.7-2.4-1.2-3.7-1.5c0,0-1.3-9.2-0.8-11.2c0.5-2-0.8-7.5-1.1-9.5c-0.3-2,0.9-7.4,2.3-8.3
		c1.4-0.9,3.5-3.8,4.7-4.7c1-0.7,2.2-1.7,2.5-2l0.1-0.1c0.1-0.9,0.5-1.7,1-2.4c0.8-0.8,8.4,5.2,8.4,5.2s0.1,0.5,0.6-0.4
		c0.1-0.2,1.1,1.2,1.3,1.9c0,0,4.1,7.2,4.4,8.7c0.3,1.5,1.3,6.3,1.5,7.5c0.1,0.3,0.1,1.4,0.2,2.8c0,0.3,0,0.6,0.1,0.9
		c0.2,2.4,0.3,5.4,0.4,7.7c0,0.3,0,0.5,0,0.8C165.8,107.2,165.8,108.1,165.8,108.9z"/>
	<path id="Path_189" class="st6" d="M139.6,90.3c0,0,2.8,3.5,3.8,3.5S139.6,90.3,139.6,90.3z"/>
	<path id="Path_190" class="st6" d="M145.6,97.7c0,0-4.6,5.1-4,6S145.6,97.7,145.6,97.7z"/>
	<path id="Path_191" class="st6" d="M142.2,107.8c0,0,5.3-5.8,5.6-7.8L142.2,107.8z"/>
	<path id="Path_192" class="st6" d="M148.9,108.2c0,0,6.1-3.3,6.7-5.8C156,99.8,148.9,108.2,148.9,108.2z"/>
	<path id="Path_193" class="st6" d="M156.7,76.8l-0.9,2.1l1.4,0.7l1.4,3.9c0,0,3.8,7.7,3.7,11.7c0,3.4,0.2,6.7,0.7,10l2.2-0.4
		l-1-11.8c-0.2-1.8-0.6-3.6-1.3-5.3c-1.8-4.1-5.1-11.6-5.3-11.6c-0.3,0-0.1,0.1-0.1,0.1L156.7,76.8z"/>
	<path id="Path_194" class="st5" d="M156.9,76.6l-0.9,2.1l1.4,0.7l1.4,3.9c0,0,3.8,7.7,3.7,11.7c0,3.4,0.2,6.7,0.7,10l2.2-0.4
		l-1-11.8c-0.2-1.8-0.6-3.6-1.3-5.3c-1.8-4.1-5.1-11.6-5.3-11.6c-0.3,0-0.1,0.1-0.1,0.1L156.9,76.6z"/>
	<path id="Path_195" class="st12" d="M182,107c-1.6-0.4-3.2-1.1-4.7-1.9l-0.4-0.2l0.1-4c0.3-0.1,0.5-0.3,0.8-0.4
		c1.4-0.6,4.2-1.4,5.6,1.2C185.2,105.1,183.3,107.1,182,107z"/>
	<path id="Path_196" class="st6" d="M158.6,58c-0.1,0.1-0.2,0.1-0.4,0.1c-0.9,0.2-1.9-0.6-2.7-0.1c-0.4,0.4-0.7,0.9-0.6,1.5
		c-0.1,1-0.2,1.9-0.3,2.9c0,0.3-0.1,0.7-0.2,1c-0.5,0.8-1.4,1.3-2.4,1.3c-0.4,0-0.7-0.1-1-0.3c-0.2-0.2-0.3-0.4-0.4-0.6
		c-1.2-1-1.6,1.5-1.3,2.2c0.5,1.2,2.3,2.3,1.6,3.7c-0.1,0.2-0.3,0.4-0.6,0.6c-4.1-1.3-6.4-5.6-5.1-9.7s5.6-6.4,9.7-5.1
		C156.3,56,157.6,56.9,158.6,58L158.6,58z"/>
	<path id="Path_197" class="st11" d="M150.3,63.8c0.2,0.2,0.3,0.4,0.4,0.6c0.3,0.2,0.7,0.4,1,0.3c1,0.1,1.9-0.4,2.4-1.3
		c0.1-0.3,0.2-0.7,0.2-1l0.3-2.9c0-0.6,0.2-1.1,0.6-1.5c0.8-0.5,1.8,0.3,2.7,0.1c0.7-0.2,1.1-0.8,1-1.5c-0.2-0.4-0.4-0.9-0.6-1.3
		c-0.1-0.3-0.2-0.7-0.3-1c-0.7-1.9-2.6-3-4.6-2.6c-1.1,0.2-2.1,0.7-3.1,0.8c-0.8,0.1-1.5,0-2.3,0.1c-0.7,0.1-1.4,0.3-2.1,0.6
		c-0.2,0.1-0.3,0.2-0.4,0.3c-0.1,0.2-0.2,0.4-0.2,0.6c-0.4,0.9-1,1.8-1.7,2.5c-0.7,0.9-1.1,2.1-1.1,3.2c0,0.3,0,0.6,0.1,0.9
		c0.1,0.2,0.1,0.3,0.2,0.5c0,0.5-0.1,1.1-0.3,1.6c-0.2,0.7-0.1,1.4,0.2,2c0.9,2.1,4,2.9,4.6,5.1c0.6,0.3,1.2,0.4,1.8,0.5
		c0.6,0,1.2-0.3,1.6-0.8c0.8-1.5-1.1-2.6-1.6-3.7C148.7,65.3,149.1,62.8,150.3,63.8z"/>
	<path id="Path_198" class="st6" d="M211.5,68.3c-0.4,1.1-0.6,2.3-0.5,3.4c-0.4,0.3-0.8-0.6-1.2-0.4c-1.2,0.7-2.5,2.3-4,2.3
		c-1.3,0-2.5-0.3-3.6-0.9c-0.4-1.4-0.8-2.7-1.5-3.9C200.7,68.9,213.1,63.6,211.5,68.3z"/>
	<path id="Path_199" class="st16" d="M213.8,65.3c0,4.4-3.6,8-8.1,8s-8-3.6-8-8.1c0-4.4,3.6-8,8-8C210.2,57.2,213.8,60.8,213.8,65.3
		z"/>
	<path id="Path_200" class="st17" d="M213.5,78.5c0,0-1.5,1.7-1.7,1.8c-0.2,0.1-4.6,18.6-4.7,18.9s-5.2,16.9-5.2,16.9l-8.3,4.1
		l0.7-20.4l6-16.9c0,0,2-2.3,2.6-3.1c0.6-0.8,8.3-5.8,8.3-5.8l1.3,2.7L213.5,78.5z"/>
	<path id="Path_201" class="st6" d="M212.4,77.1l-9.5,6.8l-0.2-3.7c0.6-0.8,8.3-5.8,8.3-5.8L212.4,77.1z"/>
	<path id="Path_202" class="st17" d="M212.6,76.6l-9.5,6.8l-0.1-3.7c0.6-0.8,8.3-5.8,8.3-5.8L212.6,76.6z"/>
	<path id="Path_203" class="st9" d="M202.6,78l0.3,1.7l-2.1,2.2l1.7-3.8c0,0-3.6,2.5-4.7,3.2c-1.1,0.9-1.9,2.2-2.2,3.6
		c0,0.6-1.8,10-1.8,10s-1.3,3.5-0.9,4.4c0.4,1-2,31.9-2,31.9c0.6-1.2,1.8-2.1,3.1-2.4l-0.8-18.3c0,0,1-12.2,1.1-12.3l2.3-7.2
		L202.6,78z"/>
	<path id="Path_204" class="st6" d="M203.2,79.9l-0.2,3.4c0,0-2.3,7.3-3.1,8.4c-0.8,1.2-3.1,8.3-3.1,8.3l-1.3,12.3l-2.3,1l-1.1-2.1
		l1.9-11.9c0,0,3.5-10,4-11l2.6-5.5L203.2,79.9z"/>
	<path id="Path_205" class="st18" d="M203,79.7l-0.2,3.4c0,0-2.3,7.3-3.1,8.4s-3.1,8.3-3.1,8.3l-1.3,12.3l-2.3,1l-1.1-2.1l1.9-11.9
		c0,0,3.5-10,4-11l2.6-5.4L203,79.7z"/>
	<path id="Path_206" class="st16" d="M176.2,105.6l4.4,3.1c0,0,3.1-1.8,1.3-2.9c-1.2-0.8-2.6-1.2-4-1.3
		C177.3,104.5,176.2,105.6,176.2,105.6z"/>
	<path id="Path_207" class="st16" d="M179.5,99.9c-0.2,0.1-0.3,0.3-0.3,0.6c0,0.9,0.1,3.4,0.9,2.3c1-1.4,0.8-2.6,2.3-1.7
		c0.9,0.6,1.7,1.3,2.4,2.2l-0.4-3C184.3,100.3,181.3,98.8,179.5,99.9z"/>
	<path id="Path_208" class="st6" d="M213.9,136c-0.3,0.7-0.5,1.4-0.6,2.1c-5.4,1.6-11.2,0.4-15.7-3c-0.8-2.7-1.5-5.5-2-8.3
		c-0.2-1.7-0.1-3.4,0-5.1l16.2-2.8C211.9,119,214.9,134.4,213.9,136z"/>
	<path id="Path_209" class="st9" d="M223.2,89.8c-0.3,1.3-0.3,2.7-0.3,4.1l-3.7,17.6c0,0-1.8,13.5-2.1,15.3
		c-0.3,1.8-0.8,9.8-0.8,9.8c-6,3-13.3,2.3-18.6-1.9c-0.8-2.7-1.5-5.5-2-8.3c-0.5-3.1,1-15.3,1.7-20.8c0.2-1.6,0.4-2.6,0.4-2.6
		l2.7-10.1c0,0,3.3-8.5,4.6-11c1.2-2.5,6.2-8,6.2-8c0.6-0.4,1.6,1,2.3,2.3c0.6,1,1,1.8,1,1.8s6.2,2.7,7.1,4.1
		c0.9,1.4,0.8,4.4,0.9,4.5C223.1,87.6,223.4,88.7,223.2,89.8z"/>
	<path id="Path_210" class="st6" d="M208.6,83.6c0,0,0.5,2.7-0.7,3.6c-1.1,0.8-9.7,17.6-10.2,18.7c0.2-1.6,0.4-2.6,0.4-2.6l2.7-10.1
		c0,0,3.3-8.5,4.6-11s6.2-8,6.2-8c0.6-0.4,1.6,1,2.3,2.3C212.7,78.7,210.4,83,208.6,83.6z"/>
	<path id="Path_211" class="st9" d="M208.4,83.4c0,0,0.5,2.7-0.7,3.6s-9.7,17.6-10.2,18.7c0.2-1.6,0.4-2.6,0.4-2.6l2.7-10.1
		c0,0,3.3-8.5,4.6-11c1.2-2.5,6.2-8,6.2-8c0.6-0.4,1.6,1,2.3,2.3C212.5,78.5,210.2,82.8,208.4,83.4z"/>
	<path id="Path_212" class="st5" d="M220.7,108.1l-2.9,15.2l0,0l-0.3,1.5l0,0l-0.6,3.3l-2.7-0.6l-1.2-0.3l-17.2-3.7l-1.3-0.3
		l-2.9-0.6l0.6-3.8l0.2-1.6l2.1-13.9L220.7,108.1z"/>
	<path id="Path_213" class="st16" d="M204.6,120.5c0,0-6.9,2.5-5.4,5.4c1.5,2.9,11.1-2.3,11.1-2.3L204.6,120.5z"/>
	<path id="Path_214" class="st6" d="M209.5,141.6c0,0.2,0.3,2.8,1.3,3.8C211.8,146.3,209.5,141.6,209.5,141.6z"/>
	<path id="Path_215" class="st6" d="M202.6,151c0,0,1.2,3.4,6.1,4.8C213.6,157.2,202.6,151,202.6,151z"/>
	<path id="Path_216" class="st6" d="M213.8,65.3c0,2.9-1.5,5.5-4,7c-0.5-0.3-0.9-0.6-1.2-1c-0.4-0.4-0.6-1-0.4-1.5
		c0.2-0.4,0.6-0.7,0.7-1.1c0.1-0.3,0-0.5,0-0.8c-0.1-0.4-0.2-0.8-0.3-1.2c-0.1-0.3-0.2-0.7-0.5-0.8c-0.3-0.1-0.6,0.2-0.9,0.4
		c-0.8,0.6-1.8,0.8-2.7,0.4c-0.8-0.4-0.6-1.8-0.7-2.6c0-0.1-0.1-0.3-0.2-0.3c-0.1,0-0.2,0-0.4,0c-0.4,0-0.8-0.4-0.9-0.8
		c-0.1-0.4-0.1-0.8-0.1-1.2c0-0.4-0.2-0.8-0.6-1.1c-0.3-0.1-0.6-0.2-0.9-0.1l-1.5,0c2.6-3.6,7.7-4.3,11.3-1.7
		C212.6,60.3,213.8,62.7,213.8,65.3L213.8,65.3z"/>
	<path id="Path_217" class="st18" d="M207.4,66.2c0.3-0.2,0.6-0.5,0.9-0.4c0.3,0.1,0.5,0.5,0.5,0.8l0.3,1.2c0.1,0.3,0.1,0.5,0,0.8
		c-0.1,0.4-0.6,0.7-0.7,1.1c-0.1,0.5,0,1.1,0.4,1.5c0.6,0.8,1.5,1.3,2.5,1.5c0.3,0.1,0.5,0.1,0.8,0c0.6-0.2,1-0.6,1.3-1.2
		c1.7-2.4,2.8-5.2,3.3-8.2c0.1-0.6,0-1.2-0.1-1.8c-0.1-0.5-0.3-0.9-0.6-1.3c-0.4-0.9-0.9-1.6-1.6-2.4c-1.2-1.2-2.6-2-4.2-2.3
		c-1.8-0.5-3.6-0.6-5.4-0.4c-0.5,0.1-0.9,0.1-1.4,0.2c-0.6,0-1.2,0-1.8,0l-3.6-0.2c-0.1,0.4-0.1,0.9,0.2,1.3
		c0.3,0.4,0.5,0.8,0.5,1.2c-0.1,0.4-0.3,0.9-0.6,1.2c-0.3,0.3-0.4,0.8-0.2,1.3c0.3,0.3,0.8,0.5,1.2,0.4l1.8,0c0.3,0,0.6,0,0.9,0.2
		c0.3,0.3,0.5,0.7,0.6,1.1c0,0.4,0.1,0.8,0.1,1.2c0.1,0.4,0.4,0.7,0.9,0.8c0.1,0,0.2,0,0.4,0c0.1,0.1,0.2,0.2,0.2,0.3
		c0.1,0.8-0.1,2.2,0.7,2.6C205.6,67,206.6,66.8,207.4,66.2z"/>
	<path id="Path_218" class="st6" d="M217.6,82.1c-1.8-0.2-3.6,0.9-4.1,2.7c-1,2.8-2.6,7.7-2.2,9.7c0.6,2.8,1.2,7.4,1.2,7.4
		s2.9,1.7,1.5,3.4c-1,1.2-1.6,2.6-1.9,4.1c-1.1,0.5-1.9,1.4-2.3,2.6c-0.4,1.8-3.2,4.2-3.2,4.2l-4.2,4.2c0,0,6.9,7,8.3,7.4l4.3-5
		l5.1-6.7l4.4-4.6c0,0,1-2.4,0.5-7c-0.4-3.1-1.3-6.1-2.5-9l0.2-1.5C222.5,93.9,223,82.8,217.6,82.1z"/>
	<path id="Path_219" class="st9" d="M218,82.1c-1.8-0.2-3.6,0.9-4.1,2.7c-1,2.8-2.6,7.7-2.2,9.7c0.6,2.8,1.2,7.4,1.2,7.4
		s2.9,1.7,1.5,3.4c-1,1.2-1.6,2.6-1.9,4.1c-1.1,0.5-1.9,1.4-2.3,2.6c-0.4,1.8-3.2,4.2-3.2,4.2l-4.2,4.2c0,0,6.9,7,8.3,7.4l4.3-5
		l5-6.7l4.4-4.6c0,0,1-2.4,0.5-7c-0.4-3.1-1.3-6.1-2.5-9l0.2-1.5C222.9,93.9,223.4,82.8,218,82.1z"/>
	<path id="Path_220" class="st6" d="M213.7,97.8c0,0,4.4,5.4,6.2,4.2C221.8,100.8,213.7,97.8,213.7,97.8z"/>
	<path id="Path_221" class="st6" d="M215.3,93.7c0.5,0.2,4.3,5.5,6.2,4.8S215.3,93.7,215.3,93.7z"/>
	<path id="Path_222" class="st6" d="M216.4,102.8c0.1,1.6,1.5,2.8,3.1,2.7c0.1,0,0.2,0,0.3,0C223,105.1,216.4,102.8,216.4,102.8z"/>
	<path id="Path_223" class="st6" d="M202.5,78.3l-1.7,3.8l2.1-2.2L202.5,78.3z"/>
	<path id="Path_224" class="st17" d="M202.5,78.1l-1.7,3.8l2.1-2.2L202.5,78.1z"/>
	<path id="Path_225" class="st19" d="M195.7,123.5l-1.3-0.3l-2.3-4.4l0.2-1.6L195.7,123.5z"/>
	<path id="Path_226" class="st19" d="M217.7,123.3l-0.3,1.5l0,0l-3.3,2.7l-1.2-0.3L217.7,123.3z"/>
	<path id="Path_227" class="st6" d="M165.8,106.3c-0.6,0.1-1.3,0.2-1.8,0.3c-3.1,0.4-10.6-3.3-10.6-3.3s-9.1-7.6-11.8-14.9
		c-2.6-7.2,3.1-8.3,3.1-8.3c2.2-1.2,6.9,2.2,7.6,2.8c0.8,0.8,1.2,1.8,1.2,2.9c-0.1,0.9,1.5,2.1,1.5,2.1s2.7,4.7,3.4,5.3
		c0.6,0.5,1,1.1,1,1.9c0.2,0.9,2,1.6,2.8,1.5c0.8-0.1,1.7,0.3,1.7,0.7c0,0.3,0.8,0.5,1.4,0.5C165.5,100.5,165.7,104,165.8,106.3z"/>
	<path id="Path_228" class="st6" d="M165.7,105.6c-0.5,0.1-0.9,0.1-1.4,0.2c-3.1,0.4-10.6-3.3-10.6-3.3s-9.1-7.6-11.8-14.9
		c-2.6-7.2,3.1-8.3,3.1-8.3c2.2-1.2,6.9,2.2,7.6,2.8c0.8,0.8,1.2,1.8,1.2,2.9c-0.1,0.9,1.5,2.1,1.5,2.1s2.7,4.7,3.4,5.3
		c0.6,0.5,1,1.1,1,1.9c0.2,0.9,2,1.6,2.8,1.5c0.8-0.1,1.7,0.3,1.7,0.7c0,0.2,0.4,0.4,0.9,0.5c0,0.3,0,0.6,0.1,0.9
		C165.5,100.3,165.6,103.3,165.7,105.6z"/>
	<path id="Path_229" class="st6" d="M177.7,100.4l-0.2,4.6h-0.2l-0.4-0.2l0.1-4C177.2,100.6,177.4,100.5,177.7,100.4z"/>
	<path id="Path_230" class="st3" d="M144.7,79.7c0,0-5.8,1.1-3.1,8.3c2.6,7.2,11.8,14.9,11.8,14.9s7.5,3.7,10.6,3.3s7.9-1.5,8.6-1.3
		c0.6,0.2,4.8,0.2,4.8,0.2l0.2-4.8l-4.8-0.3l-2.5-0.5c0,0-0.9-0.7-1.4-0.6s-1.6-0.6-1.6-0.6c-0.4-0.3-0.9-0.6-1.5-0.7
		c-0.6,0-1.8-0.2-1.8-0.6c0-0.4-0.9-0.7-1.7-0.7c-0.8,0.1-2.6-0.7-2.8-1.6c-0.1-0.7-0.4-1.4-1-1.9c-0.7-0.5-3.4-5.3-3.4-5.3
		s-1.6-1.2-1.5-2.1c0-1.1-0.4-2.1-1.2-2.9C151.6,81.9,146.9,78.5,144.7,79.7z"/>
	<path id="Path_231" class="st6" d="M159.5,96.3c0,0-2.2,2.2-1.7,2.6L159.5,96.3z"/>
	<path id="Path_232" class="st6" d="M161.9,98.1c0,0-2.9,2.2-2.1,2.4C160.6,100.6,161.9,98.1,161.9,98.1z"/>
	<path id="Path_233" class="st6" d="M157,101.4c0.4,0.2,6.5,3.9,8.9,3.8L157,101.4z"/>
	<path id="Path_234" class="st6" d="M157.4,76.9c0,0-1.1,3.6-1.5,3.6c-0.3,0-5.8-4.4-8-6.3l0.1-0.1c0.1-0.9,0.5-1.7,1-2.4
		C149.9,70.9,157.4,76.9,157.4,76.9z"/>
	<path id="Path_235" class="st3" d="M157.2,76.5c0,0-1.1,3.6-1.5,3.6c-0.3,0-5.8-4.4-8-6.3l0.1-0.1c0.1-0.9,0.5-1.7,1-2.4
		C149.6,70.4,157.2,76.5,157.2,76.5z"/>
	<g id="Group_246" transform="translate(142.619 53.003)" class="st20">
		<path id="Path_236" d="M0,12L0,12c0.7,1.7,2.7,2.5,3.9,3.8C3.2,14.1,1.2,13.3,0,12z"/>
		<path id="Path_237" d="M7.4,15.8c-0.3,0.5-0.9,0.9-1.6,0.8c-0.6,0-1.1-0.2-1.6-0.4c0.2,0.3,0.3,0.6,0.4,0.9
			c0.6,0.3,1.2,0.4,1.8,0.5c0.6,0,1.2-0.3,1.6-0.8c0.5-0.9,0-1.6-0.6-2.4C7.6,14.8,7.6,15.3,7.4,15.8z"/>
		<path id="Path_238" d="M16.4,3.6c-0.2-0.4-0.4-0.9-0.6-1.3c-0.1-0.3-0.2-0.7-0.3-1c-0.1-0.5-0.4-1-0.7-1.3c0,0.1,0.1,0.2,0.1,0.4
			c0.1,0.4,0.2,0.7,0.3,1c0.2,0.4,0.5,0.8,0.6,1.3c0.1,0.7-0.3,1.3-1,1.5c-0.9,0.2-1.9-0.6-2.7-0.1c-0.4,0.4-0.7,0.9-0.6,1.5
			c-0.1,1-0.2,1.9-0.3,2.9c0,0.3-0.1,0.7-0.2,1c-0.5,0.8-1.4,1.3-2.4,1.3c-0.4,0-0.7-0.1-1-0.3C7.4,10.2,7.2,10,7.1,9.9
			c-1.2-1-1.6,1.5-1.3,2.2c0.2,0.3,0.4,0.6,0.6,0.9c-0.3-0.8,0.1-3.1,1.3-2.1C7.9,11,8,11.2,8.1,11.4c0.3,0.2,0.7,0.4,1,0.3
			c1,0.1,1.9-0.4,2.4-1.3c0.1-0.3,0.2-0.7,0.2-1c0.1-1,0.2-1.9,0.3-2.9c0-0.6,0.2-1.1,0.6-1.5c0.8-0.5,1.8,0.3,2.7,0.1
			C16.1,5,16.5,4.3,16.4,3.6z"/>
	</g>
	<path id="Path_239" class="st6" d="M212.6,72.1c-0.3,0-0.5,0-0.8,0c-1-0.2-1.9-0.7-2.5-1.5c-0.4-0.4-0.6-1-0.4-1.5
		c0.2-0.4,0.6-0.7,0.7-1.1c0.1-0.3,0-0.5,0-0.8l-0.3-1.2c-0.1-0.3-0.2-0.7-0.5-0.8c-0.3-0.1-0.6,0.2-0.9,0.4
		c-0.7,0.6-1.8,0.8-2.7,0.4c-0.8-0.4-0.6-1.8-0.7-2.6c0-0.1-0.1-0.3-0.2-0.3c-0.1,0-0.2,0-0.4,0c-0.4,0-0.8-0.4-0.9-0.8
		c-0.1-0.4-0.1-0.8-0.1-1.2c0-0.4-0.2-0.8-0.6-1.1c-0.3-0.1-0.6-0.2-0.9-0.2l-1.8,0c-0.4,0-1,0-1.2-0.4c-0.2-0.4-0.1-0.9,0.2-1.3
		c0.3-0.3,0.5-0.8,0.6-1.2c0-0.5-0.2-0.9-0.5-1.2c-0.1-0.2-0.2-0.4-0.3-0.7l-0.5,0c-0.1,0.4,0,0.9,0.2,1.3c0.3,0.4,0.5,0.8,0.5,1.2
		c-0.1,0.4-0.3,0.9-0.6,1.2c-0.3,0.3-0.4,0.8-0.2,1.3c0.3,0.3,0.8,0.5,1.2,0.4l1.8,0c0.3,0,0.6,0,0.9,0.2c0.3,0.3,0.5,0.7,0.6,1.1
		c0,0.4,0.1,0.8,0.1,1.2c0.1,0.4,0.4,0.7,0.9,0.8c0.1,0,0.2,0,0.4,0c0.1,0.1,0.2,0.2,0.2,0.3c0.1,0.8-0.1,2.2,0.7,2.6
		c0.9,0.3,1.9,0.2,2.7-0.4c0.3-0.2,0.6-0.5,0.9-0.4c0.3,0.1,0.5,0.5,0.5,0.8l0.3,1.2c0.1,0.3,0.1,0.5,0,0.8
		c-0.1,0.4-0.6,0.7-0.7,1.1c-0.1,0.5,0,1.1,0.4,1.5c0.6,0.8,1.5,1.3,2.5,1.5c0.3,0.1,0.5,0.1,0.8,0c0.4-0.1,0.8-0.4,1-0.8
		C212.9,72,212.7,72.1,212.6,72.1z"/>
	<ellipse id="Ellipse_18" class="st21" cx="241.9" cy="180.5" rx="5.8" ry="0.9"/>
	<ellipse id="Ellipse_19" class="st0" cx="97.5" cy="175.5" rx="16.9" ry="2.6"/>
	<path id="Path_240" class="st3" d="M237.3,171.9c0,0-0.8,3.9,2.9,4.3l0.2-0.4C240.4,175.8,237.5,173.1,237.3,171.9z"/>
	<path id="Path_241" class="st3" d="M241.6,175.7l-0.9,0.2l-0.1,0c0,0-2.3-1.9-2.3-6c0.3,0.6,0.7,1.2,1.1,1.7
		C240.5,172.9,241.2,174.3,241.6,175.7z"/>
	<path id="Path_242" class="st3" d="M241.9,176.1c-0.1,0.1-0.3,0.1-0.5,0.1c-2.2-0.5-1.5-7.7-1.5-7.7c0.1,0.1,0.2,1,0.8,2.1
		C241.6,172.7,242.6,175.6,241.9,176.1z"/>
	<path id="Path_243" class="st3" d="M246.7,171.9c0,0,0.1,3.9-3.5,4.3l-0.2-0.4C243,175.8,246.5,173.1,246.7,171.9z"/>
	<path id="Path_244" class="st3" d="M245.7,170c0.1,2.4-1,4.6-2.9,6l-0.1,0l-0.9-0.2c0.4-1.5,1.1-2.9,2.1-4.1
		C244.4,171,245,170.5,245.7,170z"/>
	<path id="Path_245" class="st3" d="M242.6,175.8c-0.1,0.2-0.3,0.3-0.5,0.4l0,0c-0.1,0-0.1,0-0.2,0.1c-0.5,0.1-0.7-0.3-0.7-0.9
		c0.3-1.6,0.7-3.3,1.5-4.8c0.3-0.8,0.8-1.4,1.4-2C244.1,168.5,244.1,174.1,242.6,175.8z"/>
	<path id="Path_246" class="st3" d="M242,166c0,0-2.5,8.7-0.3,10C243.8,177.3,242.6,166.8,242,166z"/>
	<path id="Path_247" class="st6" d="M237.3,171.9c0,0-0.8,3.9,2.9,4.3l0.2-0.4C240.4,175.8,237.5,173.1,237.3,171.9z"/>
	<path id="Path_248" class="st6" d="M241.6,175.7l-0.9,0.2l-0.1,0c0,0-2.3-1.9-2.3-6c0.3,0.6,0.7,1.2,1.1,1.7
		C240.5,172.9,241.2,174.3,241.6,175.7z"/>
	<path id="Path_249" class="st6" d="M241.9,176.1c-0.1,0.1-0.3,0.1-0.5,0.1c-2.2-0.5-1.5-7.7-1.5-7.7c0.1,0.1,0.2,1,0.8,2.1
		C241.6,172.7,242.6,175.6,241.9,176.1z"/>
	<path id="Path_250" class="st6" d="M246.7,171.9c0,0,0.1,3.9-3.5,4.3l-0.2-0.4C243,175.8,246.5,173.1,246.7,171.9z"/>
	<path id="Path_251" class="st6" d="M245.7,170c0.1,2.4-1,4.6-2.9,6l-0.1,0l-0.9-0.2c0.4-1.5,1.1-2.9,2.1-4.1
		C244.4,171,245,170.5,245.7,170z"/>
	<path id="Path_252" class="st6" d="M242.6,175.8c-0.1,0.2-0.3,0.3-0.5,0.4l0,0c-0.1,0-0.1,0-0.2,0.1c-0.5,0.1-0.7-0.3-0.7-0.9
		c0.3-1.6,0.7-3.3,1.5-4.8c0.3-0.8,0.8-1.4,1.4-2C244.1,168.5,244.1,174.1,242.6,175.8z"/>
	<path id="Path_253" class="st6" d="M242,166c0,0-2.5,8.7-0.3,10C243.8,177.3,242.6,166.8,242,166z"/>
	<path id="Path_254" class="st3" d="M237.3,171.9c0,0-0.5,3.9,3.2,4.3l0.2-0.4C240.7,175.8,237.5,173.1,237.3,171.9z"/>
	<path id="Path_255" class="st3" d="M241.9,175.7l-0.9,0.2l-0.1,0c-1.8-1.5-2.7-3.7-2.6-6c0,0,0.7,0.7,1.4,1.7
		C240.8,172.9,241.5,174.3,241.9,175.7z"/>
	<path id="Path_256" class="st6" d="M241.9,175.7l-0.9,0.2c-0.8-0.7-1.1-2.6-1.2-4.2C240.8,172.9,241.5,174.3,241.9,175.7z"/>
	<path id="Path_257" class="st3" d="M242.2,176.1c-0.1,0.1-0.3,0.1-0.5,0.1c-2.2-0.5-1.8-7.7-1.8-7.7c0.5,0.7,0.8,1.4,1.1,2.1
		C241.9,172.7,242.9,175.6,242.2,176.1z"/>
	<path id="Path_258" class="st3" d="M246.7,171.9c0,0,0.5,3.9-3.2,4.3l-0.2-0.4C243.3,175.8,246.5,173.1,246.7,171.9z"/>
	<path id="Path_259" class="st3" d="M245.7,170c0.1,2.3-0.8,4.5-2.6,6l-0.1,0l-0.9-0.2c0.4-1.5,1.1-2.9,2.1-4.1
		C245,170.7,245.7,170,245.7,170z"/>
	<path id="Path_260" class="st6" d="M244.2,171.7c-0.1,1.6-0.4,3.3-1.1,4.1c0,0.1-0.1,0.1-0.2,0.2l-0.9-0.2
		C242.5,174.3,243.2,172.9,244.2,171.7z"/>
	<path id="Path_261" class="st3" d="M243,175.8c-0.1,0.2-0.3,0.3-0.5,0.4l0,0c-0.1,0-0.1,0-0.2,0.1c-0.5,0.1-0.7-0.3-0.7-0.9
		c0.3-1.6,0.7-3.3,1.5-4.8c0.3-0.7,0.6-1.4,1-2C244.1,168.5,244.4,174.1,243,175.8z"/>
	<path id="Path_262" class="st6" d="M242.2,176.1c-0.1,0-0.2,0-0.3-0.1c-1-0.6-1.1-3.1-0.8-5.4C241.9,172.7,242.9,175.6,242.2,176.1
		z"/>
	<path id="Path_263" class="st6" d="M243,175.8c-0.1,0.3-0.3,0.4-0.5,0.4l0,0c-0.1,0-0.2-0.1-0.3-0.1c-0.3-0.2-0.5-0.4-0.6-0.8
		c0.3-1.6,0.7-3.3,1.5-4.8C243.3,172.6,243.4,174.9,243,175.8z"/>
	<path id="Path_264" class="st3" d="M242,166c0,0-2.1,8.7,0,10C244.1,177.3,242.6,166.8,242,166z"/>
	<path id="Path_265" class="st5" d="M246.1,175.6h-8.8v1.5h1.3l0,0.2l0.5,2.8h5.1l0.5-2.8l0-0.2h1.2L246.1,175.6z"/>
	<path id="Path_266" class="st6" d="M246.1,175.6h-8.8v1.5h1.3l0,0.2l0.5,2.8h5.1l0.5-2.8l0-0.2h1.2L246.1,175.6z"/>
	<path id="Path_267" class="st5" d="M245.3,176.5l-0.1,0.8l-0.5,2.8h-5.1l-0.5-2.8l-0.1-0.8H245.3z"/>
	<path id="Path_268" class="st6" d="M245.3,176.5l-0.1,0.8H239l-0.1-0.8H245.3z"/>
	<rect id="Rectangle_127" x="237.6" y="175.6" class="st5" width="8.8" height="1.5"/>
	<path id="Path_269" class="st5" d="M105.9,149.3c-0.2,0.3-0.4,0.7-0.6,1c0,0.1-0.1,0.2-0.1,0.3c-0.1,0-0.1-0.1-0.2-0.1
		c-0.3-0.1-0.6-0.1-0.9-0.1c0-0.1,0-0.2,0-0.4c0-1.3-0.1-3.1-1.3-2.3c-1.2,0.7-0.3,1.9,0.4,2.7c0.1,0.1,0.1,0.1,0.2,0.2
		c-0.7,0.5-0.8,1.6-0.9,2.8c-0.3,1.2-0.9,2.3-1.8,3.2c-0.1,0.1-0.1,0.1-0.2,0.2c-0.5-0.4-1.3-0.6-1.9-0.5c0-0.1-0.1-0.2-0.1-0.3
		c-0.5-2-1.7-5.4-3.1-6.1l0.2-0.2c0.6-0.8,1.3-2,0.3-2.3c-1-0.3-1.1,1-1,2c0,0.1,0,0.2,0,0.4c-0.4,0-0.8,0.2-1.1,0.5l-0.2-0.2
		c-0.8-1-2.3-2.5-2.8-1.3c-0.4,1.1,0.9,2.5,1.8,3.3l0.1,0.1c-0.6,2.5,2.1,4.6,3.6,5.5l0.2,0.1c-2,2.4-3.3,6.9-3.3,6.9l5.7,1
		c0,0,3.8-3.3,3.3-6.3h0c3.8-0.8,4.6-4.8,4-7.2l0.1,0c0.7-0.3,1.3-0.7,1.7-1.3c0.5-0.6,0.3-1.5-0.3-2
		C107.2,148.5,106.3,148.7,105.9,149.3z"/>
	<path id="Path_270" class="st6" d="M105.9,149.3c-0.2,0.3-0.4,0.7-0.6,1c0,0.1-0.1,0.2-0.1,0.3c-0.1,0-0.1-0.1-0.2-0.1
		c-0.3-0.1-0.6-0.1-0.9-0.1c0-0.1,0-0.2,0-0.4c0-1.3-0.1-3.1-1.3-2.3c-1.2,0.7-0.3,1.9,0.4,2.7c0.1,0.1,0.1,0.1,0.2,0.2
		c-0.7,0.5-0.8,1.6-0.9,2.8c-0.3,1.2-0.9,2.3-1.8,3.2c-0.1,0.1-0.1,0.1-0.2,0.2c-0.5-0.4-1.3-0.6-1.9-0.5c0-0.1-0.1-0.2-0.1-0.3
		c-0.5-2-1.7-5.4-3.1-6.1l0.2-0.2c0.6-0.8,1.3-2,0.3-2.3c-1-0.3-1.1,1-1,2c0,0.1,0,0.2,0,0.4c-0.4,0-0.8,0.2-1.1,0.5l-0.2-0.2
		c-0.8-1-2.3-2.5-2.8-1.3c-0.4,1.1,0.9,2.5,1.8,3.3l0.1,0.1c-0.6,2.5,2.1,4.6,3.6,5.5l0.2,0.1c-2,2.4-3.3,6.9-3.3,6.9l5.7,1
		c0,0,3.8-3.3,3.3-6.3h0c3.8-0.8,4.6-4.8,4-7.2l0.1,0c0.7-0.3,1.3-0.7,1.7-1.3c0.5-0.6,0.3-1.5-0.3-2
		C107.2,148.5,106.3,148.7,105.9,149.3z"/>
	<path id="Path_271" class="st5" d="M94.5,150.9l-0.7,1.9c0,0-0.4-0.3-0.8-0.7c-0.9-0.8-2.3-2.2-1.8-3.3c0.5-1.2,2,0.4,2.8,1.3
		C94.3,150.6,94.5,150.9,94.5,150.9z"/>
	<path id="Path_272" class="st5" d="M95.9,149.8c-0.2,0.3-0.4,0.5-0.6,0.8c-0.1-0.3-0.1-0.7-0.1-1c-0.1-1,0.1-2.3,1-2
		C97.2,147.8,96.6,149,95.9,149.8z"/>
	<path id="Path_273" class="st5" d="M104.5,150.1c0,0.6-0.1,1.2-0.1,1.2c-0.3-0.2-0.6-0.5-0.8-0.7c-0.8-0.8-1.6-2-0.4-2.7
		C104.4,147.1,104.6,148.8,104.5,150.1z"/>
	<path id="Path_274" class="st5" d="M108.5,150.9c-0.5,0.6-1.1,1-1.7,1.3c-0.2,0.1-0.4,0.2-0.6,0.2l-0.8-1.1
		c0.1-0.4,0.2-0.7,0.3-1.1c0.1-0.4,0.3-0.7,0.6-1c0.5-0.6,1.4-0.7,2-0.2C108.8,149.5,108.9,150.3,108.5,150.9z"/>
	<path id="Path_275" class="st6" d="M94,150.2c0.3,0.4,0.6,0.7,0.6,0.7l-0.7,1.9c0,0-0.4-0.3-0.8-0.7c0.1-0.6,0.4-1.2,0.7-1.7
		C93.9,150.4,93.9,150.3,94,150.2z"/>
	<path id="Path_276" class="st6" d="M95.9,149.8c-0.2,0.3-0.4,0.5-0.6,0.8c-0.1-0.3-0.1-0.7-0.1-1C95.5,149.5,95.7,149.6,95.9,149.8
		z"/>
	<path id="Path_277" class="st5" d="M99.2,157.5l-1.7,0.7c0,0-0.4-0.2-0.9-0.5c-1.7-1.1-5.2-3.8-2.9-6.9c2.3-3.2,4.3,2.5,5.1,5.3
		C99.1,157,99.2,157.5,99.2,157.5z"/>
	<path id="Path_278" class="st6" d="M103.6,150.5c0.2-0.2,0.6-0.4,0.9-0.4c0,0.6-0.1,1.2-0.1,1.2C104.2,151,103.9,150.8,103.6,150.5
		z"/>
	<path id="Path_279" class="st6" d="M106.7,152.3c-0.2,0.1-0.4,0.2-0.6,0.2l-0.8-1.1c0.1-0.4,0.2-0.7,0.3-1.1
		C106.3,150.8,106.7,151.5,106.7,152.3z"/>
	<path id="Path_280" class="st5" d="M102.6,159.5c-0.1,0-0.2,0-0.3,0.1c-5.5,0.8-1.8-2.2-1.8-2.2s0.2-0.2,0.6-0.6
		c0.9-0.9,1.5-2,1.8-3.2c0.2-1.8,0.4-3.5,2.5-3C107.5,151,107.9,158.4,102.6,159.5z"/>
	<rect id="Rectangle_128" x="91.9" y="173.3" class="st3" width="10.6" height="2.8"/>
	<rect id="Rectangle_129" x="90.2" y="164.2" class="st3" width="13.8" height="9.7"/>
	<rect id="Rectangle_130" x="91.9" y="173.3" class="st6" width="10.6" height="2.8"/>
	<rect id="Rectangle_131" x="90.2" y="164.2" class="st6" width="13.8" height="9.7"/>
	<rect id="Rectangle_132" x="92.6" y="173.3" class="st3" width="10.6" height="2.8"/>
	<path id="Path_281" class="st6" d="M98.9,156.1c0.2,0.8,0.4,1.4,0.4,1.4l-1.7,0.7c0,0-0.4-0.2-0.9-0.5
		C97.2,157,98,156.4,98.9,156.1z"/>
	<path id="Path_282" class="st6" d="M102.6,159.5c-0.1,0-0.2,0-0.3,0.1c-5.5,0.8-1.8-2.2-1.8-2.2s0.2-0.2,0.6-0.6
		C102,157.4,102.5,158.4,102.6,159.5z"/>
	<path id="Path_283" class="st5" d="M93.6,164.8c0,0,3.1-11.1,7.5-7.7c4.4,3.4-1.8,8.7-1.8,8.7L93.6,164.8z"/>
	<ellipse id="Ellipse_20" class="st6" cx="95.2" cy="152.6" rx="0.3" ry="0.3"/>
	<ellipse id="Ellipse_21" class="st6" cx="95.1" cy="154.2" rx="0.3" ry="0.3"/>
	<ellipse id="Ellipse_22" class="st6" cx="105.2" cy="152.9" rx="0.3" ry="0.3"/>
	<ellipse id="Ellipse_23" class="st6" cx="97.1" cy="161.2" rx="0.3" ry="0.3"/>
	<ellipse id="Ellipse_24" class="st6" cx="104.5" cy="155.6" rx="0.3" ry="0.3"/>
	<ellipse id="Ellipse_25" class="st6" cx="100.9" cy="159.2" rx="0.3" ry="0.3"/>
	<ellipse id="Ellipse_26" class="st6" cx="96.3" cy="153.3" rx="0.3" ry="0.3"/>
	<ellipse id="Ellipse_27" class="st6" cx="104.3" cy="153.9" rx="0.3" ry="0.3"/>
	<ellipse id="Ellipse_28" class="st6" cx="103.1" cy="156.6" rx="0.3" ry="0.3"/>
	<ellipse id="Ellipse_29" class="st6" cx="99.4" cy="161" rx="0.3" ry="0.3"/>
	<ellipse id="Ellipse_30" class="st6" cx="98.7" cy="159.3" rx="0.3" ry="0.3"/>
	<ellipse id="Ellipse_31" class="st6" cx="96.9" cy="155.4" rx="0.3" ry="0.3"/>
	<rect id="Rectangle_133" x="92.6" y="173.3" class="st6" width="10.6" height="1"/>
	<rect id="Rectangle_134" x="90.9" y="164.2" class="st3" width="13.8" height="9.7"/>
	<ellipse id="Ellipse_32" class="st6" cx="99.9" cy="162.5" rx="0.3" ry="0.3"/>
	<ellipse id="Ellipse_33" class="st6" cx="97.8" cy="163" rx="0.3" ry="0.3"/>
</g>
</svg>
