<svg xmlns="http://www.w3.org/2000/svg" xmlns:xlink="http://www.w3.org/1999/xlink" width="222.138" height="200" viewBox="0 0 222.138 200">
  <defs>
    <linearGradient id="linear-gradient" x1="-613.822" y1="-1590.499" x2="-613.822" y2="-1587.007" gradientUnits="objectBoundingBox">
      <stop offset="0" stop-color="gray" stop-opacity="0.251"/>
      <stop offset="0.54" stop-color="gray" stop-opacity="0.122"/>
      <stop offset="1" stop-color="gray" stop-opacity="0.102"/>
    </linearGradient>
  </defs>
  <g id="Group_287" data-name="Group 287" transform="translate(-198 -329)">
    <g id="Group_286" data-name="Group 286" transform="translate(198 329)">
      <rect id="Rectangle_76" data-name="Rectangle 76" width="2.942" height="24.243" rx="0.804" transform="translate(162.15 45.369)" fill="#f1d04c"/>
      <rect id="Rectangle_80" data-name="Rectangle 80" width="98.408" height="200" rx="13.696" transform="translate(65.424)" fill="#00a0e3"/>
      <path id="Path_176" data-name="Path 176" d="M471.689,249.288H460.4v1.358a6.434,6.434,0,0,1-6.434,6.434h-35.9a6.435,6.435,0,0,1-6.438-6.431v-1.361H401.055a7.816,7.816,0,0,0-7.815,7.815V431.068a7.816,7.816,0,0,0,7.815,7.815h70.634a7.816,7.816,0,0,0,7.815-7.815V257.117a7.816,7.816,0,0,0-7.8-7.829Z" transform="translate(-321.744 -244.079)" fill="#fff"/>
      <rect id="Rectangle_81" data-name="Rectangle 81" width="13.742" height="2.789" rx="1.359" transform="translate(105.041 5.973)" fill="#e6e8ec"/>
      <circle id="Ellipse_5" data-name="Ellipse 5" cx="1.584" cy="1.584" r="1.584" transform="translate(120.861 5.784)" fill="#e6e8ec"/>
      <path id="Path_222" data-name="Path 222" d="M467.107,365.755a24.881,24.881,0,1,1-24.88-24.881,24.881,24.881,0,0,1,24.88,24.881ZM439.35,378.926l18.456-18.457a1.6,1.6,0,0,0,0-2.268l0,0-2.271-2.254a1.6,1.6,0,0,0-2.263,0l0,0L438.215,371l-7.029-7.045a1.611,1.611,0,0,0-2.272,0l-2.271,2.284a1.61,1.61,0,0,0,0,2.271l10.436,10.431a1.6,1.6,0,0,0,2.268,0l0,0Z" transform="translate(-327.488 -265.9)" fill="#76b82a"/>
      <rect id="Rectangle_77" data-name="Rectangle 77" width="1.483" height="7.174" rx="0.742" transform="translate(67.54 39.429)" fill="#3f3d56"/>
      <rect id="Rectangle_78" data-name="Rectangle 78" width="1.671" height="12.487" rx="0.804" transform="translate(67.486 52.566)" fill="#3f3d56"/>
      <rect id="Rectangle_79" data-name="Rectangle 79" width="1.591" height="12.594" rx="0.795" transform="translate(67.513 69.422)" fill="#3f3d56"/>
      <path id="Path_190" data-name="Path 190" d="M362.134,377.3a.274.274,0,0,0,.325.042A1.145,1.145,0,0,1,362.134,377.3Z" transform="translate(-314.333 -274.58)" fill="url(#linear-gradient)"/>
      <path id="Path_192" data-name="Path 192" d="M372.951,383.62l-.321,1.749-.248,1.338-.45,2.447-4.369,3.058s-.394-.337-1.044-.868a76.119,76.119,0,0,0-8.317-6.088,9.3,9.3,0,0,0-2.286-1.053Z" transform="translate(-312.851 -276.084)" fill="#feb9b9"/>
      <path id="Path_194" data-name="Path 194" d="M368.639,383.823s5.095.874,5.393-1.3-2.623-3.352-5.1-3.5-17.33.874-17.33.874-2.62,3.495,6.843,4.08Z" transform="translate(-311.745 -274.986)" fill="#00a0e3"/>
      <rect id="Rectangle_82" data-name="Rectangle 82" width="26.65" height="31.602" transform="translate(41.384 37.044)" fill="#2f2e41"/>
      <rect id="Rectangle_83" data-name="Rectangle 83" width="26.65" height="31.602" transform="translate(41.384 37.188)" opacity="0.1" style="isolation: isolate"/>
      <path id="Path_198" data-name="Path 198" d="M309.532,361.277a4.278,4.278,0,0,0-1.623,1.149c-2.686,2.659-6.533,8.9-6.533,8.9-4.918-5.859.525-10.487,2.844-12.077.564-.385.943-.6.943-.6Z" transform="translate(-299.382 -270.135)" fill="#feb9b9"/>
      <path id="Path_199" data-name="Path 199" d="M373.477,304.174s1.311,9.174,5.826,11.358-5.826,6.268-5.826,6.268l-14.125-5.247s8.01-2.622,6.408-10.341Z" transform="translate(-313.67 -257.156)" fill="#feb9b9"/>
      <path id="Path_200" data-name="Path 200" d="M352.679,376.63l-.319,1.743-.26,1.343-.45,2.447-4.369,3.056s-.394-.334-1.044-.865a75.732,75.732,0,0,0-8.321-6.088,9.244,9.244,0,0,0-2.287-1.054Z" transform="translate(-308.018 -274.419)" fill="#feb9b9"/>
      <path id="Path_202" data-name="Path 202" d="M347.777,377.681s4.572.032,4.847-2.15-2.492-3.351-4.847-3.5-16.667.943-16.667.943-2.031,4.12,6.971,4.7Z" transform="translate(-306.894 -273.321)" fill="#00a0e3"/>
      <path id="Path_204" data-name="Path 204" d="M384.107,411.964c-.2-.1-.4-.2-.6-.3l-.537-.678-7.046-8.934v.155c-.048,1.492-.555,13.317-4.513,14.409-4.223,1.164-9.318,1.456-11.639-6.408s-6.565-25.048-10.923-26.068l6.482-5.315s4.292,5.02,6.04,9.825c-.066-.3-3.029-14.146-.6-16.6h21.266s3.282,9.35,5.533,13.982c1.752,3.6,4.381,12.1,6.074,17.853A6.831,6.831,0,0,1,384.107,411.964Z" transform="translate(-311.168 -273.329)" fill="#3f3d56"/>
      <path id="Path_205" data-name="Path 205" d="M386.92,369.1c-3.282,1.943-17.695,1.152-22.382.836l-1.277-.092c-.138,0,.021-.078.021-.078l.131-1.322,3.495-8.881,18.712-10.852a16.293,16.293,0,0,0-.475,4.895A113.7,113.7,0,0,0,386.92,369.1Z" transform="translate(-314.588 -267.768)" opacity="0.1" style="isolation: isolate"/>
      <path id="Path_206" data-name="Path 206" d="M386.871,368.532c-3.282,1.942-17.695,1.152-22.382.836l-1.277-.09L363,369.26l.233-.059,1.152-.3,2.474-9.9,18.712-10.848a16.284,16.284,0,0,0-.475,4.894A113.647,113.647,0,0,0,386.871,368.532Z" transform="translate(-314.539 -267.634)" fill="#00a0e3"/>
      <path id="Path_207" data-name="Path 207" d="M385.147,353.04c-3.806.878-12.179,3.451-15.4,9.67-2.145,4.139-3.951,5.915-5.21,6.658l-1.277-.089a.721.721,0,0,0,.021-.078l1.152-.3,2.474-9.9,18.712-10.848A16.344,16.344,0,0,0,385.147,353.04Z" transform="translate(-314.602 -267.634)" opacity="0.1" style="isolation: isolate"/>
      <path id="Path_208" data-name="Path 208" d="M306.676,358.659l4.369,2.62a4.272,4.272,0,0,0-1.623,1.149c-.364-1.063-2.649-2.546-3.689-3.179C306.3,358.872,306.676,358.659,306.676,358.659Z" transform="translate(-300.895 -270.137)" opacity="0.1" style="isolation: isolate"/>
      <path id="Path_209" data-name="Path 209" d="M362.147,376.1a.26.26,0,0,1-.3-.042A1.016,1.016,0,0,0,362.147,376.1Z" transform="translate(-314.265 -274.282)" opacity="0.1" style="isolation: isolate"/>
      <path id="Path_210" data-name="Path 210" d="M358.636,311.355a8.66,8.66,0,0,1-6.7-2.476S340.3,312.229,336.354,319.8s-30.739,22.427-30.739,22.427,4.662,2.62,4.223,3.931l17.623-10.194s6.267-4.513,8.007-5.533,11.361-7.281,13.4,9.756,0,15,0,15,2.913,1.021,7.135-7.136S373.331,338,373.331,338l.728-8.589s2.6-5.694.6-8.058a5.067,5.067,0,0,1-1.167-2.465c-.331-2.182,0-5.817,4.637-8.837,7.136-4.662,9.9-8.445,9.9-8.445s.146-2.77-4.222-4.08-22.135-8.445-22.135-8.445l-.6,2.476,14.018,9.893s-6.99,5.67-12.534,5.533C362.557,306.985,363.587,311.209,358.636,311.355Z" transform="translate(-300.867 -253.56)" fill="#f1d04c"/>
      <path id="Path_211" data-name="Path 211" d="M376.04,308.3a28.533,28.533,0,0,1-.806-3.557l-7.717,2.039a8.457,8.457,0,0,1-.176,4.452A8.3,8.3,0,0,0,376.04,308.3Z" transform="translate(-315.574 -257.292)" opacity="0.1" style="isolation: isolate"/>
      <circle id="Ellipse_10" data-name="Ellipse 10" cx="8.3" cy="8.3" r="8.3" transform="translate(45.757 37.191)" fill="#ffb8b8"/>
      <path id="Path_213" data-name="Path 213" d="M382.2,389.915s4.805,9.467,3.349,12.377" transform="translate(-319.113 -277.584)" opacity="0.1" style="isolation: isolate"/>
      <path id="Path_221" data-name="Path 221" d="M369.075,276.984c2.3.263,4.491,1.25,6.76,1.791a3.357,3.357,0,0,0,1.749.065c.881-.272,1.6-1.194,2.51-1.167a2.785,2.785,0,0,1,1.522.766A18.783,18.783,0,0,1,383.7,280.3c1.564,1.7,2.534,3.985,3.96,5.832s3.461,4.014,5.487,3.167a11.713,11.713,0,0,1-10.563,9.066c-1.949.134-3.945-.271-5.832.3a5.054,5.054,0,0,1-1.471.358c-1.087,0-1.961-1-2.639-1.967-1.587-2.28-2.844-4.868-4.631-6.947a3.813,3.813,0,0,0-2.122-1.469,3.933,3.933,0,0,0-2.345.66,11.006,11.006,0,0,0-3.432,2.387,4.751,4.751,0,0,0-1.159,4.178,9.755,9.755,0,0,1,.7,2.34c.018,1.325-1.152,2.292-1.382,3.581a13.532,13.532,0,0,0-.057,1.629,6.681,6.681,0,0,1-2.461,4.324,3.1,3.1,0,0,0-1.128,1.561c-.093.457,0,.937-.06,1.4a2.539,2.539,0,0,1-2.33,1.877,6.724,6.724,0,0,1-3.5-.414,4.033,4.033,0,0,0,1.958-4.277c-.451-2.364-2.826-4.062-2.622-6.466a7.478,7.478,0,0,1,.657-2.128,19.525,19.525,0,0,0,1.122-4.031,6.8,6.8,0,0,0-.069-3.215,9.992,9.992,0,0,0-1.451-2.444,13.9,13.9,0,0,1-1.68-3.441,2.419,2.419,0,0,1-.161-1.14,2.352,2.352,0,0,1,.731-1.178c1.3-1.365,2.686-2.782,4.426-3.173a9.954,9.954,0,0,1,2.513-.1,29.642,29.642,0,0,0,4.366-.186c1.194-.14,3.211-.122,4.222-.9.943-.722,1.475-1.629,2.636-2.089a7.759,7.759,0,0,1,3.682-.421Z" transform="translate(-310.605 -250.663)" fill="#2f2e41"/>
      <path id="Path_177" data-name="Path 177" d="M583.344,260.187s-25.211-1.521-22.241,16.144a4.293,4.293,0,0,0,2.24,4.539s.045-1.309,2.587-.862a11.826,11.826,0,0,0,2.74.132,5.7,5.7,0,0,0,3.347-1.369h0s7.087-2.928,9.842-14.51c0,0,2.039-2.527,1.958-3.176l-4.254,1.817s1.455,3.07.3,5.619c0,0-.138-5.51-.955-5.389-.165.024-2.21,1.063-2.21,1.063s2.5,5.344.614,9.232c0,0,.715-6.588-1.4-8.845l-2.994,1.749s2.923,5.521.941,10.028c0,0,.508-6.911-1.572-9.6l-2.713,2.117s2.745,5.44,1.072,9.177c0,0-.219-8.042-1.659-8.65a16.686,16.686,0,0,0-2.737,2.952s1.881,3.953.713,6.036c0,0-.715-5.36-1.3-5.389,0,0-2.365,3.551-2.611,5.988a12.9,12.9,0,0,1,2.039-6.323,7.133,7.133,0,0,0-3.623,1.873s.368-2.509,4.206-2.731c0,0,1.955-2.694,2.476-2.857,0,0-3.815-.321-6.129.707,0,0,2.036-2.368,6.83-1.29l2.68-2.189s-5.024-.686-7.156.072c0,0,2.452-2.1,7.877-.569l2.917-1.743a26.778,26.778,0,0,0-6.836-.6s2.7-1.452,7.692.123l2.1-.937s-3.138-.617-4.058-.715-.967-.35-.967-.35a10.883,10.883,0,0,1,5.9.656S583.419,260.465,583.344,260.187Z" transform="translate(-361.681 -246.668)" fill="#00a0e3"/>
      <path id="Path_178" data-name="Path 178" d="M541.852,247.914s-11.378-.686-10.049,7.3a1.945,1.945,0,0,0,1.012,2.051s.021-.6,1.171-.392a5.246,5.246,0,0,0,1.236.059,2.562,2.562,0,0,0,1.512-.623h0s3.2-1.323,4.449-6.557c0,0,.919-1.14.883-1.434l-1.923.82a3.453,3.453,0,0,1,.141,2.539s-.063-2.489-.431-2.431c-.075,0-1,.481-1,.481s1.132,2.416.279,4.171c0,0,.323-2.976-.632-4l-1.353.8s1.32,2.494.425,4.53c0,0,.231-3.122-.71-4.338l-1.224.958s1.239,2.458.484,4.148c0,0-.1-3.635-.751-3.911a7.528,7.528,0,0,0-1.237,1.335s.85,1.8.324,2.728c0,0-.324-2.422-.6-2.435a8.053,8.053,0,0,0-1.18,2.694,5.846,5.846,0,0,1,.922-2.857,3.221,3.221,0,0,0-1.638.848s.168-1.135,1.9-1.233a8.211,8.211,0,0,1,1.12-1.294,7.019,7.019,0,0,0-2.77.321s.919-1.069,3.084-.583l1.2-.989a10.285,10.285,0,0,0-3.235.031s1.108-.946,3.56-.257l1.317-.788a12.038,12.038,0,0,0-3.09-.267,4.748,4.748,0,0,1,3.477.053l.943-.422s-1.418-.279-1.836-.324-.437-.158-.437-.158a4.91,4.91,0,0,1,2.665.3A12.305,12.305,0,0,0,541.852,247.914Z" transform="translate(-354.732 -243.748)" fill="#f1d04c"/>
      <path id="Path_224" data-name="Path 224" d="M311.512,407.894s-11.378-.686-10.049,7.3a1.945,1.945,0,0,0,1.012,2.051s.021-.6,1.17-.392a5.216,5.216,0,0,0,1.237.06,2.562,2.562,0,0,0,1.512-.623h0s3.2-1.323,4.449-6.557c0,0,.919-1.14.884-1.434l-1.923.82a3.456,3.456,0,0,1,.141,2.54s-.063-2.489-.431-2.431c-.075,0-1,.481-1,.481s1.132,2.416.279,4.171c0,0,.323-2.976-.632-4l-1.353.8s1.32,2.494.425,4.53c0,0,.231-3.122-.71-4.338l-1.225.958s1.24,2.458.485,4.147c0,0-.1-3.635-.751-3.91a7.5,7.5,0,0,0-1.237,1.335s.85,1.8.324,2.728c0,0-.324-2.422-.6-2.435a8.06,8.06,0,0,0-1.18,2.7,5.838,5.838,0,0,1,.922-2.857,3.221,3.221,0,0,0-1.638.848s.168-1.135,1.9-1.234a8.21,8.21,0,0,1,1.12-1.293,7.019,7.019,0,0,0-2.77.321s.919-1.069,3.083-.584l1.2-.988a10.285,10.285,0,0,0-3.235.031s1.108-.946,3.56-.257l1.317-.788a12.037,12.037,0,0,0-3.09-.267,4.745,4.745,0,0,1,3.476.053l.944-.422s-1.418-.279-1.836-.324-.437-.158-.437-.158a4.91,4.91,0,0,1,2.665.3A12.305,12.305,0,0,0,311.512,407.894Z" transform="translate(-299.852 -281.865)" fill="#00a0e3"/>
    </g>
  </g>
</svg>
