<svg xmlns="http://www.w3.org/2000/svg" width="285.015" height="254" viewBox="0 0 285.015 254"><g transform="translate(-631 -206)"><g transform="translate(631 206)"><path d="M652.7,98.225c10.185,14.805,7.931,33.984,7.931,33.984s-18.766-4.825-28.951-19.63-7.931-33.985-7.931-33.985S642.517,83.419,652.7,98.225Z" transform="translate(-385.871 -48.75)" fill="#0086e0"/><path d="M680.686,83.4c1.192,17.909,14.872,31.588,14.872,31.588s11.747-15.359,10.556-33.268-14.872-31.589-14.872-31.589S679.494,65.486,680.686,83.4Z" transform="translate(-421.184 -31.094)" fill="#00a0e3"/><path d="M354.086.379,492.361,69.644a6.511,6.511,0,0,1,3.587,6.26l-8.034,118.565a3.243,3.243,0,0,1-4.694,2.663L341.792,125.218,349.053,3.269a3.481,3.481,0,0,1,5.033-2.89Z" transform="translate(-211.515 -0.01)" fill="#d0cde1"/><path d="M358.751,6.755,493.63,74.32a6.35,6.35,0,0,1,3.5,6.106l-7.836,115.653a3.164,3.164,0,0,1-4.579,2.6L346.759,128.528,353.841,9.575a3.395,3.395,0,0,1,4.91-2.819Z" transform="translate(-214.589 -3.97)" fill="#3f3d56"/><path d="M376.08,30.441,498.344,91.686a5.757,5.757,0,0,1,3.172,5.535l-7.1,104.836a2.867,2.867,0,0,1-4.15,2.355L365.21,140.824,371.63,33a3.077,3.077,0,0,1,4.45-2.555Z" transform="translate(-226.007 -18.682)" fill="#fff"/><path d="M59.309,386.376l138.452,69.472a9.249,9.249,0,0,0,8.3-.011l102.422-51.8c1.2-1.2,1.033-2.97.649-4.3a9.555,9.555,0,0,0-.757-1.86l-13.957-7.314L177.074,332.223l-7.011-3.709A13.025,13.025,0,0,0,158,328.466l-98.739,51.1a3.814,3.814,0,0,0,.043,6.808Z" transform="translate(-35.393 -202.826)" fill="#d0cde1"/><path d="M59.307,476.755l138.451,69.472a9.249,9.249,0,0,0,8.3-.011l102.422-51.8c1.2-1.2,1.033-2.97.649-4.3L207.018,543a8.937,8.937,0,0,1-8.081.069l-141.7-70.336A3.8,3.8,0,0,0,59.307,476.755Z" transform="translate(-35.391 -293.206)" opacity="0.1" style="isolation:isolate"/><path d="M281.458,500.169,236.62,477.594a6.321,6.321,0,0,0-5.81.066L204.8,491.505a1.851,1.851,0,0,0,.039,3.29l45.717,22.969a5.2,5.2,0,0,0,4.874-.112l26.114-14.659a1.594,1.594,0,0,0-.085-2.825Z" transform="translate(-126.129 -295.805)" opacity="0.1" style="isolation:isolate"/><path d="M376.963,412.229l-48.249,25.539a3.938,3.938,0,0,1-3.612.036L188.776,369.116a2.307,2.307,0,0,1,.018-4.132l47.117-23.235a5.126,5.126,0,0,1,4.565.016l136.466,68.507a1.1,1.1,0,0,1,.021,1.957Z" transform="translate(-116.035 -211.64)" opacity="0.1" style="isolation:isolate"/><path d="M0,0H.539L.612,49.56H.072Z" transform="translate(183.712 73.706) rotate(-63.435)" fill="#f1d04c"/><path d="M0,0H.539L.613,49.8H.074Z" transform="matrix(0.455, -0.89, 0.89, 0.455, 183.704, 80.184)" fill="#f1d04c"/><path d="M0,0H.539L.582,28.528H.042Z" transform="translate(191.827 92.566) rotate(-62.935)" fill="#f1d04c"/><path d="M112.3,310.262s-10.818-4.7-15.9.265S110,313.855,112.3,310.262Z" transform="translate(-59.117 -191.191)" fill="#3f3d56"/><path d="M87.12,244.4c3.635-6.12,10.828-6.405,10.828-6.405s7.008-.893,11.5,8.428c4.19,8.688,9.973,17.076.931,19.11l-1.633-5.065-1.012,5.442a35.557,35.557,0,0,1-3.869.066c-9.684-.312-18.907.091-18.61-3.371C85.654,258,83.622,250.288,87.12,244.4Z" transform="translate(-52.617 -147.601)" fill="#2f2e41"/><path d="M64.4,547.041s4.589,8.492,7.539,8.492,2.622,5.552,1.967,6.859-2.295,4.246.328,8.492a5.193,5.193,0,0,1,.151,4.727c-1.684,4.375-8.236,3.049-8.027-1.632,0-.052,0-.1.008-.156.328-5.226-2.295-13.391-4.917-15.351s-4.917-7.185-4.917-7.185Z" transform="translate(-34.987 -339.297)" fill="#ffb8b8"/><path d="M142.725,541.881s-4.589,8.492-7.539,8.492-2.622,5.552-1.967,6.859,2.295,4.246-.328,8.492a5.193,5.193,0,0,0-.151,4.727c1.684,4.375,8.235,3.05,8.026-1.631,0-.052,0-.1-.008-.156-.328-5.226,2.295-13.391,4.917-15.351s4.917-7.185,4.917-7.185Z" transform="translate(-81.84 -336.096)" fill="#ffb8b8"/><path d="M57.28,425.932l1.967,4.246s28.847,9.471,26.224,20.576S70.064,479.168,68.1,478.515,55.641,475.9,55.313,470.35,62.852,455,62.852,455l-10.817-9.8-15.741-.327L22.861,455s14.1,12.411,7.867,17.31-15.407,8.165-16.718,6.205S-2.052,447.488.242,444.875s25.569-12.411,25.569-12.411l6.228-8.818L56.3,422.339Z" transform="translate(0 -261.952)" fill="#2f2e41"/><path d="M111.912,285.866s-1.639,10.778,1.639,12.085-6.556,6.859-6.556,6.859h-5.573L97.816,297.3s3.278-5.879,1.311-11.431S111.912,285.866,111.912,285.866Z" transform="translate(-60.533 -175.777)" fill="#ffb8b8"/><path d="M111.912,285.866s-1.639,10.778,1.639,12.085-6.556,6.859-6.556,6.859h-5.573L97.816,297.3s3.278-5.879,1.311-11.431S111.912,285.866,111.912,285.866Z" transform="translate(-60.533 -175.777)" opacity="0.1" style="isolation:isolate"/><path d="M106.755,313.977s-3.606,3.919-4.261,4.572-3.606,4.246-9.834-.98-6.884.98-6.884.98v39.193s5.245-2.286,9.506,0,13.112-.653,13.112-.653l1.639-40.5Z" transform="translate(-53.082 -194.743)" fill="#f1d04c"/><path d="M127.665,313.029a7.571,7.571,0,0,1,5.686,0c2.622,1.306,11.8,7.838,11.145,10.778s-9.178,23.516-3.278,33.314,6.884,12.411,6.884,12.411l-14.423-7.512s-11.145-6.859-10.162-11.1S127.665,313.029,127.665,313.029Z" transform="translate(-76.4 -193.794)" fill="#00a0e3"/><path d="M68.22,313.977s-6.88.653-7.208,1.306-10.326,3.429-9.67,6.369,9.67,29.231,5.736,34.13-10.49,11.758-8.2,12.411,6.229-.98,10.162,0,13.112-7.185,12.128-16S71.167,316.263,68.22,313.977Z" transform="translate(-29.958 -194.743)" fill="#00a0e3"/><path d="M132.707,475.572v3.266s1.639,7.512-3.606,7.185-1.967-9.145-1.967-9.145l.328-2.94Z" transform="translate(-78.05 -293.956)" fill="#ffb8b8"/><path d="M94.584,479.1s3.606,7.512,0,8.165-6.228-4.246-6.228-5.552S94.584,479.1,94.584,479.1Z" transform="translate(-54.678 -297.157)" fill="#ffb8b8"/><ellipse cx="0.656" cy="1.306" rx="0.656" ry="1.306" transform="translate(34.497 104.374)" fill="#ffb8b8"/><ellipse cx="0.656" cy="1.306" rx="0.656" ry="1.306" transform="translate(53.837 104.374)" fill="#ffb8b8"/><path d="M64.388,325.157s-8.195,0-7.867,3.266,11.145,59.442,11.145,59.442,4.589-4.246,8.523-3.266Z" transform="translate(-34.971 -201.677)" fill="#00a0e3"/><path d="M139.309,327.737s8.2,1.633,8.2,6.532S135.7,386.2,134.064,386.2s-7.867-.98-7.867-2.613S139.309,327.737,139.309,327.737Z" transform="translate(-78.096 -203.277)" fill="#00a0e3"/><path d="M143.892,353.107l-7.375,28.739S139.959,356.7,143.892,353.107Z" transform="translate(-84.482 -219.012)" opacity="0.2" style="isolation:isolate"/><path d="M80.6,342.474l7.46,37.574S85.677,344.642,80.6,342.474Z" transform="translate(-49.879 -212.417)" opacity="0.2" style="isolation:isolate"/><ellipse cx="9.506" cy="9.472" rx="9.506" ry="9.472" transform="translate(35.317 96.372)" fill="#ffb8b8"/><path d="M94.188,247.288l7.106-3.708,9.812,1.517,2.03,8.934-5.053-.193-1.412-3.282v3.228l-2.332-.089-1.354-5.226-.846,5.562-8.29-.168Z" transform="translate(-58.078 -151.08)" fill="#2f2e41"/><path d="M367.918,98.906,364,108.191l33.072,17.3L408.214,93" transform="translate(-225.258 -57.685)" fill="#f2f2f2"/><path d="M395.072,80.716l14.61-34.252L376.1,30,362,63.42Z" transform="translate(-224.02 -18.611)" fill="#f1d04c"/><path d="M0,0H.539L.582,28.528H.042Z" transform="translate(151.042 24.968) rotate(-62.935)" fill="#fff"/><path d="M0,0H.539L.582,28.528H.042Z" transform="translate(149.137 29.525) rotate(-62.935)" fill="#fff"/></g></g></svg>