<?xml version="1.0" encoding="utf-8"?>
<!-- Generator: Adobe Illustrator 25.1.0, SVG Export Plug-In . SVG Version: 6.00 Build 0)  -->
<svg version="1.1" id="Warstwa_1" xmlns="http://www.w3.org/2000/svg" xmlns:xlink="http://www.w3.org/1999/xlink" x="0px" y="0px"
	 viewBox="0 0 212 190" style="enable-background:new 0 0 212 190;" xml:space="preserve">
<style type="text/css">
	.st0{fill:#F2F2F2;}
	.st1{fill:#00A0E3;}
	.st2{opacity:0.1;enable-background:new    ;}
	.st3{fill:#2F2E41;}
	.st4{fill:#FFB8B8;}
	.st5{fill:#575A89;}
	.st6{fill:#F1D04C;}
</style>
<g id="Group_245" transform="translate(-581 -295)">
	<g id="Group_244" transform="translate(581 295)">
		<path id="Path_112" class="st0" d="M206.5,107.6c9-22.7,6.9-48.2-5.5-69.2L75.7,55.8l120-25.1C169.4-3.7,120.3-10.2,86,16.3
			c-22.3,17.2-33.7,45.1-29.8,73L206.5,107.6z"/>
		<path id="Path_113" class="st0" d="M60.7,106.8c15.6,40.5,61,60.6,101.3,44.9c18.7-7.3,33.9-21.4,42.4-39.6L60.7,106.8z"/>
		<path id="Path_114" class="st1" d="M202.6,134.1c0,30.9-45.3,55.9-101.3,55.9c-30,0-57-7.2-75.6-18.7c-12.1-7.5-20.6-16.8-24-27
			C0.6,141,0,137.6,0,134.1c0-30.8,83.9-170,101.3-55.9S202.6,103.3,202.6,134.1z"/>
		<path id="Path_115" class="st2" d="M151.6,154.4c0,11.4-35.9,20.6-80.1,20.6c-15.3,0.1-30.7-1.1-45.8-3.7
			c-12.1-7.5-20.6-16.8-24-27c13.7-6.3,39.9-10.5,69.8-10.5C115.7,133.8,151.6,143,151.6,154.4z"/>
		<path id="Path_116" class="st3" d="M93.8,36.9c-6.3-10.8-18.9-11.3-18.9-11.3s-12.2-1.6-20.1,14.8c-7.3,15.3-17.4,30-1.6,33.6
			l2.9-8.9l1.8,9.6c2.2,0.2,4.5,0.2,6.8,0.1c16.9-0.5,33,0.2,32.5-5.9C96.3,60.8,99.9,47.3,93.8,36.9z"/>
		<path id="Path_117" class="st3" d="M52.3,131.1c-0.2,1.2-0.5,2.4-0.8,3.5c-0.4,1.1-1,2.2-1.4,3.3c-1.2,3.6,0.4,7.6,3,10.4
			c2.2,2.4,5.1,4.1,8.3,4.9c2.3,0.5,4.7,0.8,7.1,0.7c6.6,0.2,13.4,0.4,19.6-1.7c2-0.7,3.9-1.6,5.7-2.6c0.6-0.3,1.1-0.7,1.5-1.2
			c0.4-0.7,0.6-1.6,0.5-2.4c0-2.8-0.6-5.6-0.4-8.4c0.2-1.5,0.3-3.1,0.2-4.7c-0.4-3.6-3-6.6-6.5-7.4c-1.8-0.3-3.6-0.3-5.4,0
			c-4.7,0.5-9.4,0.7-14.1,0.6c-4.8,0-9.6-0.8-14.4-0.8c-1.4,0-1.4,0.4-1.8,1.8C52.9,128.5,52.5,129.8,52.3,131.1z"/>
		<path id="Path_118" class="st4" d="M65.9,61.8c-0.1,1.2-0.6,2.4-1.2,3.5c-0.8,1.1-2.2,1.8-3.1,2.9c-1.4,1.7-1.4,4-1.4,6.1
			c0,2,0,4.1,1.1,5.7c0.8,1,1.7,1.9,2.9,2.5c4.1,2.8,8.6,5.6,13.5,5.7c2.1,0.2,4.1-0.6,5.6-2c0.6-0.7,1-1.6,1.4-2.4
			c1.3-3.1,2-6.4,2.3-9.8c0.2-1.6,0-3.2-0.4-4.7c-0.6-1.7-1.8-3.1-2.6-4.7c-1-1.9-1.3-4-1-6.1c0-0.1,0-0.3,0-0.4
			c-0.1-0.2-0.3-0.2-0.5-0.2l-9.8-0.7c-0.9,0-1.8-0.2-2.7-0.3c-0.5-0.1-1.9-0.9-2.4-0.7C66.4,56.5,66.1,60.8,65.9,61.8z"/>
		<path id="Path_119" class="st2" d="M65.9,62.2c-0.1,1.2-0.6,2.4-1.2,3.5c-0.8,1.1-2.2,1.8-3.1,2.9c-1.4,1.7-1.4,4-1.4,6.1
			c0,2,0,4.1,1.1,5.7c0.8,1,1.7,1.9,2.9,2.5c4.1,2.8,8.6,5.6,13.5,5.7c2.1,0.2,4.1-0.6,5.6-2c0.6-0.7,1-1.6,1.4-2.4
			c1.3-3.1,2-6.5,2.3-9.8c0.2-1.6,0-3.2-0.4-4.7c-0.6-1.7-1.8-3.1-2.6-4.7c-1-1.9-1.3-4-1-6.1c0-0.1,0-0.3,0-0.4
			c-0.1-0.2-0.3-0.2-0.5-0.2l-9.8-0.7c-0.9,0-1.8-0.1-2.7-0.3c-0.5-0.1-1.9-0.9-2.4-0.7C66.4,56.8,66.1,61.1,65.9,62.2z"/>
		<ellipse id="Ellipse_14" class="st4" cx="75.3" cy="48.7" rx="14.4" ry="14.5"/>
		<path id="Path_120" class="st1" d="M67.9,81.1c0.7,0.8,1.6,1.5,2.5,2c1,0.4,2.1,0.6,3.2,0.6c2.6,0.1,5.4-0.4,7.2-2.3
			c2.3-2.4,2.3-6.3,4.1-9.1c0.1-0.3,0.3-0.5,0.6-0.6c0.3-0.2,0.7-0.2,1-0.2c2.3,0,4.3,1.5,6.1,2.9c0.9,0.6,1.6,1.3,2.2,2.2
			c0.4,0.7,0.6,1.5,0.7,2.2c0.8,4.4,1.3,8.9,1.5,13.4c0.2,2.5,0.3,5,0.3,7.5c0,8.2-1.9,16.2-3.8,24.2c-0.1,1.1-0.7,2-1.5,2.7
			c-0.4,0.2-0.9,0.3-1.3,0.3c-5.4,0.7-10.8,1.2-16.3,1.4c-2.1,0-4.2,0-6.4-0.2c-0.4,0-0.7-0.1-1.1-0.2c-0.5-0.2-0.9-0.6-1.2-1
			c-2.9-3.7-3.1-8.9-3.1-13.6c0-11.6,0.5-23.2,1.2-34.8c0.2-1,0-2-0.6-2.9C64.7,77.6,66.2,79.4,67.9,81.1z"/>
		<path id="Path_121" class="st5" d="M64.9,64.4c-0.5,0.9-4.1,3.1-4.8,3.8c-3.9,4.1-10.9,3.9-14.5,8.3c-1.2,1.6-2,3.5-2.4,5.4
			c-0.7,2.7-1,5.7,0.1,8.3c1.1,2.5,3.4,4.2,4.9,6.4c1.7,2.4,2.5,5.4,3.2,8.2c0.7,2.1,1,4.3,0.9,6.5c-0.2,2.5-1.4,4.8-2.1,7.1
			c-0.7,2.4-0.8,5.2,0.8,7.1c1.3,1.3,3,2.1,4.9,2.2c2.3,0.3,4.6,0.6,7,0.6c2.1,0.1,4.3,0.1,5.9-1.2c1.2-1.1,1.9-2.7,1.9-4.4
			c0-1.6-0.2-3.3-0.5-4.9c-0.2-1.7-0.3-3.4-0.4-5.1c-0.3-7.6-0.4-15.2-0.1-22.7c0.1-1.6,0-3.2-0.2-4.7c-0.6-2-1.4-3.9-2.4-5.7
			c-1.8-3.5-2.6-7.5-2.4-11.4C64.9,64.3,66.6,61.3,64.9,64.4z"/>
		<path id="Path_122" class="st5" d="M85.1,64.7c0.7,0.8,3.3,1,4.2,1.5c0.9,0.4,1.8,0.7,2.8,1c3.4,1,6.7,2.5,9.7,4.5
			c0.6,0.4,1.2,0.8,1.6,1.4c0.5,0.8,0.8,1.6,0.9,2.5c1.3,4.7,1.1,9.7-0.8,14.2l-2.8,8.9c-2.1,6.6-4.1,13.3-4.7,20.2
			c-0.3,3.8-0.2,7.7,0.4,11.5c0.1,0.4,0.1,0.8-0.1,1.1c-0.2,0.2-0.4,0.3-0.7,0.3c-1.4,0-2.7-0.3-3.8-1.1c-3.7-1.8-7.6-3.1-11.7-3.8
			c1.6-2.3,2.8-4.8,3.6-7.5c0.5-1.7,0.8-3.4,1.1-5.2l1.3-7.5c0.5-2.7,0.9-5.5,1.1-8.3c0.1-1,0-2.1-0.2-3.1c-0.3-1-0.7-1.9-1.2-2.8
			c-2.2-4.4-3-9.4-2.3-14.3c0.4-2.1,1.1-4.2,0.8-6.4c-0.3-2,0-3.6-0.5-5.7C81.8,57.9,83.7,63.3,85.1,64.7z"/>
		<path id="Path_123" class="st5" d="M45.6,83.5c-1,2-2.6,3.7-3.1,5.9c-0.2,1-0.3,2-0.3,3.1c-0.1,1.6,0.1,3.1,0.5,4.6
			c0.3,1,0.8,1.8,1.2,2.8c0.5,1.3,0.7,2.7,0.7,4.1c-0.1,1.9-0.8,3.8-0.8,5.8c-0.1,3.1,1.3,5.9,2.7,8.6c1.3-3.3,5-4.8,8.3-3.5
			c0.3,0.1,0.6,0.3,1,0.5c0.3-0.4,0.5-0.9,0.4-1.4c0.1-3.5,0.2-7.1,0.3-10.6c0.1-5.5,0.3-11-1-16.4c-0.5-2.4-1.5-4.7-3.1-6.7
			c-0.9-1-3.7-3.6-5.1-2.5c-0.6,0.5-0.5,1.8-0.6,2.5C46.4,81.5,46.1,82.6,45.6,83.5z"/>
		<path id="Path_124" class="st5" d="M105.5,77.7c0.4,1.5,0.6,3,0.5,4.5c0,3.1,0,6.1-0.1,9.2c0,1.6-0.2,3.1-0.6,4.6
			c-0.3,1-0.8,1.9-1.1,2.9c-1,2.9-0.4,6.1-0.4,9.2c0.1,1,0,2-0.3,3c-0.5,1.9-1.9,3.5-2.8,5.2c-0.8,1.7-1.6,3.4-2.5,5
			c-1.1,1.5-3,2.8-4.8,2.3c-1.4-0.5-2.5-1.5-3-2.8c-1.5-2.8-2-5.9-1.4-9c0.7-3.8,2.9-7.1,3.7-10.8c1.1-5.1-0.6-10.4-0.5-15.7
			c0-0.8,0.1-1.6,0.3-2.4c0.5-1.2,1.2-2.2,2.1-3.1c1-1.2,2-2.5,2.9-3.8c0.6-0.9,1.4-3.2,2.4-3.3C102.2,72.2,104.9,75.9,105.5,77.7z"
			/>
		<path id="Path_125" class="st3" d="M33.5,128.9c-1.3-0.3-2.6-0.5-4-0.4c-5.4,0.3-9.6,5-9.3,10.4c0,0.4,0.1,0.8,0.1,1.3
			c0.3,1.5,0.9,2.9,1.6,4.3c0.9,2.2,2.4,4.1,4.3,5.6c1.2,0.8,2.4,1.4,3.8,1.8l10.2,3.9c1.5,0.6,3,1.1,4.5,1.7
			c7.6,2.7,15.6,4.2,23.7,4.7c2.5,0.2,4.9,0.1,7.4-0.4c0.6-0.1,1.1-0.4,1.5-0.8c0.2-0.3,0.3-0.7,0.3-1.1l0.6-4.4
			c0.1-0.6,0.1-1.3-0.1-1.9c-0.4-0.7-1-1.3-1.7-1.6c-6.7-3.9-14.6-6-20.3-11.3c-1.3-1.3-2.5-3.2-4.1-4.1c-1.8-1-4-1.5-5.9-2.4
			C42,132.1,38,129.9,33.5,128.9z"/>
		<path id="Path_126" class="st2" d="M43.7,134.8c3.6,1.1,18.9,9,21.5,11.8c-0.4,0.1-12.3-6.6-12.6-6.7c-3.3-0.9-6.5-2-9.6-3.4
			c-0.6-0.3-4-1.6-3.9-2.4C39.3,133.2,43,134.6,43.7,134.8z"/>
		<path id="Path_127" class="st4" d="M88.8,164.4c0.2,0,0.4,0,0.6-0.2c0.1-0.2,0.2-0.4,0.2-0.7c0-2,0-4,0-6
			c-1.8-0.7-3.6-1.2-5.6-1.3l-8.9-1.2c0.2,0-1.4,3.8-1.1,4.3c0.4,0.9,3.7,1.7,4.6,2.1C81.9,162.9,85.2,164.5,88.8,164.4z"/>
		<path id="Path_128" class="st4" d="M61.1,157.5c-1.7,0.3-3.5,0.5-4.6,1.8c-1.4,1.7-0.8,4.1-0.1,6.2c0.2,1.1,1.2,1.8,2.3,1.7
			c0,0,0,0,0.1,0c1.5,0.2,3.1,0,4.5-0.6c0.6-0.4,1.2-0.8,1.7-1.3c1-0.7,2.1-1.2,3.2-1.5c2.1-0.7,4.2-1.1,6.4-1.3
			c0.9,0,1.7-0.2,2.5-0.4c0.8-0.3,1.5-0.9,1.8-1.7c0.3-1.1-0.3-2.2-0.9-3.2c-0.7-1.3-1.6-2.4-2.7-3.3c-1.6-1.3-2.5-0.3-4.1,0.5
			C67.9,155.9,64.5,157,61.1,157.5z"/>
		<path id="Path_129" class="st6" d="M56.7,159l-10.6-3.1c-1.3-0.4-2.6-0.7-3.9-0.8c-1.4-0.1-2.7,0.5-3.6,1.5
			c-0.7,1-1.2,2.3-1.3,3.5l-0.4,2.7c-0.3,1.4-0.4,2.7-0.2,4.1c0.1,1.4,0.9,2.7,2.1,3.4c1.5,0.8,3.3,0.4,4.9,0.1
			c3.3-0.7,6.7-1,10.1-1.1c1.3,0.1,2.5-0.1,3.7-0.6c1.3-0.8,2.2-2.2,2.3-3.7C59.8,162.7,59.1,159.7,56.7,159z"/>
		<path id="Path_130" class="st6" d="M93,156.3c1.3-0.4,2.6-0.9,3.9-1.5c1.9-0.5,3.9-0.8,5.8-0.6c1.5-0.3,3,0.7,3.3,2.2
			c0.1,0.3,0.1,0.6,0,0.9l0.9,6.2c0.2,1.2,0.3,2.4,0.1,3.5c-0.2,1.2-1,2.2-2.2,2.6c-1.4,0.4-2.7-0.5-4.1-1.1
			c-3.3-1.5-7.1-1.1-10.5-2.2c-0.7-0.1-1.2-0.5-1.6-1.1c-0.1-0.3-0.2-0.7-0.1-1.1c0.1-2-0.4-4.7,0.2-6.7
			C89.4,155.8,91.5,156.3,93,156.3z"/>
		<path id="Path_131" class="st3" d="M115.5,126.4c2.1-0.5,4.3-0.7,6.5-0.4c3.8,0,6.9,3,6.9,6.8c0,0.3,0,0.6-0.1,1
			c0.1,4.2-1.3,8.4-4,11.7c-0.6,0.8-1.4,1.6-2.3,2.2c-0.9,0.6-1.9,1.1-3,1.4l-22.9,9.1c-6,2.5-12.1,4.6-18.4,6.4
			c-0.7,0.3-1.6,0-1.9-0.7l0,0c-2-2.9-3.7-6-5-9.2c-0.2-0.3-0.2-0.7,0.1-0.9c0.1,0,0.1-0.1,0.2-0.1l16.2-9.3
			c1.2-0.6,2.3-1.4,3.3-2.3c0.7-0.7,1.3-1.5,1.7-2.4c0.3-0.7,0.4-2.4,0.8-2.9c0.4-0.5,1.9-0.6,2.5-0.8c0.9-0.3,1.9-0.6,2.7-1
			c3.6-1.6,6.9-4,10.3-5.9C111.2,127.8,113.3,126.9,115.5,126.4z"/>
		<path id="Path_132" class="st2" d="M106.3,133.3c-2.8,2.1-6.4,4-9.2,6.2c-0.9,0.7-16.7,9.6-16.9,10.8c2.6,0.4,19-11.1,21.3-12.2
			c2.3-1.2,4.5-2.7,6.5-4.4c0.5-0.4,2.8-1.6,1.2-2.1C108.5,131.3,106.9,132.9,106.3,133.3z"/>
		<path id="Path_133" class="st6" d="M87.1,64.9H62.6c-2.1,0-3.7,1.7-3.7,3.8V70h-0.3v3.1h0.3v2.2h-0.3v1.8h0.3v22.7
			c0,2.1,1.7,3.8,3.7,3.8h24.5c2.1,0,3.7-1.7,3.7-3.8V68.7C90.8,66.6,89.2,64.9,87.1,64.9z"/>
		<path id="Path_134" class="st3" d="M91,35.9l-12.4-6.5L61.4,32l-3.5,15.7l8.8-0.3l2.5-5.8v5.7l4.1-0.2l2.4-9.2l1.5,9.8l14.5-0.3
			L91,35.9z"/>
		<path id="Path_135" class="st4" d="M48.8,124.3c0.6,1,1.4,1.8,2.3,2.3c1.3,0.6,2.7,0.5,4-0.1c1.2-0.7,2.2-1.7,2.9-2.9
			c1.2-2.5,1.7-5.2,1.5-8c-0.2-2.7-0.8-5.4-1-8.2c-0.2-2-0.2-4-0.2-6c0-0.4,0-0.8,0.3-1.2c0.4-0.4,0.8-0.6,1.3-0.7
			c2.7-0.8,4.5-3.4,5.8-5.9c1-1.6,1.5-3.5,1.5-5.4c-0.2-1.9-1.5-3.8-3.4-4c-1.6-0.2-3,0.8-4.1,1.9c-2.8,2.8-4.6,6.4-5.2,10.4
			c-0.1,1.9-0.3,3.9-0.7,5.8c-1.1,4-4.6,6.4-6.3,10C45.5,116.3,46.5,120.8,48.8,124.3z"/>
		<path id="Path_136" class="st4" d="M100.2,109.1c-0.8,1.9-2.3,3.3-4.2,4.1c-1.2,0.5-2.5,0.5-3.7,0.2c-1.2-0.3-2.2-1.2-2.7-2.4
			c-0.2-0.6-0.3-1.2-0.3-1.8c-0.3-2.7,0-5.4,0.9-8c0.4-1,0.9-1.9,1.2-2.9c0.3-1.2,0.4-2.3,0.4-3.5l0.3-7.3c0.1-0.5,0-1.1-0.1-1.6
			c-0.5-1-1.2-1.9-2.2-2.4c-2.2-1.5-4.4-3.3-5.4-5.8c-0.4-0.7-0.5-1.6-0.4-2.4c0.5-1.5,1.7-2.5,3.2-2.7c3.9-0.9,7.7,1.6,8.6,5.5
			c0,0.1,0,0.2,0.1,0.3c0.1,0.8,0.1,1.7,0.2,2.5c0.2,1.8,0.7,3.5,1.1,5.2c0.9,4.3,0.4,8.8,1.3,13.1
			C99.1,102.8,101.8,105.1,100.2,109.1z"/>
		<ellipse id="Ellipse_15" class="st1" cx="75.2" cy="78.4" rx="3.1" ry="3.1"/>
	</g>
</g>
</svg>
